<mxfile host="app.diagrams.net" modified="2024-04-19T19:30:43.683Z" agent="Mozilla/5.0 (Windows NT 10.0; Win64; x64; rv:124.0) Gecko/20100101 Firefox/124.0" etag="BS8xohw4aFq96mrs1Rhk" version="24.2.2" type="github">
  <diagram id="prtHgNgQTEPvFCAcTncT" name="Page-1">
    <mxGraphModel dx="1188" dy="690" grid="1" gridSize="10" guides="1" tooltips="1" connect="1" arrows="1" fold="1" page="1" pageScale="1" pageWidth="827" pageHeight="1169" math="0" shadow="0">
      <root>
        <mxCell id="0" />
        <mxCell id="1" parent="0" />
        <mxCell id="dNxyNK7c78bLwvsdeMH5-11" value="Orgchart" style="swimlane;html=1;startSize=20;horizontal=1;containerType=tree;glass=0;" parent="1" vertex="1">
          <mxGeometry x="40" y="80" width="710" height="290" as="geometry" />
        </mxCell>
        <UserObject label="%name%&lt;br&gt;&lt;i style=&quot;color: gray&quot;&gt;%position%&lt;/i&gt;&lt;br&gt;&lt;a href=&quot;mailto:%email%&quot;&gt;Email&lt;/a&gt;" name="Tessa Miller" position="CFO" location="Office 1" email="me@example.com" placeholders="1" link="https://www.draw.io" id="dNxyNK7c78bLwvsdeMH5-12">
          <mxCell style="label;image=https://cdn3.iconfinder.com/data/icons/user-avatars-1/512/users-3-128.png;whiteSpace=wrap;html=1;rounded=0;glass=0;treeMoving=1;treeFolding=1;" parent="dNxyNK7c78bLwvsdeMH5-11" vertex="1">
            <mxGeometry x="260" y="50" width="180" height="70" as="geometry" />
          </mxCell>
        </UserObject>
        <mxCell id="dNxyNK7c78bLwvsdeMH5-13" value="" style="endArrow=blockThin;endFill=1;fontSize=11;edgeStyle=elbowEdgeStyle;elbow=vertical;rounded=0;" parent="dNxyNK7c78bLwvsdeMH5-11" source="dNxyNK7c78bLwvsdeMH5-12" target="dNxyNK7c78bLwvsdeMH5-14" edge="1">
          <mxGeometry relative="1" as="geometry" />
        </mxCell>
        <UserObject label="%name%&lt;br&gt;&lt;i style=&quot;color: gray&quot;&gt;%position%&lt;/i&gt;&lt;br&gt;&lt;a href=&quot;mailto:%email%&quot;&gt;Email&lt;/a&gt;" name="Edward Morrison" position="Brand Manager" location="Office 2" email="me@example.com" placeholders="1" link="https://www.draw.io" id="dNxyNK7c78bLwvsdeMH5-14">
          <mxCell style="label;image=https://cdn3.iconfinder.com/data/icons/user-avatars-1/512/users-10-3-128.png;whiteSpace=wrap;html=1;rounded=0;glass=0;treeFolding=1;treeMoving=1;" parent="dNxyNK7c78bLwvsdeMH5-11" vertex="1">
            <mxGeometry x="40" y="180" width="180" height="80" as="geometry" />
          </mxCell>
        </UserObject>
        <mxCell id="dNxyNK7c78bLwvsdeMH5-15" value="" style="endArrow=blockThin;endFill=1;fontSize=11;edgeStyle=elbowEdgeStyle;elbow=vertical;rounded=0;" parent="dNxyNK7c78bLwvsdeMH5-11" source="dNxyNK7c78bLwvsdeMH5-12" target="dNxyNK7c78bLwvsdeMH5-16" edge="1">
          <mxGeometry relative="1" as="geometry" />
        </mxCell>
        <UserObject label="%name%&lt;br&gt;&lt;i style=&quot;color: gray&quot;&gt;%position%&lt;/i&gt;&lt;br&gt;&lt;a href=&quot;mailto:%email%&quot;&gt;Email&lt;/a&gt;" name="Evan Valet" position="HR Director" location="Office 4" email="me@example.com" placeholders="1" link="https://www.draw.io" id="dNxyNK7c78bLwvsdeMH5-16">
          <mxCell style="label;image=https://cdn3.iconfinder.com/data/icons/user-avatars-1/512/users-9-2-128.png;whiteSpace=wrap;html=1;rounded=0;glass=0;treeFolding=1;treeMoving=1;" parent="dNxyNK7c78bLwvsdeMH5-11" vertex="1">
            <mxGeometry x="260" y="180" width="180" height="80" as="geometry" />
          </mxCell>
        </UserObject>
        <mxCell id="dNxyNK7c78bLwvsdeMH5-17" value="" style="endArrow=blockThin;endFill=1;fontSize=11;edgeStyle=elbowEdgeStyle;elbow=vertical;rounded=0;" parent="dNxyNK7c78bLwvsdeMH5-11" source="dNxyNK7c78bLwvsdeMH5-12" target="dNxyNK7c78bLwvsdeMH5-18" edge="1">
          <mxGeometry relative="1" as="geometry" />
        </mxCell>
        <UserObject label="%name%&lt;br&gt;&lt;i style=&quot;color: gray&quot;&gt;%position%&lt;/i&gt;&lt;br&gt;&lt;a href=&quot;mailto:%email%&quot;&gt;Email&lt;/a&gt;" name="Alison Donovan" position="System Admin" location="Office 3" email="me@example.com" placeholders="1" link="https://www.draw.io" id="dNxyNK7c78bLwvsdeMH5-18">
          <mxCell style="label;image=https://cdn3.iconfinder.com/data/icons/user-avatars-1/512/users-2-128.png;whiteSpace=wrap;html=1;rounded=0;glass=0;" parent="dNxyNK7c78bLwvsdeMH5-11" vertex="1">
            <mxGeometry x="490" y="180" width="180" height="80" as="geometry" />
          </mxCell>
        </UserObject>
        <mxCell id="N_H7r8gi8kSWgMIb8MQw-24" style="edgeStyle=orthogonalEdgeStyle;rounded=0;orthogonalLoop=1;jettySize=auto;html=1;" parent="1" source="N_H7r8gi8kSWgMIb8MQw-1" target="N_H7r8gi8kSWgMIb8MQw-22" edge="1">
          <mxGeometry relative="1" as="geometry">
            <Array as="points">
              <mxPoint x="330" y="730" />
              <mxPoint x="330" y="842" />
            </Array>
          </mxGeometry>
        </mxCell>
        <mxCell id="N_H7r8gi8kSWgMIb8MQw-25" value="generate" style="edgeLabel;html=1;align=center;verticalAlign=middle;resizable=0;points=[];" parent="N_H7r8gi8kSWgMIb8MQw-24" vertex="1" connectable="0">
          <mxGeometry x="0.0571" y="-1" relative="1" as="geometry">
            <mxPoint as="offset" />
          </mxGeometry>
        </mxCell>
        <mxCell id="N_H7r8gi8kSWgMIb8MQw-40" style="edgeStyle=orthogonalEdgeStyle;rounded=0;orthogonalLoop=1;jettySize=auto;html=1;entryX=0;entryY=0.5;entryDx=0;entryDy=0;" parent="1" source="N_H7r8gi8kSWgMIb8MQw-1" target="N_H7r8gi8kSWgMIb8MQw-2" edge="1">
          <mxGeometry relative="1" as="geometry">
            <Array as="points">
              <mxPoint x="330" y="730" />
              <mxPoint x="330" y="595" />
            </Array>
          </mxGeometry>
        </mxCell>
        <mxCell id="N_H7r8gi8kSWgMIb8MQw-23" style="edgeStyle=orthogonalEdgeStyle;rounded=0;orthogonalLoop=1;jettySize=auto;html=1;entryX=0.5;entryY=0;entryDx=0;entryDy=0;" parent="1" source="N_H7r8gi8kSWgMIb8MQw-2" target="N_H7r8gi8kSWgMIb8MQw-22" edge="1">
          <mxGeometry relative="1" as="geometry" />
        </mxCell>
        <mxCell id="N_H7r8gi8kSWgMIb8MQw-17" value="User" style="outlineConnect=0;fontColor=#232F3E;gradientColor=none;fillColor=#232F3E;strokeColor=none;dashed=0;verticalLabelPosition=bottom;verticalAlign=top;align=center;html=1;fontSize=12;fontStyle=0;aspect=fixed;pointerEvents=1;shape=mxgraph.aws4.user;labelBackgroundColor=none;" parent="1" vertex="1">
          <mxGeometry x="692.4999999999998" y="705" width="50" height="50" as="geometry" />
        </mxCell>
        <mxCell id="N_H7r8gi8kSWgMIb8MQw-19" style="edgeStyle=orthogonalEdgeStyle;rounded=0;orthogonalLoop=1;jettySize=auto;html=1;" parent="1" source="N_H7r8gi8kSWgMIb8MQw-18" target="N_H7r8gi8kSWgMIb8MQw-17" edge="1">
          <mxGeometry relative="1" as="geometry" />
        </mxCell>
        <mxCell id="N_H7r8gi8kSWgMIb8MQw-18" value="Web App" style="shape=image;verticalLabelPosition=bottom;labelBackgroundColor=default;verticalAlign=top;aspect=fixed;imageAspect=0;image=data:image/svg+xml,PHN2ZyB4bWw6c3BhY2U9InByZXNlcnZlIiBzdHlsZT0iZW5hYmxlLWJhY2tncm91bmQ6bmV3IDAgMCA4MCA4MCIgdmlld0JveD0iMCAwIDgwIDgwIiB4bWxucz0iaHR0cDovL3d3dy53My5vcmcvMjAwMC9zdmciPiYjeGE7ICAgIDxwYXRoIGQ9Ik00MCAwIDIuOCAxMy4zbDUuNiA0OS4yTDQwIDgwbDMxLjYtMTcuNSA1LjYtNDkuMnoiIHN0eWxlPSJmaWxsOiNkZDAwMzEiLz4mI3hhOyAgICA8cGF0aCBkPSJNNDAgMHY4LjktLjFWODBsMzEuNi0xNy41IDUuNi00OS4yeiIgc3R5bGU9ImZpbGw6I2MzMDAyZiIvPiYjeGE7ICAgIDxwYXRoIHN0eWxlPSJmaWxsOiNmZmYiIGQ9Ik00MCA4LjggMTYuNyA2MWg4LjdsNC43LTExLjdoMTkuOEw1NC41IDYxaDguN0w0MCA4Ljh6bTYuOCAzMy40SDMzLjJMNDAgMjUuOGw2LjggMTYuNHoiLz4mI3hhOzwvc3ZnPg==;" parent="1" vertex="1">
          <mxGeometry x="567.5" y="705" width="50" height="50" as="geometry" />
        </mxCell>
        <mxCell id="N_H7r8gi8kSWgMIb8MQw-21" value="Research" style="outlineConnect=0;fontColor=#232F3E;gradientColor=none;fillColor=#116D5B;strokeColor=none;dashed=0;verticalLabelPosition=bottom;verticalAlign=top;align=center;html=1;fontSize=12;fontStyle=0;aspect=fixed;pointerEvents=1;shape=mxgraph.aws4.sagemaker_notebook;labelBackgroundColor=none;" parent="1" vertex="1">
          <mxGeometry x="695.7" y="839" width="43.59" height="50" as="geometry" />
        </mxCell>
        <mxCell id="N_H7r8gi8kSWgMIb8MQw-22" value="" style="swimlane;startSize=0;" parent="1" vertex="1">
          <mxGeometry x="406.5" y="689" width="110" height="305" as="geometry" />
        </mxCell>
        <mxCell id="N_H7r8gi8kSWgMIb8MQw-4" value="API client&#xa;for Angular" style="shape=image;verticalLabelPosition=bottom;labelBackgroundColor=default;verticalAlign=top;aspect=fixed;imageAspect=0;image=data:image/svg+xml,PHN2ZyB4bWw6c3BhY2U9InByZXNlcnZlIiBzdHlsZT0iZW5hYmxlLWJhY2tncm91bmQ6bmV3IDAgMCA4MCA4MCIgdmlld0JveD0iMCAwIDgwIDgwIiB4bWxucz0iaHR0cDovL3d3dy53My5vcmcvMjAwMC9zdmciPiYjeGE7ICAgIDxwYXRoIGQ9Ik00MCAwIDIuOCAxMy4zbDUuNiA0OS4yTDQwIDgwbDMxLjYtMTcuNSA1LjYtNDkuMnoiIHN0eWxlPSJmaWxsOiNkZDAwMzEiLz4mI3hhOyAgICA8cGF0aCBkPSJNNDAgMHY4LjktLjFWODBsMzEuNi0xNy41IDUuNi00OS4yeiIgc3R5bGU9ImZpbGw6I2MzMDAyZiIvPiYjeGE7ICAgIDxwYXRoIHN0eWxlPSJmaWxsOiNmZmYiIGQ9Ik00MCA4LjggMTYuNyA2MWg4LjdsNC43LTExLjdoMTkuOEw1NC41IDYxaDguN0w0MCA4Ljh6bTYuOCAzMy40SDMzLjJMNDAgMjUuOGw2LjggMTYuNHoiLz4mI3hhOzwvc3ZnPg==;" parent="N_H7r8gi8kSWgMIb8MQw-22" vertex="1">
          <mxGeometry x="30" y="16" width="50" height="50" as="geometry" />
        </mxCell>
        <mxCell id="N_H7r8gi8kSWgMIb8MQw-5" value="API client&#xa;for Python&#xa;" style="shape=image;verticalLabelPosition=bottom;labelBackgroundColor=default;verticalAlign=top;aspect=fixed;imageAspect=0;image=data:image/svg+xml,PHN2ZyB4bWw6c3BhY2U9InByZXNlcnZlIiBzdHlsZT0iZW5hYmxlLWJhY2tncm91bmQ6bmV3IDAgMCA3Ny4xIDc4OyIgdmlld0JveD0iMCAwIDc3LjEgNzgiIHk9IjBweCIgeD0iMHB4IiB4bWxuczp4bGluaz0iaHR0cDovL3d3dy53My5vcmcvMTk5OS94bGluayIgeG1sbnM9Imh0dHA6Ly93d3cudzMub3JnLzIwMDAvc3ZnIiBpZD0ic3ZnMiIgdmVyc2lvbj0iMS4xIj4mI3hhOzxzdHlsZSB0eXBlPSJ0ZXh0L2NzcyI+JiN4YTsJLnN0MHtmaWxsOnVybCgjcGF0aDE5NDhfMDAwMDAwODk1NDA0NjY0MzY0MTE4NDM5NDAwMDAwMDgwNzg5MzQ2NzkyMTI0MTU2NzVfKTt9JiN4YTsJLnN0MXtmaWxsOnVybCgjcGF0aDE5NTBfMDAwMDAwMTUzNTQzOTA3MDA2MzcxNzIyOTAwMDAwMTI3NzIxOTY5NDkzNTQ5OTQzMDRfKTt9JiN4YTs8L3N0eWxlPiYjeGE7JiN4YTsJJiN4YTs8bGluZWFyR3JhZGllbnQgZ3JhZGllbnRUcmFuc2Zvcm09Im1hdHJpeCgwLjU2MjUgMCAwIC0wLjU2OCAtMjMyLjc2NTUgLTExNS42ODQ2KSIgeTI9Ii0yNzIuNjg1MiIgeDI9IjQ4Ni4wNyIgeTE9Ii0yMDcuNTkwNiIgeDE9IjQxMC40MTA3IiBncmFkaWVudFVuaXRzPSJ1c2VyU3BhY2VPblVzZSIgaWQ9InBhdGgxOTQ4XzAwMDAwMDgwMTg1MTE3NzA4MjQ1NDkxNTEwMDAwMDAwNzgxNzA0ODY0NzE0MTE1NzYzXyI+JiN4YTsJPHN0b3Agc3R5bGU9InN0b3AtY29sb3I6IzVBOUZENCIgb2Zmc2V0PSIwIi8+JiN4YTsJPHN0b3Agc3R5bGU9InN0b3AtY29sb3I6IzMwNjk5OCIgb2Zmc2V0PSIxIi8+JiN4YTs8L2xpbmVhckdyYWRpZW50PiYjeGE7PHBhdGggZD0iTTM4LjEsMCYjeEE7JiM5O2MtMy4yLDAtNi4yLDAuMy04LjksMC44Yy03LjksMS40LTkuMyw0LjMtOS4zLDkuN3Y3LjFoMTguNnYyLjRIMTkuOWgtN2MtNS40LDAtMTAuMSwzLjMtMTEuNiw5LjRjLTEuNyw3LjEtMS44LDExLjUsMCwxOC45JiN4QTsmIzk7YzEuMyw1LjUsNC41LDkuNCw5LjksOS40aDYuNHYtOC41YzAtNi4xLDUuMy0xMS42LDExLjYtMTEuNmgxOC42YzUuMiwwLDkuMy00LjMsOS4zLTkuNVYxMC40YzAtNS00LjMtOC44LTkuMy05LjcmI3hBOyYjOTtDNDQuNiwwLjIsNDEuMywwLDM4LjEsMHogTTI4LjEsNS43YzEuOSwwLDMuNSwxLjYsMy41LDMuNmMwLDItMS42LDMuNS0zLjUsMy41Yy0xLjksMC0zLjUtMS42LTMuNS0zLjVDMjQuNiw3LjMsMjYuMSw1LjcsMjguMSw1Ljd6IiBzdHlsZT0iZmlsbDp1cmwoI3BhdGgxOTQ4XzAwMDAwMDgwMTg1MTE3NzA4MjQ1NDkxNTEwMDAwMDAwNzgxNzA0ODY0NzE0MTE1NzYzXyk7IiBpZD0icGF0aDE5NDgiLz4mI3hhOzxsaW5lYXJHcmFkaWVudCBncmFkaWVudFRyYW5zZm9ybT0ibWF0cml4KDAuNTYyNSAwIDAgLTAuNTY4IC0yMzIuNzY1NSAtMTE1LjY4NDYpIiB5Mj0iLTI3My44NTc2IiB4Mj0iNDg4LjMwMjUiIHkxPSItMzEyLjA4MzMiIHgxPSI1MTUuMzIwMyIgZ3JhZGllbnRVbml0cz0idXNlclNwYWNlT25Vc2UiIGlkPSJwYXRoMTk1MF8wMDAwMDA3OTQ1MDQ5NDkzMjQwMzg2OTIyMDAwMDAwNjY3MDQ4MTU0Mjk5Nzk4NDY0NV8iPiYjeGE7CTxzdG9wIHN0eWxlPSJzdG9wLWNvbG9yOiNGRkQ0M0IiIG9mZnNldD0iMCIvPiYjeGE7CTxzdG9wIHN0eWxlPSJzdG9wLWNvbG9yOiNGRkU4NzMiIG9mZnNldD0iMSIvPiYjeGE7PC9saW5lYXJHcmFkaWVudD4mI3hhOzxwYXRoIGQ9Ik01OS40LDE5Ljl2OC4zJiN4QTsmIzk7QzU5LjQsMzQuNiw1NCw0MCw0Ny44LDQwSDI5LjJjLTUuMSwwLTkuMyw0LjQtOS4zLDkuNXYxNy43YzAsNSw0LjQsOCw5LjMsOS41YzUuOSwxLjcsMTEuNSwyLDE4LjYsMGM0LjctMS40LDkuMy00LjEsOS4zLTkuNVY2MCYjeEE7JiM5O0gzOC41di0yLjRoMTguNmg5LjNjNS40LDAsNy40LTMuOCw5LjMtOS40YzEuOS01LjgsMS45LTExLjQsMC0xOC45Yy0xLjMtNS40LTMuOS05LjQtOS4zLTkuNEg1OS40eiBNNDksNjQuOGMxLjksMCwzLjUsMS42LDMuNSwzLjUmI3hBOyYjOTtjMCwyLTEuNiwzLjYtMy41LDMuNmMtMS45LDAtMy41LTEuNi0zLjUtMy42QzQ1LjUsNjYuMyw0Ny4xLDY0LjgsNDksNjQuOHoiIHN0eWxlPSJmaWxsOnVybCgjcGF0aDE5NTBfMDAwMDAwNzk0NTA0OTQ5MzI0MDM4NjkyMjAwMDAwMDY2NzA0ODE1NDI5OTc5ODQ2NDVfKTsiIGlkPSJwYXRoMTk1MCIvPiYjeGE7PC9zdmc+;" parent="N_H7r8gi8kSWgMIb8MQw-22" vertex="1">
          <mxGeometry x="30.32" y="112" width="49.36" height="50" as="geometry" />
        </mxCell>
        <mxCell id="N_H7r8gi8kSWgMIb8MQw-6" value="API Client&#xa;for R&#xa;" style="shape=image;verticalLabelPosition=bottom;labelBackgroundColor=default;verticalAlign=top;imageAspect=0;image=data:image/svg+xml,PHN2ZyB2aWV3Qm94PSIwLjkwNjAwMDAxODExOTgxMiAzIDcyMS4wOTM5OTQxNDA2MjUgNTU2LjA2MjAxMTcxODc1IiBoZWlnaHQ9IjU1Ni4wNjIwMTE3MTg3NSIgd2lkdGg9IjcyMS4wOTM5OTQxNDA2MjUiIHByZXNlcnZlQXNwZWN0UmF0aW89InhNaWRZTWlkIiB4bWxuczp4bGluaz0iaHR0cDovL3d3dy53My5vcmcvMTk5OS94bGluayIgeG1sbnM9Imh0dHA6Ly93d3cudzMub3JnLzIwMDAvc3ZnIj4mI3hhOyAgPGRlZnM+JiN4YTsgICAgPGxpbmVhckdyYWRpZW50IHNwcmVhZE1ldGhvZD0icGFkIiBncmFkaWVudFVuaXRzPSJvYmplY3RCb3VuZGluZ0JveCIgeTI9IjEiIHkxPSIwIiB4Mj0iMSIgeDE9IjAiIGlkPSJncmFkaWVudEZpbGwtMSI+JiN4YTsgICAgICA8c3RvcCBzdG9wLW9wYWNpdHk9IjEiIHN0b3AtY29sb3I9InJnYigyMDMsMjA2LDIwOCkiIG9mZnNldD0iMCIvPiYjeGE7ICAgICAgPHN0b3Agc3RvcC1vcGFjaXR5PSIxIiBzdG9wLWNvbG9yPSJyZ2IoMTMyLDEzMSwxMzkpIiBvZmZzZXQ9IjEiLz4mI3hhOyAgICA8L2xpbmVhckdyYWRpZW50PiYjeGE7ICAgIDxsaW5lYXJHcmFkaWVudCBzcHJlYWRNZXRob2Q9InBhZCIgZ3JhZGllbnRVbml0cz0ib2JqZWN0Qm91bmRpbmdCb3giIHkyPSIxIiB5MT0iMCIgeDI9IjEiIHgxPSIwIiBpZD0iZ3JhZGllbnRGaWxsLTIiPiYjeGE7ICAgICAgPHN0b3Agc3RvcC1vcGFjaXR5PSIxIiBzdG9wLWNvbG9yPSJyZ2IoMzksMTA5LDE5NSkiIG9mZnNldD0iMCIvPiYjeGE7ICAgICAgPHN0b3Agc3RvcC1vcGFjaXR5PSIxIiBzdG9wLWNvbG9yPSJyZ2IoMjIsOTIsMTcwKSIgb2Zmc2V0PSIxIi8+JiN4YTsgICAgPC9saW5lYXJHcmFkaWVudD4mI3hhOyAgPC9kZWZzPiYjeGE7ICA8cGF0aCBmaWxsLXJ1bGU9ImV2ZW5vZGQiIGZpbGw9InVybCgjZ3JhZGllbnRGaWxsLTEpIiBkPSJNMzYxLjQ1Myw0ODUuOTM3IEMxNjIuMzI5LDQ4NS45MzcgMC45MDYsMzc3LjgyOCAwLjkwNiwyNDQuNDY5IEMwLjkwNiwxMTEuMTA5IDE2Mi4zMjksMy4wMDAgMzYxLjQ1MywzLjAwMCBDNTYwLjU3OCwzLjAwMCA3MjIuMDAwLDExMS4xMDkgNzIyLjAwMCwyNDQuNDY5IEM3MjIuMDAwLDM3Ny44MjggNTYwLjU3OCw0ODUuOTM3IDM2MS40NTMsNDg1LjkzNyBaTTQxNi42NDEsOTcuNDA2IEMyNjUuMjg5LDk3LjQwNiAxNDIuNTk0LDE3MS4zMTQgMTQyLjU5NCwyNjIuNDg0IEMxNDIuNTk0LDM1My42NTQgMjY1LjI4OSw0MjcuNTYyIDQxNi42NDEsNDI3LjU2MiBDNTY3Ljk5Miw0MjcuNTYyIDY3OS42ODcsMzc3LjAzMyA2NzkuNjg3LDI2Mi40ODQgQzY3OS42ODcsMTQ3Ljk3MSA1NjcuOTkyLDk3LjQwNiA0MTYuNjQxLDk3LjQwNiBaIi8+JiN4YTsgIDxwYXRoIGZpbGwtcnVsZT0iZXZlbm9kZCIgZmlsbD0idXJsKCNncmFkaWVudEZpbGwtMikiIGQ9Ik01NTAuMDAwLDM3Ny4wMDAgQzU1MC4wMDAsMzc3LjAwMCA1NzEuODIyLDM4My41ODUgNTg0LjUwMCwzOTAuMDAwIEM1ODguODk5LDM5Mi4yMjYgNTk2LjUxMCwzOTYuNjY4IDYwMi4wMDAsNDAyLjUwMCBDNjA3LjM3OCw0MDguMjEyIDYxMC4wMDAsNDE0LjAwMCA2MTAuMDAwLDQxNC4wMDAgTDY5Ni4wMDAsNTU5LjAwMCBMNTU3LjAwMCw1NTkuMDYyIEw0OTIuMDAwLDQzNy4wMDAgQzQ5Mi4wMDAsNDM3LjAwMCA0NzguNjkwLDQxNC4xMzEgNDcwLjUwMCw0MDcuNTAwIEM0NjMuNjY4LDQwMS45NjkgNDYwLjc1NSw0MDAuMDAwIDQ1NC4wMDAsNDAwLjAwMCBDNDQ5LjI5OCw0MDAuMDAwIDQyMC45NzQsNDAwLjAwMCA0MjAuOTc0LDQwMC4wMDAgTDQyMS4wMDAsNTU4Ljk3NCBMMjk4LjAwMCw1NTkuMDI2IEwyOTguMDAwLDE1Mi45MzggTDU0NS4wMDAsMTUyLjkzOCBDNTQ1LjAwMCwxNTIuOTM4IDY1Ny41MDAsMTU0Ljk2NyA2NTcuNTAwLDI2Mi4wMDAgQzY1Ny41MDAsMzY5LjAzMyA1NTAuMDAwLDM3Ny4wMDAgNTUwLjAwMCwzNzcuMDAwIFpNNDk2LjUwMCwyNDEuMDI0IEw0MjIuMDM3LDI0MC45NzYgTDQyMi4wMDAsMzEwLjAyNiBMNDk2LjUwMCwzMTAuMDAyIEM0OTYuNTAwLDMxMC4wMDIgNTMxLjAwMCwzMDkuODk1IDUzMS4wMDAsMjc0Ljg3NyBDNTMxLjAwMCwyMzkuMTU1IDQ5Ni41MDAsMjQxLjAyNCA0OTYuNTAwLDI0MS4wMjQgWiIvPiYjeGE7PC9zdmc+;aspect=fixed;" parent="N_H7r8gi8kSWgMIb8MQw-22" vertex="1">
          <mxGeometry x="30" y="215.00000000000006" width="50" height="38.56" as="geometry" />
        </mxCell>
        <mxCell id="N_H7r8gi8kSWgMIb8MQw-28" value="" style="edgeStyle=orthogonalEdgeStyle;rounded=0;orthogonalLoop=1;jettySize=auto;html=1;entryX=0;entryY=0.5;entryDx=0;entryDy=0;" parent="1" source="N_H7r8gi8kSWgMIb8MQw-1" target="N_H7r8gi8kSWgMIb8MQw-27" edge="1">
          <mxGeometry relative="1" as="geometry">
            <mxPoint x="267.5" y="724" as="sourcePoint" />
            <mxPoint x="436.5" y="584" as="targetPoint" />
            <Array as="points">
              <mxPoint x="330" y="730" />
              <mxPoint x="330" y="504" />
            </Array>
          </mxGeometry>
        </mxCell>
        <mxCell id="N_H7r8gi8kSWgMIb8MQw-29" value="generate" style="edgeLabel;html=1;align=center;verticalAlign=middle;resizable=0;points=[];" parent="N_H7r8gi8kSWgMIb8MQw-28" vertex="1" connectable="0">
          <mxGeometry x="-0.1071" y="-2" relative="1" as="geometry">
            <mxPoint y="44" as="offset" />
          </mxGeometry>
        </mxCell>
        <mxCell id="N_H7r8gi8kSWgMIb8MQw-32" style="edgeStyle=orthogonalEdgeStyle;rounded=0;orthogonalLoop=1;jettySize=auto;html=1;" parent="1" source="N_H7r8gi8kSWgMIb8MQw-27" target="N_H7r8gi8kSWgMIb8MQw-17" edge="1">
          <mxGeometry relative="1" as="geometry">
            <Array as="points">
              <mxPoint x="647.5" y="504" />
              <mxPoint x="647.5" y="730" />
            </Array>
          </mxGeometry>
        </mxCell>
        <mxCell id="N_H7r8gi8kSWgMIb8MQw-27" value="API Docs" style="shape=image;verticalLabelPosition=bottom;labelBackgroundColor=default;verticalAlign=top;aspect=fixed;imageAspect=0;image=data:image/png,iVBORw0KGgoAAAANSUhEUgAAAZAAAAGQCAYAAACAvzbMAAABbGlDQ1BzUkdCIGJ1aWx0LWluAAAoz6XQPWtTARjF8d9NFEUjHczgkOEOxUFSkLp01DoUJJQSKzTVJbnNG9y8cO8NpTg6uGboouJiFb+BbuIXEAqCOrno7KAggpQ43EJcOohn+nMOh+fhUJjG0SA9dZXBMEvqa6vhVmM79JeaUTq+sbFRc6J+fhDA+6U4GqT+Ted32mlEcBYr0TjJCK5jfTcbZwRTlKNec4fgOarJVmOb4BDlVs5fUe7m/AvlZLN+k0IJYTfnKsJWzjWEUS8ZUIixOIgn0fE/AUrt4Z3bqKAiVbdmVahloi+WWdI35ITeMirWjYQiI2N7En1dPZmq0ESqLdSRaGuL7cF8+/mmaefacn6hdIvTX2azH1c484Sjh7PZ72ez2dEBxU+83Z/3R/usfKM4nXuLT1l4wKs3c6/1gtdTLn0eN5MmKKLQ6fD9JRcaXDzk3N3/zfO9j3MHH9m8T+0djx5zucPCvT/0jHNrnWIbAgAAAAlwSFlzAAALEwAACxMBAJqcGAAACSxpVFh0WE1MOmNvbS5hZG9iZS54bXAAAAAAADw/eHBhY2tldCBiZWdpbj0i77u/IiBpZD0iVzVNME1wQ2VoaUh6cmVTek5UY3prYzlkIj8+IDx4OnhtcG1ldGEgeG1sbnM6eD0iYWRvYmU6bnM6bWV0YS8iIHg6eG1wdGs9IkFkb2JlIFhNUCBDb3JlIDkuMS1jMDAyIDc5LmYzNTRlZmMsIDIwMjMvMTEvMDktMTI6NDA6MjcgICAgICAgICI+IDxyZGY6UkRGIHhtbG5zOnJkZj0iaHR0cDovL3d3dy53My5vcmcvMTk5OS8wMi8yMi1yZGYtc3ludGF4LW5zIyI+IDxyZGY6RGVzY3JpcHRpb24gcmRmOmFib3V0PSIiIHhtbG5zOnhtcE1NPSJodHRwOi8vbnMuYWRvYmUuY29tL3hhcC8xLjAvbW0vIiB4bWxuczpzdEV2dD0iaHR0cDovL25zLmFkb2JlLmNvbS94YXAvMS4wL3NUeXBlL1Jlc291cmNlRXZlbnQjIiB4bWxuczpzdFJlZj0iaHR0cDovL25zLmFkb2JlLmNvbS94YXAvMS4wL3NUeXBlL1Jlc291cmNlUmVmIyIgeG1sbnM6ZGM9Imh0dHA6Ly9wdXJsLm9yZy9kYy9lbGVtZW50cy8xLjEvIiB4bWxuczpwaG90b3Nob3A9Imh0dHA6Ly9ucy5hZG9iZS5jb20vcGhvdG9zaG9wLzEuMC8iIHhtbG5zOnRpZmY9Imh0dHA6Ly9ucy5hZG9iZS5jb20vdGlmZi8xLjAvIiB4bWxuczpleGlmPSJodHRwOi8vbnMuYWRvYmUuY29tL2V4aWYvMS4wLyIgeG1sbnM6eG1wPSJodHRwOi8vbnMuYWRvYmUuY29tL3hhcC8xLjAvIiB4bXBNTTpEb2N1bWVudElEPSJhZG9iZTpkb2NpZDpwaG90b3Nob3A6ZjllNDU4MWItMmU5MS05MzQyLWJiOWMtNjkwMWI1ZWE0MDhjIiB4bXBNTTpJbnN0YW5jZUlEPSJ4bXAuaWlkOmMyNzRiODQxLTA0NjQtZWE0ZC1hYTM4LWYyMWRjN2VmMGNkMSIgeG1wTU06T3JpZ2luYWxEb2N1bWVudElEPSI4MEFFQzkyMTdCQkE1REQ4MzNCMTFBREJFRjk5NThGNSIgZGM6Zm9ybWF0PSJpbWFnZS9wbmciIHBob3Rvc2hvcDpDb2xvck1vZGU9IjMiIHRpZmY6SW1hZ2VXaWR0aD0iNDAwIiB0aWZmOkltYWdlTGVuZ3RoPSI0MDAiIHRpZmY6UGhvdG9tZXRyaWNJbnRlcnByZXRhdGlvbj0iMiIgdGlmZjpTYW1wbGVzUGVyUGl4ZWw9IjMiIHRpZmY6WFJlc29sdXRpb249IjEvMSIgdGlmZjpZUmVzb2x1dGlvbj0iMS8xIiB0aWZmOlJlc29sdXRpb25Vbml0PSIxIiBleGlmOkV4aWZWZXJzaW9uPSIwMjMxIiBleGlmOkNvbG9yU3BhY2U9IjEiIGV4aWY6UGl4ZWxYRGltZW5zaW9uPSI0MDAiIGV4aWY6UGl4ZWxZRGltZW5zaW9uPSI0MDAiIHhtcDpDcmVhdGVEYXRlPSIyMDI0LTA0LTE4VDE5OjAyOjQ0LTA3OjAwIiB4bXA6TW9kaWZ5RGF0ZT0iMjAyNC0wNC0xOFQxOTowMzo1MS0wNzowMCIgeG1wOk1ldGFkYXRhRGF0ZT0iMjAyNC0wNC0xOFQxOTowMzo1MS0wNzowMCI+IDx4bXBNTTpIaXN0b3J5PiA8cmRmOlNlcT4gPHJkZjpsaSBzdEV2dDphY3Rpb249InNhdmVkIiBzdEV2dDppbnN0YW5jZUlEPSJ4bXAuaWlkOmZjYWMxYzg5LWM4YmYtYmY0YS1hZDYwLWJkNTNkMGUwN2MzYyIgc3RFdnQ6d2hlbj0iMjAyNC0wNC0xOFQxOTowMzo1MS0wNzowMCIgc3RFdnQ6c29mdHdhcmVBZ2VudD0iQWRvYmUgUGhvdG9zaG9wIDI1LjQgKFdpbmRvd3MpIiBzdEV2dDpjaGFuZ2VkPSIvIi8+IDxyZGY6bGkgc3RFdnQ6YWN0aW9uPSJjb252ZXJ0ZWQiIHN0RXZ0OnBhcmFtZXRlcnM9ImZyb20gaW1hZ2UvanBlZyB0byBpbWFnZS9wbmciLz4gPHJkZjpsaSBzdEV2dDphY3Rpb249ImRlcml2ZWQiIHN0RXZ0OnBhcmFtZXRlcnM9ImNvbnZlcnRlZCBmcm9tIGltYWdlL2pwZWcgdG8gaW1hZ2UvcG5nIi8+IDxyZGY6bGkgc3RFdnQ6YWN0aW9uPSJzYXZlZCIgc3RFdnQ6aW5zdGFuY2VJRD0ieG1wLmlpZDpjMjc0Yjg0MS0wNDY0LWVhNGQtYWEzOC1mMjFkYzdlZjBjZDEiIHN0RXZ0OndoZW49IjIwMjQtMDQtMThUMTk6MDM6NTEtMDc6MDAiIHN0RXZ0OnNvZnR3YXJlQWdlbnQ9IkFkb2JlIFBob3Rvc2hvcCAyNS40IChXaW5kb3dzKSIgc3RFdnQ6Y2hhbmdlZD0iLyIvPiA8L3JkZjpTZXE+IDwveG1wTU06SGlzdG9yeT4gPHhtcE1NOkRlcml2ZWRGcm9tIHN0UmVmOmluc3RhbmNlSUQ9InhtcC5paWQ6ZmNhYzFjODktYzhiZi1iZjRhLWFkNjAtYmQ1M2QwZTA3YzNjIiBzdFJlZjpkb2N1bWVudElEPSI4MEFFQzkyMTdCQkE1REQ4MzNCMTFBREJFRjk5NThGNSIgc3RSZWY6b3JpZ2luYWxEb2N1bWVudElEPSI4MEFFQzkyMTdCQkE1REQ4MzNCMTFBREJFRjk5NThGNSIvPiA8dGlmZjpCaXRzUGVyU2FtcGxlPiA8cmRmOlNlcT4gPHJkZjpsaT44PC9yZGY6bGk+IDxyZGY6bGk+ODwvcmRmOmxpPiA8cmRmOmxpPjg8L3JkZjpsaT4gPC9yZGY6U2VxPiA8L3RpZmY6Qml0c1BlclNhbXBsZT4gPC9yZGY6RGVzY3JpcHRpb24+IDwvcmRmOlJERj4gPC94OnhtcG1ldGE+IDw/eHBhY2tldCBlbmQ9InIiPz7o0Vn9AAEeu0lEQVR42uz9d5Rl133fiX52OOGmip270QAamWgQJECCAAkSJGUwiJRI8ZnzZNOWJUtykoeyNbafPJolS7Pssd7zWG95Rjbn0aLCSJYMRogJABEIECBA5NDoBjvnWF25bjjn7PD+2OfeqmoABIgG1WjU+fY663bdqrp17z7n7F/+foX3ngoVzjfs8cSdnOxEAVkPFjrQaUO7C51OzkInI8ssM/MdnJPkForC0zMWU3iMK3BWMmcLnHNYa7HW0r8fhBAIIQDw3i97XimFUgopJamEWCpkJKnpmDhR1CKJjgSx9NTSiHqiqNcTWvWYeh1aNag1oR7DqgYkEiLQW8BWZ7bC+QRdLUGFNzq2HTu1ZrrdXj89375gbmF+zfT83Pq5ubk1C72C4/lGsp6l0+vS7eS0uxmdTk67m5PnDosC9ODRIMArvHDgNa6W4L3HOYdzbvA3X86AAEgpkVIihMBnXZQHJxzKAcKisSAsyhsEllosqdcTmrWIWi2hVUtIG3VqkWSsdoJmLabVavzmaGv4xOhQ/ehYa/joWKt1dOuqkanq7Fd4I0NUEUiFc4ldUOvAyLxhzfwc4zOzZv3p6c5FE1PtLbPzbs3kTPeCTk+NzLXzC2fmc+YXcjpty0I3xxhDFE3jnMO7crNXCgDjHc5KRKzBa7wIRsFT/pwMPyd7nZe+MUrj0cfL3Sc2rZc/YEtD41AevLflY0EkJEL48utgpIT0aCS2M0ItiknqMa26otWKGR1KGGnpR5o1OVVP7OzYSHp0w/qRnevX1PaMjHCiWWMqkSxcDt3qCqpQGZAKKw57j5yK2+32yD0np35tZiH/7cmpKWamu8wv9JiZz5ma7TG34ClchPV1jNcULsL5CEGKl1EZCZwOm7sPEQFaI4TACfBOYYQPkQbhOnfl5W5LQ1LHvSjieCUsjUjaXpS/78vXAI0YGAwhbPnoEdbhXJkmEw7lBSJfhfJgfIFwXSBDi5xY5cTKEKuMVkMxOpIwOpQwNKRZNdpi1aqx/2W01Tjx3o1jf3bphevz6oqqUBmQCm9KPNNh/dHTbD14Ir/22KnJq46dnLnq9NTERdMds/7IqSF6vR6dXhtrLTIKtYXcFxhjEHGZKlLhOrXClRFE2PBFtmqwoXvvQ2oq7PLh0AKEAOHCI36ZoYiy7EURR/+eWFr3eLmfyeNoadgCfYNSGjSXGRACQXi/sny+f7jadPh510+jgbThtaUHgSISEpD43OCcJ5GaRqtJs1Zn/djk1HAaT4ytGjt6werxHRvXr9px0Tr9zOa1bLtSs1BdfRUqA1LhvMPjuyYvOTXb2fLkjr2fOD2fXXj09OzHj03OM9vukVsN0lPIlJ7bgjEG44qwaUYKIQQFBmstRP3UVLhOC29CyopgIIRZu2xDFmp5NJHlZZZniQFZinRJ3ePHMSB99OQZz3lRGi8ZXj9thNdxwcAJJ5ZFMIU8EQyM6BsWhXKUxgZM4Uh1hFIR0nqMsVBYvAAtJLHfRYIjSiJGawnDrZTVrZS1I/XbxhrR0Xe+9Yqvb1ozvOOaC1oT1VVZoTIgFd546aiC+Mhxtu4/OHn93qMnbjx4YuptR07NbT01141PzeUYlZKpOkamFGi81WGTdY4h169B+GUbuC0NhRwYBI+UEi/9suJ2ViTLU0uEFJEsXy5J4vLV+x1WbtkG7kSd13oPhPe1vAwhKGsrpQEpCrPM+EiplxkipzvlexdnpMiCoUl0inMOY0KnGIBSilhptNbMUQPnAAvCo8mJbI9UZNSUZf1Iymhdn9g03tp5yaa1j1225YLHLtlYf2xsjKNbdNX1VaEyIBXOAfad7qqTM/nl9z/89K9Oz+XrT0yc+PmTE3NMdTI6VtFzMR2n8MkwuYjpipTMR3g0yBpoDUpRnzlRdjQtbp79SEJKiXVFuaHaMnW13NAYV18WgVCmsFSZMiqKfBCBhI3bLdvQLbVlr/dy0cbSqGTp96TsLf+Z0nCIsqivdbTEKHiEUMsNmO4MDMaiURJAeB1s//kQmUkpw8+b0HacN1eDMeAN4AYGJPZdUmnQxTyR69GQhqFEMtSIWTtcZ9OmTZ/fvG5s27uuX/Plt2264ER1RVeoDEiFn5zBAHV4gWu37edDj28//XN7jxy9YboDB060X3KOQvaLys6fccEtTxkZvdSDL7vKvUZ4AV6HjdSr4NF7tfznABEdCu2z/Q138Hf6m7wsIwKWfS3Kr3v67DrZE2uWfe3EmSkxtyzCWgw0SkOXbV5MsfWfF7Z8HVs+b/DCgzCLr1f+vPPpckPX7zITyyMlJ+SgTVkpRRTHRFHExmaDtY1k6rJL1j1281tbf7H1Eu57e8zR6oqvUBmQCq8LvvbI/k88tuPAp184NvuZEwuWibZiPi/o2IRCjQzmKJZ61pUBeWMZEC/VslkXWQ5DNkxBE0Oj5lhby1g37J+8cmPjoRu2XvC1n77h6geqq79CZUAq/Fh4tMfljz3Ppx99fu+nDxyfuvbEVMbJ2Tl6hcQAWAnegZOQ1kI9A1fukR6FAGHQXuAxoSiMQXnKTXBxQ59Va5dtsJKwYYYd3tBPNPU3UnnGhlzIvqHhJQyGCi8z+L5aYkj6P945q7Vyvn7GM31DURoWYZcbkqWGAtB+SRmibyC9xou+wQyPTiz5HP3ngZY7vsxgWCFD27IAKxTWObyKEUrincR6V9ZMJAiBZBJhPV5ItI8QKIbilNVjw2wYa524aP34thu2jn3tHVv5+tvTKjKpUBmQCi+Dbz0zeesjz7zw88/tPfrRYzPZ+plCcXKmi1VDkNYQukFmLbYAtCKOauRZv8bggdDl1DcU/cnsyoCcOwNirB0YEIHGUkaJYbKSRrKA6eVYD6mqoVWMKiwm6yDzNhesGWE4ylg/qp7cesmaB9719ku+/KGt449Ud0uFyoCsYOwHNQPrnz/Ah57fbW599rnnP7LnyMmRqYWcBSMonASfEDdaGGNwJkdbg/IFsTNo4ZDKU/hiUPQVQmAFwdOlHOBTYYN3kmUbYX/DS1z75bbmV/U5uqpxRorqTCxPWS259INJ8dlZraMRCS/zB17V5xBy/qW/4eWy93/m51l8+Xr5+f3AQEkX/q7C4iipVQgT8v05GFm+X+9ivFMUwuJVhJESJwVehyaGIushMNSkp6klY62ESzdt3PO2t15197WXcOdbLuCBt8BsdUdVBqTCCsHjs+aS53dsv/WpXfs+9+QOz7HJLjOz89iojkyHyGVCIWO0apC1u4MNMhYQS0fsDN5kWJcj4+UbXWVA3lgGBOmRrlhCreKWGRBnI5RMcDpELDmQu8DlhRCoOAKbEbmCFIfPF4isYXR4iM1jo1xzae+266+89Otve/vld25Nqbi7KgNS4c2Kew5y0/eeOv5Ljzy79+f3HZ1szecFecnhJKREqQTjHEURNr1I13B4pIhDJ49zWBuK5X022rYu21NfYQN/+e+WKRy/vG3WCblsI/WDr8Wy79dNsfz1+kX6V0gd9R9z0TqrNdXML/+cvp9CW/q5F1NTZyKX8iXM2uL7GxjGM4rz/fUu5I9uAvDSv4gMcilizaCDDkBLhdYaRGiMsKaHL3ogCSzDCpzPy2vGkeSGNcMtLtm8Zuc7rrr46ze+ddOX/8ZmHqvutsqAVHiT4I5HDnzwOw898dntB05/8MSCb83kMT2f4OMk1MO9x3mPcxKhFFKG2QVrRNivy43Pe4+UanEWwXs6ES8yIEtnKbwXlQE5hwbEluv7cnQswheLzMLlxHz/D3jvUdIRSx+6wEyGszkIU87cWGrGUVcC7bukts0F4+mhm99+1W0/ddPWz994xdo91d1XGZAK5xn2QrxvhhueO8BH/uKr3/2tibmC6fkOpvBEsr+ZhQ0pE/VqwSq8ZqQiC/M/5XXlvUVpGBuqs24ssb/087f8s6s28tAtdZ6pVqsyIBXe4Hj2tF//rQef+pffefj5f77rxDw+GWWh0OROoGRMJFXZhRNy4b0lk9gVKvy4qMkcay1OBI0Uawusy0mUZyi1xLbD5etqRz9009Wf+8h7tv7BW4Z1VXCvDEiFNxoePMa1X/vW07/9vSe3fWqmK+jJGrM9gRExTqQIHaFUaTwKi/A2sN4qUy1ehdeM2NcwxmAFoXYiBcYYvCvQIkfZLsORIaHDxtHawoduedfnf+7DW/7d1npVcK8MSIVzjkcP+Mtv/87Dv/3Ag9/7zGxX4OsjLBQRbR8ja2PkXmNJ8GXk4ZxDGIcqyQkzWVSLWOE1I6FOURQYQmOFUGXXGxYtckTRJirmaMWGpszJ5ycYS33+oQ/d+vm/87Pv/leXjVaiWJUBqfDXjr/YyWfueejgr931yHM3GRRFUZAZH4bGooTCeYqeRaUJeIUo6cT7FCN9FnJHVi1mhdcMLZqhW6usqRlESRoZHBQtwRUZJm8jXE4t1QzV06ArX2T8rQ+/7Qu3Xn/B5z54MU9Wq1kZkAo/YTx88NRVX/3OU7/7wJP7P31iJqIXj1L4sitKRhReYpCoOCGJGyx0OyWXVPh9JcOAmHehdVNUKawKZwFvktDFVUYehafk2wo1tkgJFI5IObSwFHkHU8oIN7VkjJNcMqr233zT1r/4mVuu//2rNzaq1FZlQCq83rh7kpu/dO/Jf3vXQ4/dcnyyh4giUDG5SqEoQHhkFCEEuLzA2wKJQOtQ3EQEIj3hgwEJGhMGVXVhVTgLFC4bzAS9lOCWihJ6vR7OGoTWIBXeORChZVzMz9GKIE4k61fFfPDd1972c+9b/+/eN8y2anUrA1LhLLHjeDHyze8////6xoPP/ubuyYJM18lpBFJDFZN7HXTAcXhrAY+WKniA1mFtgVIKRDAYwkMULRbUbaGrRa7w2qFKVuClTL/lbIv3HutARxFCydCt5UFIGQyJ96R5hjZdEIZYzFOXXa5eN3T0Z97/9t//tY++9ferBa4MSIXXgLtOcMsjP7Q//2ff+t4/mliImO8GCVctJbGzRHYe7z0LaV+Rzw7ICqVbMqB3Bqwo+/VLZ1HYpFrsCq8ZVoXrTHpXpklLI3IGhYtDLqO0seX8ZMMG5clcxTgZYXEgA+fWBUOKX/nUu/6nay/g7veOVhFJZUAqvCL2TMzFP9g58fPfeXTXrz/w3NHrurU1zOYNchsFbiIgsobEtxFCMBdHlQGpcN4akKazOOfIZAQ6ofAWjEGIglVRzrCd5dbrL/v6x266+j997O0j91UrXhmQCmdgN7Y201MbfniEW+58cOaz331q57UnZ9oopXAsIMlQokAj8DbF2zrej4bvi9PLXuvMG7dPrWFL6o8+BUhfeAhRdWFVeO3wvhxE7ZM4itKROZOK5Qz0STXzKKS2JBmJlgjpKYqCwnkEQfddIdg83uCD77js6x++cdXnLlvLI29JKwbgyoBUAODBU0evfeCRk898+3u72HHQ4lrrEGmLudlZVJyjZYGWQU/DmQRnang/Grqp5GRlQCqc9wZE+B6RBKVDG7Ar9VCKoqBZq0N7kjSf4J2Xr+Jn33/dP7npreu/fM2adKI6A5UBWZHYa4gPnOb67x/mM9+6d+evPb3tOVQao5OETqcDBpppDVWEm9B7j3eKTAkKpSnKtsl6bkqDsNxA9HNUfRLCl2PL9bKa46pwNhbkR6dARV8orJwTEWc4OJ1kBJxD2nlinxH7eYTrzyrF5KR0coPUMY1GA4o5vGlz3dvfOvWzH7ni9997AX/2jiaHqhNRGZAVgx2zjDz/wxO3Prbj1Bf/7/v3kEuNk4KeLSicI01TYhljehmRlciyt947RREpXJyQKQnWUi9sZUAqnL8GRDVBSiI6xD5D21lEyQgsiMh8Qtocwjhot9so1yaNHEmsaCU9/va7r/vcTVdvvO2n39aq9NsrA/Lmx92HufnBZ47+wkOP7vjVbXtP0qsN46wklgppFSY34DVWR3S8wScqTP8JBz7Ix2oBkXMlC6pYlhKwZZFyESW9+ECb3JdSsyFysUTVSanw2jeQMgXqz7j+rHjRTjO47pQHX6a8lHFB+VDXsEJjSikBPEQWfN6hJjyYHE9BlARnKyO0Cyezx3jvWy/Z+VMffOcX3n1187Z3jFTRSGVA3oTYPzWvnth58lPfefj5zz707IGbpxcEqrWeWZlS5J5ISCJinHEIInyc0BOOXDqIdLAaLgNjUHh0KQIktKoMSIXz1oDUpA66Ml5TOAEyAinBgzAe5XLqEqQzQYdEQWYNGWGeaZWbR86fYHRE8YHrLrntQ+/b+rmPXnNhFY1UBuTNg+/u54a7Hj3x2e88suszO0/O0EsbuFoKxhAXVRG7QoXXijwJDpAocoac4aqNq/IPvePyz/+NG0Y//96N1exIZUDOc3z1gf2f+PaDO/7F9547eHNbrsYPr2HSQm4KUIrYVmy4FSq8ZgNSS8BalLM0TU6az7OpbnjvtZtue/+1F/3JJ9530Z3VKlUG5LzD7Uf4+Lcf2vMvHnli1y3HJwvmO5YoigBHr9cjiWFoaIipnqoWq0KF14ianCPLMpRqkCQJ3W6XrN1hbKzOpResyt/7ziv/4qfeueYLH17DQ9VqVQbkDY9dC9Qe2X7473zn4ed/7Qc7Dl07vSDR9XV4WaPX62FtQRRFaGUxxtCTrWrRKlR4jYhcn7w3DUOHSqE8GLOALOZY3YKb37rl7g+995rPffqaVV+rVqwyIG9YfO8k137j+0d/6+5Hdn96z0SHtkghisE58AZw1HHEzqCLHtZa2slwtXAVKrxGNPI54jimJzWzWQEqgrQZHosC8i5DseOqC4btR9/1lj/48I0jf3DjCHuqlXt9UFGxvk646/mTt3z9vud+67vP7r/1dK+JTMbA2NDtJASoIOpU5AXe5CjhSdOUdmW/K1R4zQg67BbrBVprjJCQ56B86OZSCiE8+/btU187tvPX549cPGbe9/bfu/ny4R3V6lURyDnFHvL4WB5fddd9s7/x4IOP/sKhk/O0ewkdp3AqxkQSpyxCOqzJwRjQTepRA2s0ebtLlPSqhaxQ4TXCMYoxBlQXnWpkZDDG4IoCrCSNm4heAUWXZuQYazku3jBy6Ob3vuu2W9+Xfm4cjl4CebWSlQH5a8fTC5ObvnD7rsNPP3+KAweOkVEHNYbRNayMKLQgMx3AgBKB/NBG+BwEKYnUuIoTrkKF1wzrR5BSYmQH73KQWYj4pUQ5hc2hhiLCELkuFKepq4zLLr+Id12/kb/9kavGt0ZxpYJYGZC/zsiD+IFn+dWv3vPIb9+749AaXB2QKJuA1yWteg7C4mUXK8Kgn5NgfRPnG+AbAMT+VLWgFSq8RuRifbmTzSHJEHIe5UB5j/IgXAJe4ctsvZMZCIMXFmSbn73pyic/+cHrf++dW/h6FYn8+KhqID8mts8w/u0Hd/yL7z7+wm/uPD4HVJKwFSqcr3j88cevt9MHvjR387X/RFx36ee3JC8jpFOhikDOFt87zrW337/3t+986MCn9k2kWAGqXka/Pl7m6SD6pHEGhB18LZwEFHJAs+6qha1Q4TVvYOF+8yU1D6K//8tFSh+v++IFSAxgQ4YA6C4ImkmNt1wMH3vPpb//4Zsv/Ny7WlWXVhWBvM54YPee675y5/O/e/fjRz4+la+h0bicbpFTbf8VKpy/GBoaQnvBvn0/5PaJ538jm9rSjP/GNf/r29dedLRanSoCOWs8m7P+oSem/t6dDz/72Wd2TayfXpAQr8KJOt1ul1pSABYrgynpS3V6FHgNXpUCOx7pCeqCGASBwiQTVQqsQoXXiphOuO+IApmjiJZJ5pasjAwkn70ItREf/GcnwgCiKaaRZoo1Q563X7lxx09/4G3/6VeuHf58tcJVBPKasadHfPe9j//a/T/Y9VtP7z1BplaRJGO0C0PhspKapOKyqlDhfIW1lqIoiDTUajXa7QmefPLJt9A99ut26pr4Qzdv/dzFUVUXqSKQHxP37c1veOSFqc986Z7nPntgJmHWKFQUYf08+Dlq0QJxHDPbvSj8guygyJCiHSKNstaBS4Pojo/KCKUIXSAqCDkJm1SLXaHCazUAOtxH0qVImwzqHpJyiFe2y/su7HPW18EneBcohGrqYKCTty2UaKFVHeccw6rLxsYCf+8T7/hfbrpq9LYbN1R1kZeCrJbgxdh+bHL8oYce+oXbbrvtsxMTE2RZhtQaXR5Ch8Ct263U/CpUOJ9RFAVxHJMkCdYYsm4XYwx5njM3N8cXv/jFf/uDHzz2N/dMt+NqtaoI5BXx3/fx81/4+rbPf/+ZXa1INSn6zR1ludyjsEJjRfB0lK/0PCpUOF+R62AXlMtQHlQpvev6vrXLGWnW+OANVz32tz608X/5mQ3cXa3aIqoayBJ86alTn/7vdz72H3Ye7rXStMbs9AJJ2qwWpkKFlephi9AA/Oijj94gpoZ/t/mJm6c+cEnyZLUyAep3fud3Vvwi7CmIb3/i9K/+xR2P/f5ju06tmzF1Ml/DIJBKIREo70MvuQjdVF4KBH4QmVSoUOH8gxcWgUV7F+5xDwJwQgMSryI6uWdmfp6JyakLZua71/jW2om3rNE7q9WrIhAAfvCD/T//V3fc97kX9k8TN9ahvabby6jV69h+DqtChQorDs45nHO0mk0wGY899thNfu7wb8rOe+3PvfOCb634CG2l10D+zZ2Tn//W95771b2HDuKjEWZJIJeQpCilkCZHekPkQ7uuK+2uRZUeTBWBVKhwHu+AKAcIU85rBRQiwglN4RVxmlJkHbAdWqpH7DtccclF3U/+1PW/9y/eXf9fqwhkheI/f+2x3/zGPTt+9WQnRgiBdQ6hBF5r8B5rbdWmVqHCCoaKIvI8h6JAKoEQgiIv2LdvX+2vFo78y83msm3/w/vesWKVDlekAdk2z5r/fv/Uf/jLe6Z+4ehkjfroBrq9nCwzpI0xvPdk7Xm0jhDeIb2HkrsKAVYInJClA1NFIBUqnLfwiyxZ+MVuy8CoHSjsbJ5DUkdqzWxvDhHVySPFo0dmmjNf73x1byf/vU9/IP43lyYrj813RTrY3/zmk795++23/8L8/DzDw8PMzc3hnCNtNul1OmTtNjKu2r4rVFjpyHs9klYLvMd0OkS1Gkopup0O9XqdI0eO8I1vfOM377//hV9cieuzImogC6f2qeaaLXZnTuv/vG33F7/4vZ0fOe1GAEhNUATs930PHBJCTlSULAZeAF4FXQ+xWAPR1RxIhQrnMXSZWDAoB5KwH7pyH+jf5+5MV7tk/S3yEJlctmaWv3XL1v/0dz+y6X/aolYO9cmKiECaa7ZYgL/4iwf+4+OPP/4Ray3eObyr0k8VKlQ4iw1Ua7z3nDhxgvvuu+/X77jj0V9feeb3TY5tHdb84R3HvvDH31/4+Hy2Bpmm0OsSSwW4MIE6cBqWt+1aQcnyGextiEQkQlQ3T4UKbxZ4JEYy2A8gKBpKETIMi77m8kyFYwq0ZNZexveO9th1t/2Px2Xn0s98oP6vr6q9+fWqV0QE8pWvPPi7d91118ezLAOtcc4RVzWOChUqvE6IazVkq8WJEyf45je/+Y/vu++JX14Jn/tNXQN5dp71f/LtQ5+7/fu7PnFgBnSjgWm3AcmaJKPdbmOiEeDFEUjfw7AiaHp4sWhrpQNZdmtUioIVKpy/UL5f8xDlY/8+dwQC31JHpM+FV36/XzNVYhbnHD2xGZ2mOGdxc/NcvcXxmQ+89ff+9a1r/nUVgZyH2DdRqLvuevaz99xzzyemp6dBKYwxEEUgBFmWDXhuKlSoUOG1wBgTdIGMwbTb4f+1GocPH+aOO+74p3/03efe1JHIm7IG8sN5Wn/2yPQf/Ol3T/7C0eIS0AJsTuQMw7rAiIzCBEGorojKuEOivEGUS9LvurBE9AWVlQfpHApL5EKk0lVRdRdVqHC+boA+L+/zwLC92I0psSLc+t6BWFr78IGROzwxghSSRnySoiiw2RCRSpmzl/DgpGie/kb7Dyfd3OZ/+VND/6aKQM4T3HvvU792xx13/ML8/DxICUKgkgQhBAsLC1hrSdOUisq+QoUKZ4N6vU6v1wtzZGkaFA7zHKkUQggmJia4++67/8EXH9r+c2/Gz/+mqoHsNLS+ev/U7/637zz9z/ccnyWOhjC2/0HdwINYquehfe+lLetgWcrc6MDWLu/CsPJcky2erQ/gzvHfP99xduun7ZnzR+7MO3TZ8/6MrKtwqtrFzyFyGZpxIp+Xe8bymooUjqI3yzuv2mh/+Wdv+h9/9Vr1uSoCeYPikUcO/vxdd931z48ePUqSJIHDpkKFChXOEbIsY2xsjH379qmvfOUrv/XtHdO3VBHIGxB/+sT0r/75Xz3wH589MN2a9UNYNYxSClxg21SUbLqlB1fIUjvZv9zQ6HJXz58ZgZSPmnZ1l1R47fHLmX0cXr6Mjyde8ucqNuhzCyvLfcDZZZGikdHg/AghcO1JVqs277/+4ic/89M3/+ufvSJ+UygbvimK6N987tStd91132d37z7cihsbaEZNZjoeIQSeqs5RoUKFc4MkSehOTtJo1qkrzxNPPHH9iJ/9jVXphw+9+8L6eS9Kdd5HIF87ySf+r//21J888cy2kUI2mDcxMh4irbfozM4SKRn0PMiW+AcsdlEMnlnu6fVXZXH+Qy7z/NwbpgP4XNcwVroHfHbrp8T8stcZlDy8BNSLIg7pl1+PVlZp2nOJfk1Kn5HJMCLCCo0TCqEU3nRRrkdiFxjRlve9712P/cNPX/IP39/kmZV79Z9j7Dk5Hd9++6P/8wsvvDCS53mYLtcaZwxFUYCuBBcrVKhwDmEMaZpCUWDznGazSafT4ZFHHrnhW9/a+Rvn+8c7b3fY7x9h612PLnz2K98/eIPTqygSR8/G1JtDZFlG0W2TpjVc3kGeQY5p5WIEod1yP/rMyMOdaWPLnPMgXjnnAZxb4X//PPdgqZ3xdf/CWn7diUHkXK37Gwn9yXVLX9mw3B+8Axxea7oL86BTdK3FnDOYdCPtzPBn9+z5u5taozt+6vo1n9+6lqkqAvlrws4FWs88s+3jX//6139Va421Fu89pijoLCyE1ECS0Ov1qiu8QoUK5wxKKTAGqUI6stftIqUMtZFul29961v/ftu2nbdWEchfE3ZB7a8en/ifP/9XU7856S8jtx4FCBlmyD0WCgs4YgGizE3aJRFFmCUvuydKrfO+ixdymnrg3wkhcM4hvEUIgcSHAcRSS7k/yXrOcLZdOF6e279/3ocQZ7d+WbQ2vIy35WBruZ6l3oTWEucc1ud47/HCDyh4vPdErhJdPpew/S1UhKOvqy7xSF/gcoOS4E2owcYyKB/mhUfpGg/MKqYf6P13s87Ef3er/rPKgPyEsW3bgY/ee+8PfrPbHQm3mvrJVrOllOHGdeHGlVIGo+ItOBc8jHNqQM7y85+1AVnhfGJnuX7G9AdRQ7unEMFpEeV1lvW6YZlV//uLxqPC+Y80TTlw4AB33HHon142/J5HbrxgbE9lQH5CuOvw7C1/9K3nP/fowYI5sRbvHDVxKsx59O8nUSy7sfuRhy05bLxY3u3Sr4V4lmgj4+hn9/K8SyQUKgpcWdYWSA+xAp1opkz9HK/KWUYAourCOpfrVyu7AxeHmB14sOVcQRKVRqN0ZCwW51yItMtXqPAG8CNKrSAj+mzdttQZKl7ybulvV3NyLaicrz/9/A3j47v/PyOfvP4XrhzTC5UBeZ2xpz0b33333b+2ffveNVF0IcII/F+D9yukRAqJEB5nHc45cB5nLVmWIWuN8/zSr1Ig53L9pPfLoglfRhf9+SVrQurUC4f3HiccUkqUUiH6rcp85zeMgSRBWcUDDzzwc1ePzP/ilZ/6G39QGZDX03hA/F++efAvv/L9hU91oiuYNSlezqC0xLoEhEGcMTDoJSVrZviYHgZ1DulAl7ofTogzNoLyscztx1IiXIEvDBpLM9XECpxx9HoZ1s2f1ymUc15DOe8jkLNbvySfKg1EP9JQgMJKD15BpPAuXMfOCZwXwYHxIIyoerHOMWIXaqBL58WcBF9y74nBfmKWZEJ0ycmnQOXQnUc0LmH/VMx/vuvU/2lXnY5vfc+qz12u6FYG5HXAt+/Z/i8ffvjhT3W7nkI1sC4CGeoTP+k7yBhDrARKa2yW0273yIRDy8WayPltQM7x3z/vDcjZ/XoURctSG66MQKy1eOdDra2UVBZCI8rrzXuHtQapKmXN8x5JwsLCHCNJwuTkcb75zW/+x01jP73j8q1r7qwMyFlGHo/tzj/9h3du+7eH5i+C+hCzcwvEtRpKHkd4QSbWlMy6IefYZ911ZeRhl6S5lA/cV8oborL7qquS0oNg2Y0MhL5uKdASlLcoBUoJhup16vU6iRaMZEfP7x3srKleVroo19mt37z2IcLwDmsEufGYAjLrMV6iZEpmDJkV4EHqCCUTnAjRc6+i6jm3EUi5j1gfGL79oJtTY8SSObHB8zLojpQRS5Idp9VqcXo+YbY2Qjy6njuPnER+d/d/8SNj/+STm/Qb2oi8oQ1IVrjWX/7lX/65MYrZ2VmSWkxzeJhOp4PWInSw/IQdYCklvV4H6Qo2rF3FtVuv5Nqr1zEyAlgYN9VNVOG1ox0HG2Q9WBM60IscMgvGw4nj80zOLHDi9AxTk7O0uz3yzNErcowpuzkqnLdQSjE3N0d9eAvWWrKsDdby7LPPXnxPa/4ffPIXP/KGNiBvWC6sJwsu/IOvHPjibd957AZ8UppvjfASfEJP1ksLOHdWfydXoYul5qbKSdKwHgs6vL4ShtS2uUCd5h9+6gP87Lsu4eJmgRChetmJRpf54Ys6Iv0caF/HwRL01pf3YQhaA83lvgaz8Lzo57zQOKFxBKU05/sekD1LCxn+jjpjWt+HPpJBD4kgzNsoCqQ3iNLz6sjRH+2fr/B201eSTTbl+V30g5Zzs03OztDt5szMLTDX7pE7S5YZTk5McOrUFI8danJkos3cwjy5SOh5Tc9HeJ3iZQ1Tdm+Fe0WgpEd5g3cG54pQPxQCSw1HgvNBeE15h3SG2HfL/H14jVwmWBJyGe6b2LXLmZXl1/uZuWUv5CD3j1cscn+tbA/M+DEAUj8HIivX2oZHkfFPP/OxP/nMB0f+1VsFE1UE8mPgO9/Z+euPPfbsDef6fVhrGRkZ4ZM/dTPve996mhEI7aGbQ5IgS9MxMCCD/aIkv1tGzuiX/GT/GVGOUogzXkm8aCMSQvTnlQbjF0qcnQdqX6GIJM54v2e8qcHne60b6EpPcKly/eSSFV/6uGp4DIZh4zoollxBbQfz84ZLj2k6Ftpd2Hd0gW279rPv6ATTCz0WuhkiSQaG3CHwzgIWKcoZJwRaa5SMyY2kyC14HwZzpQRLhXO6D37nF9+29qN3vnVr67YqAnmV+Op294n/40+/+ZXHdk8qMbSunN8o/ZpyQteUeh7qdSqi931tMyiKO6Q31IsT/J0P38Avf/ztXDZKoCWQkraR1GKoDxolSvZULxcLy37Jcab9KNGLlr6H8tEvRkLCu2WbsF+y1fhgfs5ug+sPPp+Rqw3dImDO3AgF6PJzKA9SVjm8s4L70T7cQrsg0hFSh5SWU6BVOB/GQFNNggjMCqcmuxw9NcPkguP4TMbBU13u/f4zzLs680VEp6jRQZP5Og6F0RFOmOCN+IwET9OFiXfnHM5JCp2QS40d6Od4ImsGuf9eWUMcRBL9C0m8xHXh+zrii/dzv2a5Yh0McQYjBovrojBEZo7rLh4+8f/+zZ99x3VNjr7R3v8bLgL54RSt22+//bePHTularWRc97mHkURH/zg2xkagsJBQ2tyY4gi2U9OLW6xvn/wsgbkxzXXP8qDF+eggC0EP96HWOkT068Ugb3C8tRqUaDCEMG2F/0lFaBUeH3vDBbF8PAwI+NrKYA2sP8UvPO9N7HrKDy5fT/P7zzOodMz2MxCOelOqwVFAb0s6HmbpRtZNSN0rpGmKbt27Vp3223f+7fX/fL7fqkyID8CL8DIf733wBcePBhdN2lWEyVjKCsGDKRWgJcZYFCirwQ4dFZ/M/EhgjAiDjl/0dc4btN0c2wdd7x1GC42szjnkLU6WiuOELzzpovOuNnkEi9syQYizswR93eOaPBV32czYmlCSwSurzJCEZjyV03pwaRnt7/J3hlGqV8TkSBC7aM/TyOIcIjQ516ej/SVNpkV36T1ChbCd350ZCwlCI0QII1ACx9qCbJ8aTmG8BADsTfQ61CTkiHpGK91idcM8971gk9evZZTMy32HZ/i2Z37eG7bE+w8MslkvhEjhhEqAV0n101yq/EIlFI4X6C8QblswPagBo6QKusZSyNj13etl0Uky1irhV1yWazsC0SKuXJvS0KE5iOUC2y+Es1cVzHcvJo//e7hX7z0Bh5771b+7ErBG2ZS/Q1lQH7wgxM/f//993+q3U7Ruoa19py/xc2bNzMzU8DGGOk9JstQSQ1LuGkXPUzxE70h/NL8l/ev2595cRQjznjeD2ovL2kbXmmDXOlcWa/0+V/t971HCIlSwXo7sWTpXeldyFKnwDnQkrjZxHmH1jFjQ3WGhuqs37yKLW+5nOvf8Q4Onm7zte/v5dhExqnTM2R5F68VQkUIUUUfbwRYa7E21Kv+8A//5L9c/q9/8ZEr171xRKjeMAbkgUmu+/P7d//+9t4Gcgxp2gDjiGyGAnIR4SW4shcodmX/9VnvzH2FQVnmI0V5T2qM0BQGjA/0JfgCn7cR5LSSVWXNYvkSLs6TlPMolF0VOMAiMcs8tdQ1wCuc7Hv6EspOq35c48sNfWBCXtdNOXnxU31dAxfmX4KnVEY9Qoe0yeBH1VmlaFa8/XgVPRAeg8ODMngUXgT6E+8lp2VMrgOnaA2JVAlJuHrxRYHUETXTRhcWgWY4irmgoXnnlatwdhUfv7TFU3sP8/BTOU8fmOPATI9TRYtC1VFal7UMg/JFONNegNA49IDRepnjNLifwn0hfT/R24/AF2t74fmV3YasSjblTCZlXdGVkX8RGPnqLSadRac1jk/N8wdf3/bHI79yzUevlZyoDMgSfOlLd/+7PXuO1LS+kKiZ0m53qcfpOe8COXDgAOPjH8Jn0wjliZpNMAYFdA0MyZfeL/2rVZoSoa9q0IklxIviGPFyv/cGqC+s9ADjbDNYr3b9RPnPlY8hPRp6uGLBIM3pnEPI8qeVCtGIUkQ6DukmIfEOCuOxRrBpwxjNDWNcce21vO0A3PfUQR58/hhHp9rVyXsDII5juu0FlBcMDw/z8MMPv+32VeY3r/3U2//ZG8IA/s7v/M45fxP/4a8O/fs7Hj/0i4d6dbq+TqFjorog686idYaXRfC6UHgiQKGcBh+/+o36ZWBkipFxeWsGnY9+eTyXCZmXbLrgcjZe1ACTkLgMopRUGJqiwNtuqBsIV1Jw91M+MvxzCmEjpI1RPkH6WjhcHdmrg1oA20M4gxBh+iLkPx2RUIiSJ3ixFl9GSj5URYSQi629r+EwtoeQHofCAR3jQQmkEBiToaQDcvAFeAO+bPP0ZZSyrFOgOs48xCsciJhQB4vwPsK6COcj8BFCRDinwWskGoFGWoW0geBTIknMNE1lqWFJACUkAkWBJncRTgVtbisUeIETYVZJSYHWwdFpCcHqGN4yCrdc1uL9F9VZy3F6x7dDNgPCkWmFVwlWRHSNwReGJFIIb1ACpPAo2U+7GLwTKKFCqm1ZRc8vi0RWeqFeugh8rWTTkAhZgCiQogOiwESQC4EpwNZazM+1KTp264VXXnbvlqFz35V1zg3Iw8/PXnXX95/+58/vP74xT4bI4xZkGc5mRFqjylSVR5dH2b7bD4HPVlO2T+/eTzkNcr/BmOhiHtmeYMv6jVyyOkL6AtPrIeMobKRaI6QuI4c+T5HAOo8Ldw9Khj8z6GByS0KVfDp8I4rC73uPMRbjHAIV9EeW3G6LlZbyRjzLXLWUUBQFXpSbkgwroTxoJZa/WSHKDxI8WSHF4nxKdbymo9dz4TpBIGU4H0KAKRx5bohjNQg2vQuGO7TYGry1qDh8s1fk9Ho5hXMIoUGG11t2rsscqPRLM7hlyrY8zbWGZPXaOpsuu4Rr3nEjXZqcns+YnJ7DeoWUmiiKSHUUapRCYq2jMCbwd5XFd6k0UspBKvdMw1EZkCXnBIktz4MQFhGarENqy4GTEagIGUW0tGXh+IHYLcys/diNl/z3FW9A/revHbztu9unbz42VxDVxnBa4vIeCIOMwHgz2DUFCuk90kch+iBa1P94jShkAyciEpchMWgKtDfkso4nokfCntMdiBqsu2iUqJ7gRZ1IRRgX080EhZUYH3rxjQxeXpjUKsdCBBTO4KzBuh5S2DCMqB3EKaAocovwAhFFSK3QSiOlX5q0QHiJE8F3tUgc8qz1tDwLoAoyIeigmPaCroCegJ6Q5ELjpMJJsFJRSE0uIzpS0itrRqY6XvMhtMQrQV5uFv3rBS3QUdhGvA/Df0pZUBahHFKHOSVyoIjQMiWOGiQ6RpfCVHKJ0yHwKGGQokDIHkJ2ETID0pAG8zkRPSJXkGJZlziuHHa8c3PM9VtGaBaTLJw+CL7AiogFozEqYkh2iWSBUpZIepSWaCExLifPC7RWSwZkBcL7ZZHISjcgwicsDh0bBBaExUqPlYJCiGCMlcbOzRJFCSZ37D/Zu8IkF8r3XJbcv2INyJ8/8PQvfOOe7b8x2XYQRVgZk+ERUYRQHldkSOEHyxtKNuFx0Bd0lgbEilBEjnwWvO0yoilkWVx2BfVUse/ZR5g8dIIbtl7JqgbMTS9Qr8dEkURriVTB4/MsjoK40uNzJoQdSRSjtERIFe4nazF5htQaFcchZ43H5DnOuhDhKMXSrWBA1tY/gWdtQHp0e12M0CiZIsVyMg09WHVXrnkYmHTllqCpcDbIbTiXUpaRKmAsZEVB3itIE40SoZVCeIt3FuEc3hmEseF8CBV+GYEzlm7PBCJGJZYV0GSZphVLokrjosAq3Xd6IMyFWAdCUmu1GFk3wpVvu4rhdW/h8Kl5ptsWaiNYY6A3FyKikA7A9a8RKRBCIeQZjApnRCRVBKLLTEqZEl56AF7HQRY3SnGdDtYWrGrWMFmX2WP7r9m4pXn/llUj5yyVdc4m0e8/ynW/94Wv3/vdvclIHMckoiDPc3Jr0EmDXMcU7bxM7UBEVip9hYW1g+6hs5uEzmULgJY5XfJBhdefVyNYoYhrdfJulyE5T5TPMcQ8777+Gt53802sHgPfDQNdOoYkDQFFkkIch+ejMzbixdvJECERyIFZlITWYA1lr5lhWRuTlxgBoM6YInntOHDwGIWtsaDqTGcxp43ARaCSMOms/OJBuTq2VF4DaFTdnmeFpBEu8SQCrcM1k+hQGE/LqKQmy5bxfmF1cH1AjgkcV4N5odAXN+gndKU3M2BH6D+WJzAyZRq4nEfyYIwnljnIItS/ej0WrEQ017FnBv7oa9/n9u/twMsahTVYocErCi8xXmOQSFUDFVPYMzecMybWfdWFAYuT6F4EDrpchjMuFbh2l3piSbQgLyWOvU5RSvFzb68/8K/+/i2furrG1Dl53+dqwb7zne/8+okTJ0bgwtDrXFKUCCHI85zCMTAe59RDnJ1F1OsDzqler8cTTzzBc888jSu6NFQUWiqFw9Mv9hcI4UAYhocTNm9Yy1uvvpTLL7mY1eMtGmlEs5GQCE23HOnoRy6BphskHuss6ifc5jQ+Ps6f/be/4q/uf4QOLdzQGuZzTc84oigKxswbVHnjOzRWaEwZudXFRHX3nwW6xXS5n1q892gtGW62GB8fZXSowXtuuIE14yNsWDPOcFOTxuBKGZzCQKw1AofB4LxHC4FCUpgCk+XUa68suSwQ2DLsdK5URLQWUabOSFOaImHawvAw/ONfeg+X3/ge/uK2Bzhy7Cid3GKNQcU1pIyxhcWYUEhHRtVJPgu4oqDWamE6p9FCkqYp7Xa7JGeFp5566pbvXTr+d6/+8Nb/tCIikH0W9cjzfOa//NFtf3qwqznKKvCeND9N4gTaB5r2eTUOySiu9JgiP0vkO0gRNKS7WoDXKHt2F2ifVXTYTCH94pxGRw6TywQRp1hrScjBFuR5DyklNm7hnaPui1JqtGSeLSuUQvqg1a4E0nkiHNIV+CInEorRsRE2jK7iEx/bwkVrhti0AUbi/kQx1EX4v/B5IMwdOI4CQTTobj7bLnoLdHK4/7lD/NHt93L/c/ugdQHx8Crm57pBOtUvph6MkFgSjIzCRLSv9CjOBlFJaij7mudFjnA5CoiUJxKBPVfajFh6LtywhuveejVve9uFbN4I9RhGa6UyuofYQUNBjAkRdZ9jSUgcmgKFW8Ky7E14D5FaHiGXpoP5oqAWRTjCbFMdifYFtttGac3Pff559uw/ybHjx7EiQcV1ChdReAWqjsWf4aeWKSxfaSkCeNUFYUlNmVnxDQpRp2CkTFR0GRuq4ad3URRd0ladQsGsHoU8Z9yc4N0Xrtrzj3/5Z37loxfxwJvegLzQYeTf/R93TD+5/QAHu5ru6GWgFGn3JLpwJGVH0wwjWD006Lo6VwbEOkApRNFG4UiS0H3SsxoRRdRstsyA+D5lSWlAvLf4whALTy2SaDw2K/A4aihSvRudz1FPY66+9EJ+6j3Xc+PbrmbtSAxZj3oiUL5Upul3QaFfNwOSWYdFMqtg21H48n3PcdfDOzgx2yFNmuFv/AgDUuEsPcw8GyhbCiEGJHrSe5SwYHJSLdC+wOVdlAtfCyHwJmN8OOeWG6/lg+97L5dsatCKoCYgEhmqyFGR+JEGRPqQLpOl1RB4pAz0Qbl3YcC2NCwOR2QtNVkagqLg8bjJtx+BO++6j/2HT5IZyIzCyZgoHSYzRWVAzsKASGmReZtRcRowdE2GjSTdxjrwns1ikqH5E3z8Qzd/4d//wnW/8qY3IP/i7vkvfumOxz99dKqNlDHCrewcqPYW6TxKayIh6bTnSb1j61su4ea3X8V73plwwTisTUKWWpmClu4iaIciRXccknrIfylBZgviOKKwGZGWJXdWSfIoRJg78Dp4lDbc2nkOOnVIKTk+0+bO72/n9u/u4Im902T1TWStIdre4fMctKcWxSS5w1lBVhoRtXRD8KrM5WqMDKX2xcJ88IxlmRKr4pez3IBcTKojZLFAQyxw3ZWb+dgH3sGNVwtWNUIdZUiVdThfgCvKgpYH7+iKFI8i8QLlZaD8tRYQeAlFIkpnJRTfdWmGMD5YHDkLUrN7foR//1+/yR1PHEe0ruLkDGitqUsZzrVdCEYv0XS8oScTorRBkfW7QoKiqDxDXsD2XSQRHDJBjsKifNAiz0VtZZ//xFHkc2xds4Z/9j+8/x/+8vV8/q/z7/+1dmHdu7dz0233PPF7O/efVDKuY61HrvAujEhJnDEYYxAeIq2Q1jJ5+gR7djzHN26/l+ef3knWsawZG2VsKEaYDt62kUqDGgXj6bYXiGoJOgpzA3mRI7UIN2TfgECgIkEu9sAIUBp6eY9ut0truMWWyzfSWPUWFmzM8ZmMyYUFRJKQ1uuY9hzGOobSOllWLFJWLDMFsqQ7CW3HS78rcMhBJ1CFs4UUEd12B2xGIg0nj+znke/dw+MPPcXuHXtZPboKnxuSRBNJB96VraL9qCQiN4ai20NZj1TRoCVMaHnGIKBHlgd9yQFlyIsuoraOG2/aSje+mCe3HWR4fCPGGCIhWJifJY6C+t5se56onhK1hskmpyDqGwBfFv6XuxQDksZyfiU0sIeBWwArVnaNxQqD1GBnZ4l6vdELL9vwnfV15t90BmSvIf7jb+z8v+57/uQVplCkSkNu8Wplc+F0RReXSFysyJXGxDHUGnSjhOk8oqdbzPkhHtlxnP/2rSd5dPc8atVVqDWjTLghJiOBiQSiniBkju/OolxBZDxS1MFH5MRkxBgRg5Blt84ckh4LbhalHSpKESoFIYgErF+luOLScZrRAnOnjtA9NUNDjqP9CL6IybwgdxKUwItwCL+EZmOwIRCm64UtPccC7V14Dr9kcLPCa8EaZmnIHkkthcYwM3qM036Y/W4Vz2dr+K/3vsC9exc4mDXJh4bRwzFeJGQkCBtj5k8zVE/RcR0TaWaco4gEVkLuIJKC2Hu0t2hfCqSJGC8TjEzpMUQ7H6YZSWTH88GtTd5z1Tq2P/oNyE7jYkeW1lmIR+jFdUTawtmYuNehFsU471DeoimInC0bNmzJyNA3GAKPxwuPECGt5kpt8RXfBmy6NISisILTM73No6Oj3Zsvadz3pjMg9z15/BNf/vaDv3Uyi0iTBlmWEekEs8LpnK0wJEmCUpoiM9heD2MdUaRpJCmRhPbcNFpYhhopxw7v45477+KHO6bRaphGy5LWJTGehFCsFzoCWTYOlwStA3ZtQHkPZCAESkUUvsBaSaxjHEFs0QoYHtasu3gTUfMijp/ucGoqI0oaeCnoZm2SJFlCktf3EJdd3nix5A8PIpBFT7MyIGeZwliYRkpJr3DMdTpYFPWRYZCSbHqaqKbJFqbY8cyjPHjP/Rzbd5TxoTFWj7VQ1tBsxOTdLt3CEkUxUoXY0DpIVL+9fImoTRm59KtiufXUYsnMXIfhZowFWqtS3vNT72L77nl2HT5FMrQGQ4xpt/FSEOsITA9jDE7p8mV9ef0s+TvI8rqVS67fao5kWQpcOUyeUUtriCLHzB3ZML5u49OXrk4OvWkMyDOzrP/D+47+0WP7emvm8wSLRhaGNI7JVngXjxcCazxFYcNAmI7wIsYg6TlFL6qT6xYLos7posGcHGch3sTuWc29z0xw//MHyOK1NFY3EJGiYxJqUYSnILc9RBT4shChBCJLJUFc8N6ctAgh8T7GOUEsJTUNddUjtT1WRYLrLmiyodGkM3GY2akT5HmGjxwqTSkcZQRSsgjLcHuLsjlZljPzyoejP8zWp0hxQlVW4GxQH6aI6pg4xUQ1nI4orAypxbRBXBtioePJozHU0AU8dzTni/fv4JHDit74emyqcUmKT8LmL5imTkZD9FB0EcR4rzBl8d2hQqQpCiQO4xRSwmgUoV2HVMwz5DsMiYL3vecqpmZOcOT4AaY7czSb40Hl0BjqooYtBEoVKO9CLRAXmCbw5aMr1TntIO0WWLMFRiqsUKUztHLRdGAzS1un9HTKyXk31mqtTT98deOrbxoDcscPDv+dv3rgqb/ftTUWehYpJUO1hHa7jdMru5PHCYezFoQgjlNkHINQeClQOsYVBUJKokgRKU0cqdD7L8AWBQvto2x7+mGee+w5YhuzbqRBK5W4vEu9FtooRTl42CdQlM6HLhjh6dJBCYWWNZRUA2FFIYJ0r0WhtWTNBU0aY1dwctZwcqZNhqNwYsBH3o9AEH7wd5ZiqSjv0sfKgJxlBFtyUDnvQ2znARsaJqRSFJ0FhJJoCabXxhYZCsvk5CRPP/Eck4dOk1Bn1bomdQWKjBiJxFPYAinr4GVgVWBpEOIG5y/PQZgcLS1QQJ5johShEi69/jKmslEOnG5jcg0iwhQFyjhqtRrGZ8siihfnIwL7gicM2fUj2n5EstINiO0s0Gw2absyMjM9dHdm3erR8ccuW58ePO8NyAMnuO4L9xz+/z2yv9vyUUJESdIXpXTyAqlXdgg65GrUSIjRqMJjez1ctwM2R/sCQUYkDVIYCtMl67XJbBa4kmoxpjvCUP0qDk1G3P/kAR7ZPUcxdCHRqgY2CZ6joBd4jiiQ5HiZ45QHmZC4JmQpuesGShbh8BhkLpFGEUlPnPUYigUXb3CsXlVgzQm6cycosh6FTJfkqCUeFfLTZSTCgIomRBy+tC5WqjJ9VU0inw2KqIWLakE7wvZIfY9h2WGomEbNn2Q8tjRcB+U8qBSjR2hHa1hwo0wVwzx7Gr6/7RgvHJomSoZZNTZEIsLwaKQSBBpbns9+w6SU/Ul3ic4dqZZoLUBKer0uOq2jpaLTnWVd1OCGK0ZZK3qc2PUM3Zlj1GstejJlvr2AjINRcELhRIgqrFD4kqUBYcumC19qZfgy4g2VPLXSNdVzT1pr0tUFDotUNSZnaQiSdVuuGLtjTUL3vDYgX7x312fvf2r3R2eKCGMMtTih0+mQZQVDQ0MUtljRF4CyIgyQlTeCjBRpmiK1ChK6SgQP0zmUUsRxHKRGncNaSyNu0lvoYF3OqtEap04c5vFH7uPYgcOsHlvFuvEWERlauFAAXeLZCTQUEhmBjsJrGlMghECpUHAn70KSUJicQklWrV6FHt3M0YkFZjqC+WJpV9cSgyAWc9pyaeQhFlN3vIzPWeHH8EBlHNq5caSxQguPLzKUd6RpSrfbDUOKMiK3kDsR0ls6DrroGKKiw8Sxnex//jHakwdYN5yyaqQRmBBkQl/gQAgW2dAG4yWKrBOcD2dyolSDVHTzLrV0iI73KKnYsGUtteHLOHRyhhNTGSIeQmrNIhWReFHEGnwQtyxudWW61Je1s5VuQEZqDRYWFsjJQxZDxbheTtQ9felFa1Y9sfWC2o7z1oDcdYBb/ve79//hibak3e0hlaTh20SioKOH6XkxoMhYsQbElYNawpb64wZvDdLlaBzCF2XvvUf6QKQnvRtwH+EyUOCilLZJyfU4Hb2J/RMxdz64hzm7DlEbpj6W4IjpGAmyQJAjaCOzkDITyoc0iNQIGS+aAq1xvTl0zZBQ4F3GxataXLFumN7sJPuPniTREuG6OJNjJIS5D4XXUSnFG4qgXoQSuhExRgSdir7iYYXXhtjPEdFDkeGdw3owokYma3RJKKIWmaxj0CgUkXDUXEFq26S2i5aW3Hl6vsWp3jhPH9b8YL/lpFtLc/0YmZQkEmAesjZpYIqn1w1kiVIsoBNwSmFUihEJlphU1aGwNKWn6QrGheLyDTU2rBri9PHdHD2ynaQRYa3Ceo2OY6yKyY2AuI6Ka3R6BqHkoJOvTwQpfLBkoWayss9/jwgXJcAUsXIokdDOu/R0jVkztPXCq0fuvSBm8rw0IF/73s5/9N0XTty80C4ojEMIQeILnHP0VAupFNKt7AhEu36fuxt47ku/XtQ7eWnt9T5TsTujpTG0Rmb8cNuTHNq9Gy1ixltDrG5FRDi6bo5URAjZAmPpmR5CSaTSQZ/CUepJeITLS649T8d4hKpTH64zvPZSJvI6x09N0+52SWpNcuMATVpvUOR5YFNe2l2DWJbLrgzI2UGKpQOZ/fP/YqnZJWo1yyJCV1KpRDqw/ubdBeYmj3P80C52Pf9D1o4NMVSXDCURkZLBSBmHlAlaA64XNGy8xDqFLankNQT9dpODc3gZgRakq1qoxgVMdS0HT8ygdBNkRJbnCBWRNlrk3S6mvUBreBhrsmVzQ6EeIgfdeyvdgBTGE0URUgYFSSVrOO/BFGhTrN44qna+Y/PQY+edAbl9t/v4n973wn/ZflJQOInEkAwmSD093cRLUG5lRyBZVFBoS6E8hfIYWWqKSIWVKnRHUcP5Go4GjhTnm1jqOOrk2lEojxA5khxND0lGphQ9WWfa1Thihvn+C1Mcn0+QjREarYihaIjpCUFcn0bEBSIawkmNLec4vMxxFEABQiDEMLg6kakTOxjScNEIXLB2nKkTR1mY2E8sQwE9Mz60Z4t+qkoMctfBXkp8qZxUGZCzzIHLksFVagqRYkWKlQ2sqmNlDStTLClG6rKu4FDeI32BwOFsjhcW7+sUokFPrGKB1Zw0o+xZiHn8yBxzchS1egTSGCESmlqiXBc68/RqwxQyxUuNloLIgzIO6VyQ0HUKvMb6ENM2I9iyocZqOYOb3cXJ0x2kkCUTNuSl5C5CkQsZOrEcpREJ/0JLiFrxxgPAOo9PY1I7D9aiy0HQttWcyhxO2qs2XrrhgYtqPxkN9Z+YAfnSA8999v4nd98wa5tBk1m6sl0vdPd0VROcW/EbiDvjLhAs10QXvu87ijM8zLIbRealVxnC+X41oj9kldZrFEVBIj37djzN8X27GUlGGIqH2LQuQskMj8faONzk/f0e29fEQgoJLgppAxUYwnMTmn3qo1BfczGz7YLDJ6bIiXEqsAz0JfHkEi6txb5+WUUgrwcGkarAL9HLWSa27gH6bdQW5YMkGYCKQsefMYrceDxBcVAqj/ddJicOcGT3cyxMTbB+tMmGkRaJzZFZD6TExOlgUl1R1kY84Cyi37qlFFILFnoFbSupJYKxtRsYXrOB3Sccp6a7IBVxrUl3oQsqotYawszNobQYtH8vvTGq7r3SgEiN1Bpt5wKbhYwRSmMJNU3VOzG6eaS1710XjTx83hiQLz/d/tRfPnTgf9894UGmKATag3USI1OcriMowOUrnsrEaBso4IVH+CA0pXyZjvJxeC5UQMoLRuKkx0qPkx5PhPRxOe1tELIL0uBUhlMFvSJHNOt0ejk01jAxbXhi23Hy+AIyHdNcXaNDnfkiqBtGClThUaJLNJCwTclzyItAe6JlIOuLpUN1O7x1bcLqVp3Tx44wPT2JFypwYBmDliBEqNv0dcCl77MKe2RFqndWyFUTK5JgPHzoWlKuQNIhsj2U66F8D1lGkkZIcpnQU3UyVaMrYwoVoQQoYYhkhpaWwnnyXGEbG5nujfHCKcmBYzkLecrwqiHGh2oYXaMrBIUH6SARIHyBIMiyIgQFAq8URoGOFZiCVAtWR5ZLxyKG04RThw8wf/oA9QisNxgnkDrC4gKRKP6MRvRQFQyUOSu8CysCvEHkCkgRUuGEwEmJ0oq86/Fdv3HdBZsevmjk9Y9CfiIG5Ev3PvPZ7z134B1dn+JkEii/rcF7P9CCRobuI7HSJ9HV4g0gfN9jX4w0xBk57UEf/NI8OCApQqGxzImH6XNJbXQ12ekpSFIiIYldgcwz9u/6IaePTTK0ustwOsRoQxPLQLCYKIGSjsIWGOdQMgmCdywOIwY+FIG1DqljWmsaNFZdyfHZjP3HZ2gXoHW8qDnvl08YL+awKwNydh5otDTMGHS/Ic4oMPcjvzMjWFsQVF4EWkqUlCgV4aXGKY23htrICMJ2ObbnOU4f+iF1DBuHajSbdUo2GyIJwvlAnCjKqVUvUFFEYT1eBtXDOFI4PFJYtNK0Nqwil+s4cnKC46fn8HEDdIMstwgVJKxFOcK49IofMBiscAPilMBZG4TotMbjMd5hCftsZHPc7KnVF6+pb3/HpWOvey3kdTcgtz/X+/hXH3jhd3fPJInwEdoVKOuwxDiZUqg6RiQ0i2kSLMUKJ0PTTg2O2Irw6EC7MJ0bJjkKhGwjZRshF5ByFtQcUs6RuhzlHU4ICpFSMErBEM43kbaB6bRppCkin0fJHpnqMkNOd6zG7qzHoT2ORK1nfH1MEkHkDQllyqoLksCPZVQBOsfLDC8zHB5RFERyBjl/nEYyyrq1mri+nqOTs0zNLqCVxg02AFtOoYc0ymKbb4WzQey6pDYjdj1inxG7jMjnxN6gMeX1YwYklggbokEZJsl9HIMXWHIKb8kxZKaHdRmJcyTWEc0tEOeWVrqa2ULxgz1TbGuPkm8e4zJraWpJJEBIgfMKqcKgiMEiFEFozRQoAVoopHe43KFFTEvD5lUNEmk5fWqCdqeNVynWgzcWJYOcQd+RCp9C40QUvBixwrs4RRfpCzyrcaJGUXY8aplB3iO2Eu2GcC4fba7dvPPScQ69sQ3IA8//6v2Pbf9AW41gCoeUAu8FXkUhNyckWEtsF1BKUaxwVe2lG2jwGMXLzE3YshDtQbjFSVyng7DTgE5EDzxS6Us9ATxxLDE2x3lDHMf0ioyiKMhOnKJ96hjOGNaNjrOqpRGZgcKgaglSB7W6XGYI4XFlO6UWcYgeezNQq1EUMW0dMbJekScXcejkHDOz7ZL56ky23j4HlqwMyFlCDlZ4+YT/mevq+6zIZSQyiASlCjKEwoHWqCh0Y2mpiGUMDlIV4Z0JFCOqoNOZY2p6kpMT09wwDrGOqdWiwZ/vd+95PFmeE0dxKO5CoNUBvPNorchtUCNorVnPgm2y6/ApJuYtOm0hpQ6vt4Tm3Q8ikD7N+8o2IEKa8ny3grKrL4hjSaQ9zljIDaO1JvOn915w4frh7TdcNvbIG9aAfGkbn/7jO/b+f/cWTbpJndx7cq1ASLQD6QyRzYi8IY9Cx0XI8Vfop52cCPUNKwmHENiyQOqJwMfgUqSrIV0NTzRIa4XNpCgPs5jO8gLjFJ4UaOBcDembSN+kSLawZyZl98lTtF1Mfc0o9WGJjxVKhvZbpXKU6KAwxCgUKcKG9zJTG2NBDdEiooFjtV/gxpEZhpLTHN71AvNZk8JF9DJLfWQVve4kUSSpR2tpz3YgSfBCDQxgaNoSSw7PgOD3jK1zUQx4BefA6U9v6/KIXvLwgzpaP6UYalDKlSxXXoRuJ+tDJ7kHi8UqR6bC/drV0BExRTzEgks5cKLggX0Z6fotrN4UTlViukGQyoc0WK5l0EjHoQUII5FeoGQX8jY6qtGdnePC0Yhr1loOT01x8NQxZqP1WCWweUGsPInLkd5g4gY9DVYUWO1RbmWnsHJtsVKgrAkRowdVgDMSREJPaPJ6nalco9T42vGN409vGeboG9KAfPn+Pf/j49uPvON0ZrFSB89GCpSnLIYt+hBOlhrolQE5tzl0o0iiGNM9xtSxvZAvsGF8hPFWWm4mFutyVJlQN8agZBw4jTLIo3BG6319CGFQSYJproLaBp7ZO0vPSlStRrvdptXQZFmGKWKiKCopT5Z6zv5FW+RLedSLz1S9nOcU2TzH9zxP4npcecEaWokC7xFKUVgw0uDLLkFhHNL2WT0NKIUnplZLcD5w5LnxS5jINLtO2fA6zgfZXxuko3MZYfu1dCFWvAGxyg4yEcovRvShMSd0PTrnkCYjNb11m8Zq2995SfPRN5wBuXcnN3313sd/e++pXquDhlgzaC/FBy6espsbBEY5vBBLCsYVzkkKREyT6IxuLjk9LTkyWTDdATU0xurVOsxrOImmgRQ1bJEiZYSThpwuNRUTe5DK4IQlcwKp6ow0UlatGmf25AFmpg6TY8lyhYrHMTahyOZIazrw/rGUgPGMtmbvXybNVRmQN8QG5hc4MTnJwQmBkRsZ3lCjnigk80Qyp0ZK4squKaWxusAog7J1BDHWhzR34SQ2itmyKqKhYOHg88ydOgq6jhc1cpGSixhJlxiHEEUQdl7h+4eXoRFJ2aRs9A98YU7aMCKgNcZaYiXozE5Ti2ztgos237ehxewbyoB8/f5tf//hZ3b9zGwek6kY4rjssgqBs3JL5xgWLWdlQM4tlLSlEmJMPU7ozJ9m4uhuhJ1j7eoRVo/USKVCOI/3oMt2LCdsKJaWkqNKOBBQGBt6CyX4GrRWX8KhiQX2Hp8mSkdpd3LSNEWUDAQv7uc/cy7m5QxEZUDeCIhUTivVLMzMcHL/HlKZs2XjKoaTIJkrRYyzIRUrRd9ZEGBUUGHWAuc8QgmcCMxYtfEhrF7LvmPTzPQUxiqEVCilkKJkruiTca3w/cOVrMjKRUu0W0Iq3AtwCKSUpEpgF2ZJ3OxFl6wfe3jrhUOvC0fW62JA7jjIB79455P/24FJ15pjiFx4hJJ4a9EYpHdoLxE+sGhaITAyBLaquv/PKRLRQwhH142QyYSeGmKSESYzx6GTbRoj6xgdV8RSYApBWdKiZ7ooqYhyg7KGnrbh0lU1vISahZaFi1ZBXU9xaP9xpmYX6GVNlE7QSZfC9hDowG80OPyy40f4XpXxeAOgJxQLPqUXbeBwp86+iUl02uKii8YYEjWksQhT0BUSpwSlLiVShdMnVaDjMCqc7fr8KdamcMVQQbNzip1HTjJVxOSyjokTEpvhfQ8tLdIbnI9XdgSCRHiJ9GqZUJtVBV44jHfIWGGsQdiYIu+SJHE6vnnTE5uaTJ11BuP1+BD79x+77tChQ+v7cx5AiD5kFV284VNYUmKtJcsyrLXEcahNTE5Osm3bNu69914OHgwSy0KEshYs9pyjFEiJK//1U1H9sQ/n4MYb3s573/te4jgmbTbpdQPDtFJV/etN4wmXbNETExN84xvf4M4778S5klAtjokiiXNglipYynCdaL3YR6bTFIBWq8X73/9+LrvsMoaGhsDawKnl/bKjwitACJRSWGvRWlMUBbt37/7Z/fuPX/+GiEC+eYpbv/rdo7+z49D0WE+NkEUNhNA4l6Nk0MBW3pXF8qjstgEbpp1WvCDMOfdgRIPcRniVIVOB04IsL+gVLYS6gONT0CtikpFRhkeCUq4GIq9DAVO6kK4SHrxECY3woIsMKQ3CtBnVgtWjI7RnppifmmK6N4dL6jihkO7MqONMMpfSrzqjK2uRcqXCufWAR0kbq8iLeZzqQn0Vh493OXZKUh/dwOj6lCiSfYIVvBEkQCS7eJFjrYZSRld4iOhCkaNsj/GmJE3rzEyeYv/0QujCkorCa2JhwQscK3uOrM8PJrxGeoEXDi8tTuYhvaVL5VGrESpGSU07c/jGmrG1F48+vCk9uyjkrEOEI0fmtm7fvv0SCB06QoScmysKjDHVHfYGR57nxHFMHMcYYyiKAhFFKKXIsoyZmRkeeOABHnvsKXq9Mm2R9XDW4q2FPC8vJDmIPoUgRCZKEaUp7U6bTWsjPvzh9xNFEUmShDDbVjxY5ztslpHnOURROOdAs9nk9OnT/Pmf/zmHDx9mdq7zMpuPRClZEv6XZY08D6FJkoC1vPuGjWzZsoVGo4FSarC/9LMcFV7FOcrzoAnjPUoper0eO3fu/ODhw51rzmkE8vzRbPy/fv/gH71wsD0y3ZakrTUsZAWmsNRaScm8WyqK+QhKdTMvxWLxp7oIzikK1aTwCsUCsfNELidyGco1cUKyYAW2vo7thw9T+IgrrhqnqTVJr4PQETaOAvNuoUhEjBIZih7GtpHKAQkxDWIP6+tQa/b44fZnWJCrwFoiYfGuwNqMqBxYqyV12p02cZSWeiIsIdFbbE/0oqLzPteQMkFYg2YK5S3OxBSyRluPcDxbxbMHjrJxy+WsXaWIC0izAh17bDGDVGBFigDi/l6gm6BqQe1GxyQGtm6sMT1xnD2HDrKgRkM06jwWhVjhpIqilJBWTpdRean8qQr6PKzeCqRIMcYiVEzhFW3rGVm1xl6+ofFXo8lrLyaeVQRy6tSpSw4ePHhhlmUhJ15aOFn+v4pAzn8kScLCwgLGGB5//HHuvW8HuQO0xmcZxgWOMylloOctc9U6ikK13RhQkOcF9Tpcf/013HTTTfTKcMZ7j9aaWq1GFEVkvR7WWmq1wCJc4fzGkSNH+PKXv8zEdB6ClFoExqCiiCzvvQoDJWm1atx4441cfvnlUBRg7bJIpMLLw1kLQqC1HqyXlJJOp8OuXbv+9uTk5MZzEoG8MMfI3Y9PfPabTx14V27qiKiGR4aimFQI0cXYnKjULvbEYWoaESZdZRGoEXyVxT6n4a22IA3aREQuIrWWyAm86mBUF1NLyW1GV7Y4fkoyP5exfv1mNq6LKeIEJyK8UKT9ooSbLfVE+jKojVBUz+aII81YTdFoefbvPMzs7DxOSZz1gyJs1uuiVURSq5FlRdkqzBJKF18+hueqCOQce8Cqg6ZHWiRENgLhcNKTRyl5pJnr1JhujzM9eYobbriAVLYxLkerFsLVFxUHvUF4R0cqCgFWKpxURMUsqczZvLbB3PQ02w8exRY2TA55tZy2fgXCyzD3gY9Ksa3yHhEm1ESCYAyRamJzg0cidUw3K5jrLXDxxvVHbri49ZrpTV6zCT9+fOry7du3f7YoilIRS1IUYVq0r9cdRVF1h53nMEWBSFOKLCOKIo4cOcIdd9zBoUOH0OW+boEB27bWg1y4dTaQshqIy+6a3Bkuv3wTt956a6m9rvDe0+v1cM5Rq9dLbXZTeZhvAqhWi16vx6OPPso3vhEGoPuR5avuwvOeRMM111zDNddcQ71ex1pb1UBeBfqZoX690ZbRWxzHdDodnn322Y88O2HW/bVGIDuh9cAz87/87R/sel+XBCHr2EKEwSEt8d7i/AJxFGF9UKLDJ4Hsr+85iqwkSKtaOc+pByN8yYmkUE6E+pTwGGmxCpw1oNIwjV5r0ckN+ydm6A1dwPoLRxmNgAJ65TBY0FMvFdu9xNgi0HfHMQhNbqEhBReOSI5s+wEvzGq07vNuQZLWsMZT5EWglSyNiJP9ukefwrek1asi2HMcgphwTlzoqvPCIj2YsksqFi0Weg6X1th7/DSt9Ru4aNMa5jqSWAl0yQocPI1oIEzVjzi19KAjsIY1w4o6OUf37mJquo3UtVI4bQWnqGSY98AnS7oXFUIUCASJjrCZRfkIKQTCO4RUoC1CWdrt+Usuuuyq7fV1eud4mOP8yUcgpybYsnv37t+an5/He09RFFhrUUoNOiUg9IZXOO9dGCgKVJrS7XYxxpDnOY8++ihPPXWIwkESQRwLljqExi525MVxjHWWLCuItSS3sHZVxMc//nGEEBhjSNOUoigoimJwDQlRGYfzHVmnQ63RwHvPqVOn+MpXvsLJaUOz/uO9TlEU1CLJlVduZPPmzdTr9WpxX00GoeyM7Ud8SimMMbhypmZubo5du3b9cbvH2F9LBLK7oPbUrtlP3PHgzp8+NucCHbT1KBGjS+8V70DmIcSUZbO+q7PEsUCSIfClDGeFc4XI1NA2wqs2VhlybYI+OyN4XyujD1BRB2vn8JHHRnVOd1uc7K7ixpEFRseHsBJ60pfk4gqVCZTwSN0Deky7iII4RJ8GRtQ8V66BB0+Pc/jgMaSSOOPxzhHpKORqpS5fTwxqH4g+VUOISAJFToVzBUsDT0IeZRTaIl2C9JqGEaQWZDSPVx2KqMVkN2EmG2JmxnLj9WuJ8CTCAD7oBQmIbJDc1d6jhWdexhg0kc9JFQxrSZpnHJkpODbVXfF6Ql7lQeYBPRCkUx6EMAgErrDEWiF9XIq6OfAOIQ3GZ0hSCtPlyisuvfvKYbHnJx6BdLu+deLEiT84ceIEUspBHltrvSy/2c+9VTjPL9A8R0YRptMhLTulut0uzjmef/55Hn/8cU6dCrNIeZEPdOOC6qQEPJnJ0EqThgYckgRcURClKZ/85KXUarVBFCKlxDlXRa9vEiRJQm9hgW63S2t8nKmpKfbs2cP3Hnn+VUWYEjAe4iiml/WIteQd77iMyy67rKqRvZoUl3NEURSYjPM8MPNKOdi7nXPs2bOH48ePX/qaEhQ/7i/s6YibvvKDo0yndbxokuVJaYby4F1K8BhsESOJyworIMLAmR94Lkl1dt8IHqTqlpaiFPyx/QsjYxAy5h0QLVwXHBFRXKdwUAj4N48J5raO8Q/WwzodI4oZkJJO2kASkRAR64iYDqDRcTjvsnz8lfWGg5cf5f9+fpyTvRQXDUEUEecvkKSNUPzzCdo0UT7UzgAWSgqk2IUrqgikwYHqe2mIXep1D7q1SgnUvnnKZG1lXwBqNqyRrYFPwCWDCA/A6l4QbSpJDJUDZRWq9HZ9eT5woRZhlMMAGa58XYFQMU1hkPMTDA8Ps+1Exn++t0f9LXDLcILODM0IFuZ71FqgpGIeUERoILVAkZEmKdZ1aDQEf+fdq9izy3LHkRwhE1ptFyR1owW898wnEUINYfIhAGpuEiXa0L9+/BXh+uH0+X36TD+V5wZ7bLgHyvs5jugUHlSOUODwOFx5vkbJZJNeZwOPPrvnb779svE73zWa/lhRyI9two8e9VsnJiYoiiJMoFZY0ciyjO9+934OHloIm/3SDqxXQTTinONv/s2/CRDy2kpBp8Pw8PBgVqTC+Yt+hqLfbdffNw4fPsx3vjNHx5QzZA6ardCp57xDofCAXQxpB6+n0YyO1rj66qtJajW8MYO/0e82qubQXn2E4r1n9+7dt7yWKOTHikCenObCR7bt//m5rqVwAhXLxQijwsqMYJzkmWf28NXNqxj7xFbW1lpBmc5bYgyeuIw4BaAXRWxLFlUtFG/ZsoaPv+dC/vKBA6jaWnzimc0AaqjSs3XCYkXgNQiecNmW2CfvFEFJT5QRxoDm2wea8MVkamngym+PmJmzS/Gd5+dvQaiwDQiL9Nkg0uhvDK5PNyP6zBEmRBblBzciDfMYi1vS8vVx4VxYobFeooUmShUzCz3ue/hRbrr0Bn727Qk50ILyfAui8jwbb5Fa4J0INsQnaCFZPQzvv+4C7tu5n107ZhF6FBUp5rMaUkU4fMn8mYWaAG5Qn+t/jkGEvYLhyUlSwc4jbbbtm7/12qu4+2Lx6nf1HysCWVhg/Mknn9yqtR54FhUqD1Mpxb333sv+/VMUJty3Siqse+XrUApJr4BPfvJGkiQJTAZlHaTKcb85ro/+bFi/JhrHMVprJicnufvuu5lZCAZrob0wiDR6PVOKDpaRh5QDNl7rw8Z14YU1tm7dSr1eXzZbIqVclESu8KMdwHJez3vPzp07f2NqqvdjTaa/6ghkf4Z69mD3o7tOZLRGRpBSYfMCSKuzsJJDYOMgHeeJiYw/fvgUrQvGuLgJI67AG4eIYhxqUJuI+t5r2T3jHCQatq6F/8e7R/nKY7uZnGswvP4yZmdmaLpS110WOAlFWTur2X4to7yEvSm9aLfEE9Yhl+/1kkn2/s4WXrcrmmfnwZ3ne9SAdl8UCJmBsChXuuY+yKTiFV4kpceqw7CADOsnvAMvBp6oE4vU7FZQCkUpCg9SpXRths9liExdzoM7M7765Gk+fcsqklqTVvnLdedQBchoAYHEaYHwCViFMiAjWK/hk1c0OfZoxlNzc2T2AnrxcDA6rgdSEptu0BwSBlCD2qvq1/hWugEROZkt0LWLeWR3zq3H+OD14/zJ6x6BtNuMPPPMM/9WRhFFUZAkScWmWmEwRT40NMTDDz/Mvn1tjCHwFb2KCFVK0CLQaH3oQ+8PN7/WdLtdqLr4znssrUNEJcuzMWbAm+ec45577uHQ6QUSGZgPim4XlchQFy6TTwJRzhUNZkuRwJYtw1x11VWDTj6lVGCJXmodK7wsoigasD5MTEywZ8+eG34iEcj2Y/7WR/a3Ec019PIc7QOzY4WVDSk0bQNqbCMTU1N8+eG9rFn1Vt67PgLvcUJiWawVSF8SJAo18F+U9axVcNOmHu+7bIgH98wzMTcMcVym3i0IE+oWIkS8unyZXmmkgqKER5a57UVPWAZSx0FOJUd5C+ShO0us7DRZ0q9Si9BtJcmCzoqXgT3C18DVKUSEFZpClR1ayoGwxEVWzuYsD8X6X1njkTrC4ymQoGsYYVFKIIVkXjf4/qEpvvXICdb9zKWsUhFJ4UJE6XsIJKbIEVENgcR6iCVARuodtaTGh68Y4tnnNM+ezOiqWmgPlBple8S+O4hHrQAnYvBq0GW40l1gRQ9iWLAj9HTMgz+c/dv3HOVP/sZGHntdI5ADBw5cPzk5OVAZ63a7g9mPCisXfV6d9vw8ql7noYce4sCBUyAEefbKaYIsK5BSoBBopfnABz4Qpo6HhysP8s3gYJRMBM45iqIY1EL6fGf9Trunn36aQ0d6aAVxmoRzv4TRot/RZ+3iZeG9L2shm1m9evVyxtmqPvuqUBTFQKkwTlP27t07fPjwiVetE/KqLMAzp1j/4I4Tv9AWLeK0RTY/j9QJ1ldFzpUOp3XYBIbXYo1hNh7lL77zEO+95pOMNxt0jKGuNYKQniAKrd+50WitSROF95aEeVbjeNclQ1y3qclDe4+TyhjfZ3MW/SH0ko33RZeuQ/nFDiAvgnfpvUApsCZH44jcHKONiMnTR9g0FjO2cIihoSHqS0gc+xvfSijkO4bDxqy6eAy+rA15r8AlzMyeRsTDdFydkwsFvjnCglcUQofdfBBx9LnJ3LIIUAgRCtxKl68buJg8YAQURmKb4zx3JONr9x7mir93GaZwtNJuEJdyQyS6QZ/YP4rL1m4bBKnirMPWNQnvvGKMHYdP0jYLOG9wXUcsYxBz5fWiwjXj+/NnxRmx0gp1AJXHYXDpamyeMyfW8NTeqY/90o3rvvC6GZCJic4lBw8eXGNMnbzbBSnRWpPnOUpUUchKRl/Po18PE0Jw8uRJnnvuOT74nrcRl1GqL79HGcEKsShe65zD+ZxIx4yORrztbW/j+/v2hK6ds7y/vXOYPKfWaiCdwffg1KlTXHbpFrasa/Jvfukf0mhAGpVpDrfYwBO6yd7kHmhpc02/65klj2Vm6ktfmeC+h5+jTYfTWYZMQ+OBrNdhYeGs34MxhnanzeHDh3lhz4XcdHGMzzJEkpzZFfwSOZhA6b5161bWPT/N3kOL3V5Sylf+/RUOXTqAXhmIIrIsY/v27bc8e2pk3bVrNpx4XQzI40d6n9o1LZFpHbIeUmuk0IhqCGTFw3iN1DEUHdCaXNXZN3WKLz19ksvfAeMp1AHle9Q1gAyeq0oYzIQLh7RBPm0D8NG3Xcrddz7KsW6LTNSwaISTSKHCtK3X5Ioz5g/OtBwahKLeqNPpdDC9BWrFDHWmueLiIX7l732Q6y+ocYGcIREJERHOOzweKYL8p/MO8Sbn2lKmPxfjcALs0skWH5iS/9mHV/P/vOkDfPN7z/JHt3+HXrGarqozPQXEo2e4tMsjkVfewSKsk8z4BjuOJHz3uSNceekWEqsYIwnzQkvfEibYtX4kIYGsy/WXNnjH5oTde3czxxo6NsZTUCix/K35/lxRJVYGoGVE4Q3g0Doiz2s8f2hmbMepxi3XruG2V0xRvtIPPDfJmhdeeOGWfi6Tsq/bWlv16VdYzllVXhvlZCu7dh3HAK7MeS8NJyQyUCoQZkZUFEEpYLtxY8zll1/+ulxf3W530DGotWbTpk187GMf45q31Bhvhen3SIeWYikkSioEocCrlArv7U18oDVojdIarTSRihYPrZiZ7VKvwwUbJLfe+nZuueWWkILM84G2/dmlUBSUfE0LCwu88MILnJqknE14dUaoKApi4PLLL6fZbC7r9qrwytFfFEUg5TINnt27d9+wf6b7ioWkV7xDfzjNLQ8f7F5HOk4vL0jJSH0v0Jj4qlC14g2IapC5mNR0adl5fG6xQxeypz3GV584wVQeUlc1F7wc0FiRlOqVmlCpsCAaUAwRG7hAwAev2UDTHMHKshDvE6TT1IynZgtyJcm1J3Re+dDrT8i9OyHDhLqX+E4XZyw1aRgRbW5924V84voxtpgMNTuDR2Kcp7COwjqM8zgE1oOx4f8/6vD+/D5wk+EwCwjTQ5m8PNooM8OqoS614gS6e5qLxuFvfewdbB73NG2X2hJ9+qVefpBs8a/qSJ2AXijkTmvBc8dzHnxhjo5o0SlqYTJeFovnlyYFzbBzSUBEuGSIOnDTZXXeNuZYXZyi4T1KQyFjChnjylS78BLhJUYupu1WtgGxSKmQfg7MdKCbidbz4HMTv3Egr73trA3I8eMLV01NlWyrZedVX4Gw0muo0L8GlrLoxnFMURQ8/fTTHD9eThRrHah4lzDtyvLycd4NWmuUgiiCK6+8mKGhobN+f3GrhTFm0DF4zTXXMDIEiU4YGR4ZRB19LqWlEYhWOswf/Kh/4vw+BoMVSw+lBv+37TbEMY1akCa+ZLNmy5Yt1Ot1Fl6H+kd/H+lfR/Pz82zbto25kBF9RVhjiKLQ3rtuvMaWLVvC81WG5NWlMPtt8EIQRdFAn2ffvn3MzZnVZ2VAdrQZeWjP6c90fY3cOIgSEnIi16NPZ1JhZcO6GCHr1G2XWpEjZIO8SGj7EX64MMwPntnDQpcwPGA8ngjn0iU5bRsUEH2MlwJZQGLhomF459WbwwS6CPrXyikiZ4icASVACYQHSdCUwMvB4dGld+yQOGIcm9e0uHi1Iup54vYBVPcQA1fWqzKilssO79/cRy4bdGWDBdmkLVPaMqZHhBMNkDVUs44xPdquQ+Z6eGDd5s04VUPVhnlRCDKIRNyPPEI06oispiZSDIZCd5mXKdsPtXnqh70wqSE74RC9/gUTDmlBWrpSkwvQImMYw3suX8uGpqdmPc4ZnIjKI7xNWTIheCGCUupKr4GoFGclkWwTiQwtInKXMFWM8szukx/Zbs3YazYgeU5tx44dl0spcdYOpj07nc4g111hxRdBkFIu4zkqimLQnbVt2zZmZhYGNRJxhle4OGUcOp9sAYSGEN761ree9dvr97l3Oh3GxsZwDqJIQK0Gcdz/CMtGTrxf/Lr/vt6sx1K89N0cWpsTmeC9p+150czF2Z4fWebf+5Hp1NQUO3bs4FWMEREpcB4UCuMNl1yykXXr1hHHcbU/varb12GtxTlHnucDbrskSXjmmWd+3RjzI6fFf2SQuO3Q/Ed3nhoLE8D1Q3SZIbFrSRTM0wPhUJUm9coOgaMJvIcOF4MH6w+ABi1rGAMPvpCzfbrJqjU544nGdWdJ0pQ2KQJB3QtwhoUw7kGzZkEIxjoZH9ss+FMxwQGVMCk0QmvyXGKtpe6DtC5CYWGQIwcVOrDK+lytltCdPU1SE3QpKCR0BTRlVG6ZBUv3QcdiJ9ar6SE+77coFwd+2iVrIEUOvg3OhOe9xSNwrkaiYGZujp7sgogQrl9IF2esi3pVC2djT5b1aGnIM+hFwxz0MfdP1Lk5g/ekw9RFhqSLzOfoxmsQgDVl2lSGVKjOC7SUXLLGsnnzYfTxiynmeyEd5zW1Tj1cI3oCgK5bX76R+RV9//aUxUtodjXeK+bqBhUpZuVq7jvg+Eez05deu2b9idcUgezbt++d1RZZ4axSXNby5JMHBhPHsuzc6fa6L33xlV6j1po0TbnwwguDZ1p2ePU9pFerWNjtdEiHh/Hec+LECebnO6XBCEMObsm/cENIlFDlHvfm/zcofSxL3JUt01IBjrTeQCKJIpgvQoQghCDLzp6QcFAPK2fLhBDkeV7yMnXOTNgPzJRzbpGptx8qltfOhRdeSL1er1LsrxLLamJLohJrLYcOHbrmNaWwdpzORp7ddvCjUmSBH8cFtTIvC7wsytNWnaAVH4H4cgJchCNM/CqsCIdRCY88tZ3TvZjMRYFGVWhUYKkq8+dy8WoqN4Eoiqg3Et569WVIs4ASDumKIChUDi6+VApFeo+kGHT5UG40udUcn+rxwuFZTuUwyzhT3SG8T7A2wZiEwkZYH+GIcD6mMDGeN/ehzQTaTJDY02g3g3Iz4BbwLsc7By4m78Z0ixoKWJiCg7unsdM1YjH6OlxBEiEU3guEUKGIWxRMnp7i+RcOMJ2B9SrITYoIQaieeC9AqLLjixCGlG2/115xOasaBi1MeM4LnPA4UaW0XuywJYHzTBagekgPwnmcLShszjPPzH7kNRmQ6enpTQcPHrywWuEKZwOtNSdPnuTEiRNkWR6YDIBaWsO+xCCqLwsQUkKSaC699FKUUsu8SSHEq+6yUXFMt91Ga41zjh/84Ac899whPJCmGiFClkOpYLv69ZD+829+D6D88EqjpEaXhyiP/npHEcx14PnnT3Hw4EE6nQ5pevZSDn197n4evvyDFEXBsWPHOHVqdlFlsM92UF5X/cBjELlKicezaf0GhoaGwtxahR9tP16ilt1/rtRLv37Xqe7L6j6/bA1k73FumGrHuMYCwmukC6/hBn35/deshnVWdgTil10HttSH6ffd94RnKot5ePskb7n0IgpnGEOR4Mh7PUgi8EHVwxMmoaV3SBSxhE3jmo1DEe32AoYYJ0SpNudRQmJFX5nQLamDgPI5Vmic80CEjFM6RZfvvzCBS3bjVm3m3RfBmt7cYPAM0d/EJEKGqMi7N7fXamgAmlwoDGEqp98jBYHKxabQAb752Cy3f/dZTmYJ7WgE7c6+iO6FBKmwzgAC5VXgsPKW45NtdhzvcdGGYWKpyIoeygf6f6EiCuNQOhTRIbQke+9pCrhwtWN8n6CdO3Bh7kOW6ohlEqy6eQFvy/tVzZTGOQkNFt4jhef4yebGfaei6y9fw0M/VgSye/fu91Q5xAqvF5577jmshXqtPlAqjKJo4D36l0mINhpw8cUXD7xTsaQW8mq6bLxzJGlKlmWDSdudO3fypS99m29953na7TZFUSBKNuB+d1H/9fse8pv16M/uOOdD91lpyB1hY57vwfM75/j2nTu544472Lt370A5Ms/zszdgxgzy7301wf77mpqa4vDhwxSFH5z7pVjUP19MfQoRiP0vuugi6vV6deO9ighk6ePSKL9fj9q7d+8NP1YE8uTk6Qsf/WHn0x09gpQL4Opgw1CXlf3CVqNa/Qp96iN8qVnuiJZ9vyclUTrOC0cOses0DG0GgQp6MlKCAIOgbMJ6kUzyaAJvv3QN33tyGx09jlWNUoxIlH3+cuAJOQ+y9CxFnyylTHPlhUdE4+SNmBOdWQ4+e4IXDhfsODlGo+FJEjsI3UNqzC/SPLyJ0fS9MH0sFQ5NUXY29f3zwhpe2L2bHbv2MDHXw9ZWQVKjqwU4QWzOLkKzXiClRjhbljAMwjuc1Ez1In54vMOBtqBR00RCEAmHsxanQj1NlFGS8wopFRpInOW6y5qsS2fZ68q8pHBYAbrsGpVVBBLWoVSadCpkEHTpqHnh8MIxL1bxxE7xs7vzhc9dFje7r8qAZFlWP3LkSMurZrXCFc5ug7CWJEloz7c5dOg4b9m4nvpAbciCXm4wzpwTiWPYsGHDslytKOdJrLWgf3QaRSlFURSoJCGSnrm5WVIMcRwzNzfHN77xjYGR6HMnLZ3IVW/yQkhaBLrzQiqsVy9pQJJGnZmFDjJtYQn8YqR9vZazMyD9iGOgm+7C+VVagYGJiQnm5nJ6QzGRWIxalIqIogFhcIgYS6Zn7z2b1lPWQCrp2h/pAJ4R1fWj+6VfHzt27JY8X1Uj5tUZkMd/mH96Wq6mozz4AkSGtqXCW/kbsmpoqFD6+gBOuDDp60q2UxXadh2aeSOQySa++/Re3nvzeoaRpL0uxDHe65csVntvkUoxBFw4HrFhWLFvtkOXWhhoXegSRdGS7UGWf4+BByW8wLkc4TUeQW4FRMO0CQ288xJkq/vyH20F1GBTua7UPA+Kfbav5CjKSC6yYMHXXZmBCCqUzhSv2wZmjAEhUVKWkYHFGIdRLQ62JU/tnuCtWzYivALXIZaWvDRdCUGUTCUR1nu0y2lIwRpg66YGjxywOKXITHA2hBFB50WVBJ8rfB/z9M+rRDnQhDWxwoGXzIs6Pzxp2XXS3XR1k2+9yAF4qRc9duzYVdbaqo+6wllDKYW1IT00MTFBlpfl9pKF9aW8oDOfSxIYHx8f5Mj712Y1afzmx9zcHDMzM3TykjvtjPa40HwlB95y//+CcM2kaTq4VpZGsBWTxo+XRThy5MhbXup7L4pAnm2z/uldCx+bjGJiFQ/0EFTZcpn3b+xq7SsAtuy2MqoAFMJLlAchgmcvRUwmLdbX2H1CcnQaRtfCqIwhz7E6yEqpUst8mX45lsgr1kaGy9cPs+PANG0pKYwhFTJ0Yi2JhEo6xmXXZ4iUTfCzvMbKkveqvIyTYmULovWi+WW+ZNDM0OW6KWQ50S98SPMlfYqX0nPNzjLD1yey8ELiMQjf32c0oDndy9kzLzk5B+tXgfIFeD+INIX3aCnIgEIIUgfCOuoRbN1kGItSjmRdrAgT1xSi1Huxr5ou/s2dQAgxvPNN8BD7viJlYHOwUjPx/2fvz4Msy+77TuzzO8u992251Nrd1Rsa3Wg0tgbYAEiC2AiCFESKlCyZEiWPPSPF2A5HaDwOK8JhRyhkhT3hibDCVsR4/uEssuSZsTiSKHETRNAEuIAkRGIjGwCBbqC7gV6qqmvJyuVt996z+I9z7suXWdVd1cjqri7U+wHZrzJf5suX955zfr/vb/l+redLfz7/mW9/jP/yEQ6msdTVHp9TL7zwwmgV4a3sZtiyLOze3h4vvvjiMsx41VFUEVnMg9x11137HSMhoLVerc87wJRS7OzscOXKLLXreg/OHYhfZQmBLNv9999PWZYLJoPluaHDuf6VvYKDz9fpmWee+VjT0LsuAvneOR5/edzHb2p8VFjXw3rQOdscu8RwzpGukMgd7iBy11XKmSusT/MYViYpwg2WyvZoQsXYVHz9uZf45BP3JnZeUy4tn9yS2UXCOcYsiBxTnruP9dF+sphATprWIeGOqOlGEgJdV1bXjZVeN3WXeHQgR1Yp0p7aO/v+KTHokK734jE2i3mJmJmKu263kPf9/vyPHHkF7T/GzKwMTnKXpxnyvanhwu6UKL1Uk40Bx3LVS2hQOKXA1xA9mjEPbQaGpszNFpqoVZ54V+nv1Ho1xqbSPg1+A4mguZyDtJJGQWNbUIoXt3qcv8zD77ybP3lVBPLtb7/w4ez6D1KUrmxlR4hgOq6j5557LqeT4tWrL8asSbgUXZKoS9bX1xfTxx36WEWQP/jmvWdra4utra20XDq9kmvErrKEbAmBSlesr69fE3ms1s9rSXMl3rPnn6/ffV0E8vWvX/pEsAMQD7ogeI0K+zntQAFoVlItK4P9GsgiipTUzWFjzq0qh2taou7RhsALFy9Thxy7xOV54HDgSFi0ZwZPpQObowGjfoG45IxCnVpsJSbsIjG9l5iPES9qUVfR0SFdqJlz/JKHzwp3Zx8iM3WaAKjoiNFjYpuvVFhcR69Th1YKLBOSQxwqgnFHg3AdovEqoL1krZA8oQ54LBf3Gi5v7+IiEJpErLnsNkLcL2t5nVQM/ZRCWe46dYres88yb2tC8AccSAjhjj/HFKmbLoRB3keJrVhiovnBNKCmNBR865uzD/PD5X/7qgjkpZdeeqtSKg/frDz0yo5m3RxG1645Ho9pmrzywkH0se88lmLLEEBrej1Fr9dbTIkv11ZW9oNrxlpoGiaTCXXdQNMsuvfUobWjuvWSEUjAs7nZW3BixdwN2K2bG2V0vrM9jFpc77Nnzz78qgjkD8/xrj9pFWVVUtQeFRqszEHDtj0NQL+9DDhizn37lY+5s9FtjmAIiTaiiLug4IpJeguleJSpUW6LjcKwXT/M578L7377LiG0FBzPC7WfNneY5cg4vZ7RKRI65rZ44kTkya0riBnQFH1aBCNx4Yl0XKLWiPvv0GNheUJe9p9P3WMwmKece20CXoHLk7n9RqG1Zi6BOrRQGih60AxQtaOUl2/r+1fy8v41kasZoiQfEqa7nof4L+toKDc2qLcvgXiOrQ+Y7O5RTyesD4Y416QBQSXYXoULkVkbMDYp4S3eR5iAwNQkbqa+zzU0ryh0n2fbe/nGTsFHT56EtmVAjcKmrj2tGDIjEglFH6hozIgWePeJb3JX8yTT5iHqQpisVewFT6+JWKuY3+kOuk0MI3VxjiBwRTYAODWe0QtwxZ8CNplVU37t3Dc/DO94ZQfy0ku7jy33Sq8q5Cs7qi13xnRpg9nstTqpNFXc7/cxJglYSMx6EG9Anc45R+1q+iePMY0O5nOIFb1eDz+7vffIUd+9GY2od3bAWkb9AVuXL4APbGxsMNnZZThMuhzTes5kMkG0oSj7KG2Yty7xkFwHwXrvmU6nTKcsWHfVDSaf0poxr7geV4oUN7gHcwbhybMvnXzPPWcuXtOB/NnTz/2l7sIKMVHsL25UvCp7lkPP1dVd2dXrYtHFk/Q+iIaQ4erOtsMDiuvPYEhIuka9smKwNkL0hBhCmlO4Cc5D8vtMXVmaWif9bMQCHq1ajNSosMPIzVB7FwA46S2zacv45O2teGCOuH0H57+LMdDEy+imYM0W1KJRTYXpn+DK7pSi34NiF5qGqBQxaMJ8nQJo9G6eRejWjRw4VbrB0b2dPXYnibEXbQh5Xb3SGIrKlPwba+uU1iatmgNSxXlM4U5P0y+6adUBZL6Ys1F+4XTDPPKt517+8HvuOfNvDnsBAJ555pkPdLw0y7nCla3sqNFL1/ESY+TKlSsHFOVeHcGkR2sNg8FgwR77Rk0Sdyy+ZVkyHo+pqoqqqjAmzaYsq7ndiR/r6+tYazHGXNUlt729jVKKtm0JeXan4x1rmuaGzxcRyQhk+prv39raGsaY/bXS1UtWZ9tryiLEGPHe8+yzzz5xzRTWcw36exd2HjN6ADEgubOh03UgHmyYXuGOlR2IYORa2XOIGJTSKV/tAkLB1s6UEE8gyr5q2ipt9LTntYZ+v0J8wMfU+6+UuglZ1oxAuhqAdBTzLaiWY0PH7Ow3OXWi4F0PneTv/Mf/c072NfX3nueuk2vEeHsPEtRHHMT39TEGA8128zK+0Fwae371M1/lc3/yHOXoFK22XHETnNomtC06FvSLkqgNwbeJOCAa9kkP1cH7EgSlC2ZtS9M4kF4qkGcZ3sMpKFl6VMBgqFBKwAfE7DMQdJTxKwv7SHyJG9N1lDCSuu5CcIgo/vys/9g1HcjWFveOx+PVhV3ZTY9eDiIRxe7uLnACuYEEdOdAjOGAvsOCJfcNQCHHjh3j7/29/zVPvB3mDRwbwt3HH6BJfJC3twM5IhWJBHAOjhWnmQHVBvy9/82n+OhPw9//z36b7d0JjXgG6z2mMeLnc4K2N6xrH0JIpJl1nTXYR2le6AbrF2V5EMmwoi85UibhwoULb7mmA/n2pfpHL7YFWI8iTaTGELO2tYF4sP0iyqoGsjJQ8ZUYCTp6iUTR7SWdVEYVjCceHxUhZ7B1/vFXkqwOIaKUMCgrFKAlDRjGGI8MQFzWQzDiAIfKNRETJvT8Fdb8i/zDv/s3+Pjj0IugSyhigMtnGZUlTp+8re/f2lG3rzhqfwXalnVbUeLYGVf8yH1r/Pf/j0/yf/jPfpmvP/8yhVvHliXbbaRtIyFewdohbWJC21cKFHUVEhHRzKYt03mbahZKAfbAvVdXLcE041Eolc4ucShVQGgh6AP1kDs8xMv/TfN+3XnuupIULUonf6CoeHGLM390nkc/dBdPLd8ltra27nXOLWofKy6sld0sBLLQeshDXG3b5sV5A4qCcb9f3xhzoJ7yRiDlj3/843z0R+5d6KQ7QInCjkbQ6y1Q/+36cdQXCG1L2etT2uSIe0WPjeEaPQVVBT/3cz/H+vo6W1tbtG1LWZavOcsRY6Su630FRJEbrn0rDiOQuEAwq0zLjV37zh8AjMdj9vbGJ69CIP/+ua2/2RYn0BKR6GmbOf1+n+1Y5iixRS+hkH3OopWt7JXiGhBRuOgplEaUYt7O2N69QhsivRtoxVQCRgvikxa2a+Yoa/AhoMQcvQSiK0LTYKzHe0/hWqy1lH6PTXeR/+Sv/g2GrWdkW5qmQYq1heSrEkn6CbexzY+awtIVBkH7AXiogErSQLg18LMftPzWr2vi9DSXd0YEGVD0exTFjDr6fdbkqxZQZhQgEp2j6uhLXEC0zl18OSMlkZjha3ce6SU4u7m+xmhrwJb3+/lQp1Ai+Dt8VKFjApDunM81vSa3VxsVqesJZaExsWBW3cufvzD+2F94ZPgHVyGQ5c6YG81Rrmxlr3rAZB6s5S6sxXPcSBdWJmnXLDp9rvVaR4mwWOo67BCSMYZ77rmH0QhKmwR3uw6i2EWzq04e4rVwZL40RkGvgDNnztC2yTEvqz/eSBfe4bUjIq+p9bZTK1xakKtN+Rr3x+H9dvHixfuvQiB/fjGeqqWgkgitxxiNd+2iSqjiFBOWpj86R7PKcq3s1TZwpiwR6Q7qFDtGFYkEJHNiZeKrq2opHWWJkSw1awSJEUUkBiEeUXI2+tTRRazz77E0bUtRwn2nTjIyYGiAdpHCChGcHWJvAEG92bdHdcQ3uCUeRWSgBOvItBctwpQekTGb3HvaUmhHrRTeR7QIUU+IWkHsGMLDwUfZb7eNMRKIeCJBsrBUl0WTQ3mQJb2SVF3RSPQoAkri0vd2VRN/h2/QroaZ65GZzaHW6TrZ2GBVQEdF8IraDPjyi/OfuSpFePny5YWn8d6v+qRXdlNRSOcMvh/U8LqzpuZDqouKRWShohgB5x2+riHmsUiBJL66QugH8EfMDsR78J5AoI0tzjl6vR4xxkX968Bsxo0ixeXH1+CcD8wM3UT0ekekuA7Na4kIzz///JkDCOTPXrx4925bQamxbo4PLQqb8ohd94x3S+RlZmlCfWV3tqlXjWxiTHnn0LG4qgjGIyoScOjrCI/rrDwYleBdA84TVUQkIvro8aONbSrqRkfrWihPEMqKK+2Y71zw7AJ93ccHTwwqbYcIWhy+bTD29u7jjXLUu18jKERMGms3MxCh0ZY9IlEKnr5wgb0CZu2MUFpaiYhM0THgqK6JQDpN9oi/utAaExKRG8B+klFmCCF5/lUK61X3cVc66vRflHJIECQYolK09Hh+pz34Uy+99NJjnWJX53FWmugru6kH1dIEsDEmH9o3EMHnbkDnoG3bBTK4Wcike43lPK/WGuccFy5c4Oy5XQCK7ChSV9jqfr7SvcIY0HrBVTVO5wvT6TRNopflYqr5xpgIUg5ea31A+/yGI+gcRXvvr7keV3b9/bHMTBJCwDnH18+ePbZAIM+/8NLj2FGqa4QdSmMIwaOUXXgmvdjsK+Sxstd6QEciPndUKaztBIFeeYpblpBMiA7niuQ8JGAFPEIMRyfDs7R455EStFXM4wDQYAIXYs2/+tyXOPWXPsQD6xVONDpCcGD0HKM8kf7tfX+O+PPDXEY13uWCVx+iYk/gsod/8Vsv8d3dU1yJQyp7jLbJNa3mFKJCPoHcfujbPcaDDkQZQVsFKi7QyaudRBIT4AgRfHD76VNZQl6r+HgJ+XVKnvHAwlCSswghoE3JOHhssca5c+cefdc993xBAVy+fPnBZd73Lj+58tIruxkOZDnKXyCQ1xCIpLXIAeRxM9Gxc26x7okx5fAzb9NnPvMZnnvuORrXLILs2BE53kABvxtYe7N+3AwHJIf+2BigrmE2g3/9r/81zjlURp3M5yilsNbeUJfnYQTyWmuz3RzR6jz7PhNbuT64QCMhYIxhe3v7LgDz57Dx1G7x4fuab3M5bDC1J5iJoGwkupq+OwdAq0xiVM1cQWVI3DUrPZBVBAOgQopEJ0X6vGw1hQdjG5x37PRL6rKEvZYT/QcY1BN0WRIYE6REvCWiF9QaZfSIB/wcYww74nihiRjuIYqldltoLUcmQmhjQBU96jbpgVhJKStRLS7M+Z57J/+7/+pP+d/+x4/yjnsVbzuVOrEkjjAC7esd4r/OdtgFHj5i/XWeH9Him4Y9VRCNZSfC+RrO78F/+g/+KdvtiLmyaGbMm0swULi4kyadS0AmFB7wG+n96BleYGaTFrv2hnIcuWuwx3ETuIJnEKEidQbBHGJkT/cRoKdn6W+KEeUDQRdsz3vMrAYKxEWMMTRxmtKSd7gmeswIMqpZvt95P7thzjwZdDQYK/gwxliPqDFfe5FP/Dz8GxPgyt7eHjEm3v1uRb3WfuuVrexGwkGlNcPhMI1QhHD9WYqlDq66rlPUmiPXN6JGt76+zgsvPMU//sf/mLee7PN3/87P89a7R+y9fCH9frN2xBD+1raR6kN1qEVRPVOLhEOXeP/59I9yep7jx49zdvcSvjjOTmv5L/+7f8OXv/UitRplL3GUJZNy7x0LcqKwCdd3zDlqntXs182Ea8wkrc64Vw0Ps+yv954QPGJTfXw8nh17FrRpgQtbu/i4QeNDIhpCkNynv++p1Opir+zq8y8ecgBLB0/I3HWCSkih9VgCZ471EOVS7aEwByJ1WU5tKSAoQNFG2J04HB7t0/ffDAcSzW5G0oZAmboOYwmUNHGdmarw65u06wO+fWmHz/0//xTrHcrN0VqzI83tnaKI109BXsuRLGzWcOrk3Vy+ss181nLizBmu7J7ANxvoXprx0D7l1m10KDw61gsOtd2yu/ZL60fYn0sQjxAYDXoM+hUWA7ilFKg6cCx11bUoihgV27vQBCFGAYloQBPxSuNXelLcSE17uZBujMX5mq0rO38rwN8yTQM7OztgN5JHVvsCUqsurJXdjAhmMbWdudZOnKhAJjeMWsgRUMcW3UWTb0ROO4QAeUbEWstsuk1RFhhjmM/nqL6+vY+PG3Qgr3TSDkYjtra2KKse6JJLFy9ie0N6x47hnFvMfXzfAYoIIYQFAon5XFoIpl6lSnnwD9rZcQdnSPLfs5pzu/Hrn1Bf+twYkxzI1laSO96dwqw1OFMiGMgsp0LowscD0HWhVNVB35WPWUUwS9tWos0HUyAKuKgRBEugdQ1FrDmzCWASXQ4JYcjh15OARENUGhHL3Bm29mrEJIodFRUSjr741uqQI2yXWj5F8LREUXg0zaRhuL5O48fMmzmqssyMZqeesXb6BDI+oqp2vLUOKL6CnsY+S2t3X6/tcLZUDwrHrKjQfQNtSzuf016+AOvroGNSexSX2F5FAIvE5W4rvaQnI3lKMHd/4tFul1G5xshqNBrdXbOlDJQ5tH4CipaCC7t7NKoErdLfIJEYPEpWVE3XCZ2W9nHKRkVRREnMvbu7YyJgdnb2xVWMMammFCNxpYe+spt1SMWI5MEkrTXHj3d7XWU+LFlKYcn+4xICbpqGnZ0dREYHI+PX2cp+H+89zjm0tWitFvXB3cuXMaY64sV5k0Wc13ljV4G+nkWKgjidphpqWTI4eZLJePemDswMh0MGg3IhU3YoTL7mmoPEsJFmTorFew8hoLRZbcwb3LsheJSWBVsDwGw2IwQw566At5vMvUYVZdIBiR6NQ6m48EQBlfq8D4ckKwhyZ0PchYJZx6mTtMQlQhCPqALn5hStQonjpJ1z7yaEqFCyXFdzOX7UB6LjoNMA3+685OJOjaNHkIC9SevusnloEXGp6EFCZiSNqOgotGI83qHsFygVmI53QYS1E5vM53PM/CZdwDdramvB1nrt7d6bP09dJx6xzc1Nrlx5Gc4/z0ApgjIgOmkKYfDKZLRh9lNJzmM9RHGLcybK/u83oaZvtjk5epCTa1BA5kDrXkIv4Y5981IwUfDS1oSxNxAVSoHC44MnmAJPwKwC5Wsij8VnWghNEvXyRGoX0NriMpGyGo+bhDyc288v38RJ35Xd4Q4m57C7Ce+yLBkO9iPB6/98Wo5t65jmKLebDXgj1ud0OqUsS7z3NE3D5smTKGvZ3dk5cn7/dolAX+0DYDQa4b1faJaXZZmIL29Gk0PuwkoIZH/d3EgDVYywu7u7iJqX18xqLuTG92+XOej8g9Z6UYcy57dbxq7E9DapnQABayyhmWJNmuRM0aDkDgl1KEJZXeQ72bp1EHULUSNRoaMiSjpMvBak7IGfMmzH/PDjd2NbUEvU6Gkd1TlwSf38YRFJwizA3txweQzRKELbUhRVEhiS13YQLg+jxRih2F7wk4RIys2LIDGgRdAIeIWiAPrMr0DJCTrxtqPqadxqBNLpQbxSMb0oKpxzBOcXB0lHdeS9x4ZNZjPAHmfeeFCBtnHo6BPL2YLTqrufKXRNv9fQKpUYdvPESZCUWupYvgtmHBtGRpWjUhDmUJSKSMR5jxaFKIUBJtMZZV/hvaNVwl6EZy/NcMHmjnGFr6cYrWmj5I67O5uNV+KrN0kQImjFrKkx1hBDoG09PgqtB1PX9VW61YfziCtb2fdrHQeRUoroI2fOnEHrpVz6dRyAz4PhW1tb+9oES9Ox1z0gMx281nrhRBZMuzFCYRPM6ablD3i1lc1niRxR5eaatmlABGMMZVkSXucuZqUU/X6fY8eOZW2PdH8iKRhYvlfGmJQEUwotMJum2lmHdA8j16RQuLrHRzFzZSrUDGilB1EhRIgBGwMSwkLpa7nhRcXEt59Mr67inRzBdDUy5RJLrTc5OZq+3sYUtRYhMGon/NDDFRsxIQw5wKia0IQOCXWIpCnoNsA4wrMv7dAwJHa1Tx+QEPPc0vUh+GEk0kXTRbN7QNNGlhXyos7r3uAFvERifscdA4OJRy0U3+o02KFBQg5qkmuVaEQk0xt5p/JQmUsfJueVooJoQBw6JrJ7FUAtRr2XFAMXw5MtZDbesJin0XQ9VSpAqXc5tTHkgbt72ACmk9IVj1ZJS92HiNJCafdT7y3w/GW4XFvmYb6454aAzgrfq0ah6yPTKCGveclrQxFRRDFEAbO7u3tgU3VDIwtN9FWKamVHtG59lWXJAw88sKhr3EgrvlLQtvDiiy8eUKQ7rFPwStYpay6zsXacXFrrV8xgLGqBd3gdsGNfjU2LKIVWFmMMIYQ3pA02xsixY8c4dWrjQN0jhIBWOq+l9IQShXOJa8sreOmly8xms4PnGfucTiumjZuAQLbGjlZ6RCkJOe8rLqDE0/mPFG0d6sJaIZCVAYqleSABfJkjmFy4VAUhRoxz3HNqyH3DBskdOTrjFxUA1S4QgMqIt0Mpu9PA2ZfnOKUJ5CFCn1MY14kileoi5rCofyynslRYw3P1xHXIUXLMxQEvAQgJaVEvXr9oj9gOGm/1LILbRxBd5BlNYryNmqoq8V5onCMEwUWQEInKIFooeTFHqgrQaeYjGloBFq2yr3xGWJfvv8k1kHT3UTGgI1jVcM/JiuMD0G1eYzEzxKJTNIzKKykmx6I1c+CFC1fYa+2CwmR/vs2nF1k5kMV9f205h4TgAmAmk8lVHS0r5LGym5biEiFk7YdHH31b4iJiuRvmQLh5IMrsVOcuXbrE9vY2YA+sUVmMI7+ydc6jY3QVEZxzCz0KHdVi/YvI4tW69Ma+At6CX/xqpHK0HXyrT5ADf1fs7kN+nOztoW0PWxSIGFwunhNCaqx5nQe6R6NRqpt1b1GutcYghoCojutK4TxcuHCBpmmQXGjvurGudR9X9n0ikGnjCSoxoYYYU1QYHVogxJiVhQ97oJWt7BASlRTNqEXsEZYiWkehhfe+6zFMmFLqiojBLWcRulzSIZrxaQsvXniZ8cQTi95rbjMPh4gXu9RLVwQezr6S6Rp01r9JETQIyqdiTQIhMddKUmTcMTHURx1Iu8WT6B3yy1Uh9isF+dEqvBvj24RIRCuUFAQJxKAZm3Lp+zVqUQs5+Lft10R8un4Z+dQqzfuIuAOIrEOip06t8+ADJ9OrLwFOpYVIIPjMqh88RMlII7A3hZfOX2LuBCQV1fHpNFN0HaUGaFZbmFdrBuzCuGUt+f35LbOsA304clzNgazsyPFt5pIy1vDAAyUhjNMsGeB8ErB7Navrlq2trTRzUSyFnDcYuXf1js55dFFoVVVsbGzw1/7yL6TvEYNSeXZhyYHEGO9sB6IUzz37At986ltcePkywXuUYV/f3JSv69vb3NzkxInhVbf9mgi2S8o5x3hc5yn0TbQyV59l3brwqz16JARyaXebqAUJuxgVUgCgI3ti0kbPF96GluWOkblRSznLld22B/wRf74pUj2gnG2k11O7RKDJB2sVWwbzK7z3LQWPHIORrdBtA22B1hq4BBLZldMEYIPE3oq6iImRC/oU//LrVxif/gCT7W2qZhsVIqawNI3H29QFVMQJRayRvEadlDRS0gQLxqCoqcKEY+osx9UV/qcf/QAff2KNDz5616tfn+ukOuQWX/+jWplz4D7XrmLmrQpqN3GDUfHkdwJXPvoR/tv/8ff48re2mas+896AqZ9eNcmdHGtzoLNt8bfm83r5zK5EM5vNQJpUo1r8YMOwLHjsvnWOV4ENdhPKYA3GnvlGhQKmPtI3glIv47xD60221DpffPYKW+4MRehBAB88ogtmqpNWDuDnuCOSKt7uIbbOyN/n/TpLJSj68/R5IxPEalpNmgmZVZyUilhA0GCuNZF5WCd6ZSs70iFVlrzvfe+lLMFFl0qqRkProFQQfS6BsmjcSAOrgcuXd9nd3V1MOWutCb5dFMWva9YmrrfGL4qpn/rUp/ipT76X+zaun8K/3h643R2IkoNXIEh37dUiEfnYww9yuYW//Jc/xUw9yVe+c575fE5VVbgwO9Lvd84lhoJej6Zp9mtTGX3cdddd2OX3mNv38jlHVaa6lUJR6QqHEAg89dRT7O3tAb3VBjyCFUVBExw4jyoH9IZD9Dwyn8+pGzCq1YtIS11joPC6EZiar67ybWz2iAUtPT+RF0KK/OdqRJD9nGoZXmS92OF9j91HAbRuHZ/E5nCFYZ0SgkfpdGRF3Z1dI+qm5tnv7bG762nbcWJUVT0iARcDSqdoOZlP3VS548eTFDTFB6w2RAL9MOP9jz3Az3z0vbztBCS5ozu9opc5yJRN8xUZKihJ8xlt27JmHUNj6L8X5runuXTpSdTOHtOwDpw40m/3uWAfpE/tIiIRpYQy1Dx8zPHOB44zgDwclO4pKTlCCJFeDIhvUEUJMRJkg1kNz3x3RmMts7iz7ywj6KycqUjnVumPdv/b2zwBUzkDUe9nUpWgIxSuXZzvlTWMvUfqPayLGC9YMQyKjEAOO4rXgkBWKOX2tqPevn29iP01c1jM8syZMxw/PkzcOSZNlofOT+Qid1eWixFiiIiKTKdTvvOd76Rcu0qdNDH6RR//jXQLxiUeLhx8/OMf5/RpmAboxUh5nRLED3oKS1jqMotXd6EBeOeonUGX8MQTp/n0F+5hq32BvZk/chd/URRMp9PFxHhR6AVqvffeezl9MlP9xwhKJ2qCQ6gp0eIoppNdXNnwwguBS5cu4Zw9UKORV1ivt3L/3Pr9nwUEl67L8nVyzlFVJSoq6rrG+Bate4gXmnaJRn/5Qr7Sv69lJq4cyO1szRFrwDZH8L48RxBo6LSUwXrox+/w8Q98mIdGU9ZUHxMiPnp22EuqcqECykVvR2Muo1BENnlpdppvPPUlnDuJ6TU4B3OnMVKBnuAJRFXnSDYs1AsBnFiIQqUNvmkwsebuYeBt9xSc1FDNzjPoDSEMrrPBXt8Q85bvnrx/nfJ4MYs0Yul7aA82JM3xtcpRisatCw/eL3zr3ISKNSZHbGLqJGZdHKKKCq0itp7wyLrih9/a526gF1u8WLQyeK2JKh1cIi6ppooG1ijKHtiCb377GWaxQfoB2INYIkFjXEnhq1SfkbRupvZod8De5kX4eTnHS94vAGqGDhB0QiBBTWjVnLmpwQpBhJnUTGeKFwXM4WnS5YnNG9sAq6be29mOqsnUrZ8QQn6t/HniJ6QsS971rncxKBNJonMOYwwWm5JOOUDxIbNheI/WGk/g0qVdXnzxRUI40f0yfIxYU7ymo9c5h7KK++67D5+D5kFvQIgedacj6Gv8/QsEKUtfCAFRycGcOXOGEL5xU7IP83maHA8CWhvaeorynjNn7uOtbz2xQIHL9a7u1ypRKAHXtgndWsteA1//+te5cuUK46IHfQMxEIMsWriTsFS3bo+6/m/z/d/t24WgVyCEJaZsBXVdQyGUVUU7bpm6lrXCcsyAeZf+R0dbf7FYncK3sZVHjCDHPJiQaPu9HPkbiCXBp83/yfd9kMeHmwxrUrrdW9Aw6g1zfgTQoJ0HGwm6ZUbk5bHiD57e5cr0LkJlgTmiBOI6TjQS9tJgYO7piYBTWaM9akJWRiS0VCpQxoaBDgxUGkdUtLj5FNVbv04K69X/fn+b+x8Tyvx3BJLivFkc0oUCFQy4OXX0eBNpKcFuslc+zO7lhqMqwzrnKMuSmfeAwQTHPYOa9z/U5x0bsBGn6e6KoY12oQOifY1WiiiWKBZTR2iF8Yvf4tjOZ3lH71vsmsC46UMYYLym8GBjvQy8kGZ6pPdf3+a6VMW8JOk+5j9EAjrkfQSgG5xzFKFENYq9rTmjXp/Szbl75zzmF37hF15h48QFxFw5kB9gB+JukgMx13YgP/Tww4xGer930wJNVkuWVA/Rej+iTIs5srVV89RTT2GMyUy6DmNsotnoaEiUui4QUUpRmhI32+bChQusrcHexDHqB0yvf10Hcb0g+7bHL0uT9ss6pIt5TaVAa8peyR4tBrhy5QrW5ht51AOsKKiqiul0h6gUZVly6lSfBx54gNLkK9yhVO/RJtVEum6t7i1SSGYnET70oQ9xv3uMPRtpzearOxC5wx1Ie2MORHSmBKo1Z07fxcsvPc2x9WOY//T0v7zOBrpOG6NfSUPezna9DXC9+x9lQmkDej5JeL4wNG3DlnkYM/ogx+49hgoF6K7WMAEDIgZUj6BsmhJ2NUYrxnrAGMX5UPJHT48Zyzp1BGROwBH9MDssc6iInucZJHG2xTzo1zQto2Gf6WzC3sTy7efGvPWJIXscZ0hEpIVMz6GN2Wd47E7Q6zgYrW7zNhyX3n+pZ4mynQYwWG2TY48elHBpZxe1fpwJ8M2nthlvnQDXh2LviCnUlvHejEFpKMVRzM/zts27+fH3jbDNHExWKlQV2phFwrw0+5xrbWjRfg7TF7g3/ms2HvgCrjyfUpfh0XRQ+oAKESmeQUSotYYwoKiPX8e/xtc1ALvVNuvtJVqgqAADGZFG6chKFcp3fLyGEAV0n0l/jc1pzZFP/1UX1u1tN+P2hRDQXc40PxpjqKoKpXUuch6kCUeprCsBsxlUvQrn51htmbLHl770XBKMOqJprRdoZXd3l29+85s8fv8HuPdkYDyZUCqw1qKLjKSXuLPkgHDJKxwwtzkluCx1YUYhkVUSCAQkQKjnmKpic32THeCLX9ri7NmztO29FEXBUc9PlREOpJbhu48f54knnsBKp+/RXvf6L84g5whL6oNKKY5aor1uAP0D0YUF0rGhLndjibzi8u9+ztS9raO9Ab3ikvlBTmFdt6HCF+hW52yGBS8U0TIablL07qWO9+N1LzHrApo+yZ2kA9trqHVLT2nEKWZUXNyu+PSfPMnYVrTS4iWRtQYFPutGSG5c76TYryLzyWy6LjbUbaAarHNl3vCbf/wM1cZpfuon7ufBwVruGcs1FO8Ag7EprvLx+sOKR62h3mr301HJaFkDHD4f2ILHK8VUK3xjCKXwzAX493/yHONt6E+mzAydnMf3bT5OsSZgvWPUjHnv3Rt87H2nKJmhlIFgF4GHJixqXoiGoLmIRpTllJmD+i5z+S6G8/TDNuIDzGsk5BRqjOn1RDBqI13/nHr9fh3I7DafU5SYNFa0I83YxLQjnGny/tdIUBQBBEsrkcY4ZvIWUMePjkBWqoW3tx319nWa56oLx3K/ftnrQb+/ACUhBzedjE/I2ac2QL+yi6O48fD887ucPXsWZTaOfsKK0LYtg1JjioIXXniB3/7t36ayn6D4oQfpD6cURbGQaV12GN2U9KsfgEd7g7e6C95kha4QAkEl5BETTSFETa/o4RCevzTjV37lj/h3/+4LhP5DDIf343yN42iDxCGEBWX+2toa73znOzmxDq1rr0+UtoRpvfe4uk4F3y6IVurIy+d659vtfvwJstBTOfx3X0uM7cC3iWCG9RERhNSrU/g2tqCOBuFfHoxwTcmgiCiGtGENsW/FjN6PtW9nkqkkDJECMJ2WhtQEFLVEhAGqrYlB0QT47O9d4ZLaTHMidpJ+3muUNwQ1BzTaZ9bXrmQhLqEOFVgaU6SoLG5Ws+VgZO8mjAZ8+aUpz//aN/n817f5X/6V93L6NBwfAoVmngQ50QrEFtdFGLd9/JQDfI1ChwKRghjJCoxweQL/8le+zhf/7Lu8dLFG3fVBZrOG3Z1vsbZ5gtkRIZixEdodNpzn8ftO84n3nGED8OII1AQ1RAdQsQXxqLx+YkiMBhXbCE/jyy9Q28+jel/ChUhQgmghDL+LDgbjIcZOO8QwMwlpjXxzJAcyvM2JONoyKYGa0NH6d9xYaYJfB4tRMal/KkGriCoMrn0U7IxVBXxlR0Ygi+lzkuZGbzBA9/s45ADXlCz9L2aK6EJZmtjQ05oYYPsK/PEf/zG2XKdt2yNTdXrvsdbSNjVN0zDsVfjgOH/+PPXWS3zvS/+K0WhEv98nhJD1I2TR/XVAQ+IHMYDIo+QGQQdIuUiHF4+TyMQZpm2PhnW2tx39oUVEL4S6Un3r+7fudYbDIe94xzt48P4qCRVpQ+tb9A28fEuLn0xoZjMGHFRVXdn3h7Kuef0Of58IJuqjhVCetdUduI3turf/Os+fnjyfenFVHzjOXB6kKh4CeQIdCqxqiMQ0sRsF4ii9rIZaIMqMVuaIDIkRfvezcy5va5p7KgKWqHfSwRbXEqqQpL2uYpo0jxlCeR0gJiU7AJ+LI94JyvaQos+0jdROU1ZrhCpyJcCsuou2bWm2mgVBYyc8dSPp2SNun1teA+m68Mq2h/VQBAd4nGpoNdSmT7QnaPwanIBdP0eZOUFtofszmA2P9Pudn9LrR9718D18+F33cRxwTPJcT1zM91QRiG6R8fCZ2n1zOoDxOuy+gN9u0eqBlCt1Q7CGUD4FahulmkSD4k6DeLS+nD3oseukeK7z/m93MvJWp7/RhVwjWgclCXFAmu4NEUKnMOoIGBzrwDrmum2aqxrHyl41hA1ZKjQfqFpDVUGWED0QvcSrAxovHo0meE/TeH7rtz7LYDBI3TQ3oUVWG0PbtlhbIlbh6ppWRZTRzGZzvM8pMmMWrcHOuf1OrNeZjffWI8j9jiUVE6stxCz/C03ToHWAuqZYX6fZ2qHoF7SxSBxlNwEhrm2u8fa3v51HHtE0bUBMRIlQyPVTiIQATcNsNkPaFl3Jfi1uZTeUQTi0GA5+PXJgf1+Vgox2k+l0SlVtIT4Q5/egjSEyAanxuc87utN5w3h0dEiOBPRK+/b2XkBd37eKeOWI4jPDrUPH3GbpFMGnIT9RqeDsiOnDnaAc9GjbERIepXfqYzD8AFO1lpNU6YC2oiAWCycyVjMikXUUzgcu6opf/doV/mTyXab9hxEp0Urj2nuzNvoUHaF0ici7zbWOKIeoeHLXjln6sgZoawQoTErTxAC2gshmCsQCtM014EG8Xvrkdo9A0584B+aKRFgIQB8iWA00Uwo1hb3LFBaSJthmvrjjHAx0cz45Ug09tC+Jvo9FoavLuLBFzTa6Koj+IerZjIfLgreblr/2sYpTCkyrCJMKGSrmBBpaDJaZt5TRomyij2/CNoUpwP4PEL6CYwc1FOZ6F6tm6IGH1qO8hXYTYiZVzN16yiXkFOVoNWB9m9/+Jv/9ukwDlTH4A6lNHW1q9ZbsBzAoP8C6CC6iVnnClV0PgXb50EVEvvRva20a2FKK3mgEZbnQ1JZrhrvL0btkESCN9/Drv/7rlGW56Ipyk8nqBtzm1tU46rrO0+v7/FedKuBP//RPc3x9kEaINKjS0LoWhcrzCYfBaGJXjkSYTAhNc2CNdvB2lT15/c2gSpCWKCpf/BzZxcTLTzycRgiZeGulRPiDscNzVwsFKhi8UhAtIjUSQIKk6dRQ5T7cCNRos502sAyY1+uo/uNUmx8G8zFi6FF2GSiVIsaoLSDEkAYHerk7a656tMDvf/USf/r08xTH386uh+AaKEtUDGg8Otc2opDoTFZxz5skhTk4mMqL3SSzwxkHZoyzjtgETBhShgLbzhjYLfpykR95R8HPfnQ9Fb+B0IAqQLsCpQWR7RQJqxExGpicBA1lcQnik7D7InV9BeIcvdyB51XK40txkP5dAHHExdzQnb6Q1DIwgxjwBy5XIEo8SJorIf2ARBSHCoYrRLKya+e6lnLLMab+/Rzlaa0ZDocwGuXax7XLF8LVWiEA8wC/9mu/xvr6OrPZbMEE2kWsK7uN/UtuTLDW0jQNxpg0we4cd999N5/61KeoBOq8ZtrWgQNdCG3rljr22J+MzsIx88mE+WyWuJqWBPBCWDGEv4EIZCNjjpdTgCk+36B0aKjYSVvmm5K7YBbIZOVvbu8UVUYgiUvd7E94R5uikpD4cNLzKVTxKhBiTLMC7jRS/igy+hjIh5iJIiroRyC0EAyIEHWFo1zQxxc+BYuXLfzuN+CPnrpCsXEvl3dqqmMllbLMpxOsiaiYvxkIssR5BQtksrJb5SH6+XAfH0AgTjcEVYMZQ4yo8l7a7QnDqKlmBdXwHL/wwXfxM495hPPEeCrd08okxt0ARTDABIdDMKDWUkqrAfyTFDu/j4vnMbKLKI+hxQeHihq0SXxOaBL5Wn67GaUElWo1OtzpQYq6ConpAG5B8eAT2ljKAARp89yVSwjkYKC58ggrO4Q8lh6XkapSiqqqGGxsLKbOXwl9HHBa3X9imjz/9V//DUII7O3tsba2llg/Q7j9iYZWlhbDEj9ahxbe+ta38olP/OiizlEoxXTmKYosPzKPuUIdFyhEkPQ1B4zHTKfTA2txeX2u1s4bhUBkg4AjICiEoBxaUitfGhLSy9s+TftGuP37D1Z20FHUadI36oREMCnolzrVMdQOxIijIrCOiicI/l5k9GPo4Qchvh0nCmVzLptJim3ajQVHm5Zuwjgw0YaI4l9/MfA7X78C/QeYN8JgcAo/mdNMp/QHA5wbo3BLgjeKoJaao1Z10lu8btoDcWyQOumxoCD2MgINuHbMhggjdnn3gwX/s098gHdtQtXUmKKkBjwtjSR9bkuTNND9GlprAgXQQjWF6Xdh8gV67nlgFyMzVBpmYCHPGjNqzmLJcfH+AhCv6t67Y/17fIVoryuK5Ou1YH2Tg2hFrTz1yl4bIJHFsJ0xBru2luY+SIFmt5peaYJ7oTsRIzHCL//yLy9eU0TY3d2lzJ1cP+hT4HdGiisgRUHMyMNay2OPPcbHPnwvDjBFtVgVg16Fy+eW7uVuvoxeFrWQGAl1zXw+XyCOZdSx3Im1qoW8EQjEnsb7BokarQ3ezZGYOmbwCtEqe5rc3x3zKRG6vurVJr+trRMEU7MU4VECIc2HCGDmhLiLFA1SGGaTAbPZSUbVB+kd/whu8AjCEB0UhURgRgBa06OmSOp/gfSaeGaTbfRgjT3R/NeffppvXrR4MyREBVYTMdTzlrKwEDwqr69M13hkCd6V3Vxr3BV6vR46KNq2RYygdcD7Ct8aCnsMt1dzvD/Db32ZD7z/BH/3P3w7PQfrEQhZj6MEn5GBwxN0nRj/3SZMgMKh7DaBX2cSvoBpL6L0mCg7CX34RURMJ+yulSXmbEpckmxddZFeDTSyN05OW8mhGCCgjIG6xvT7RBQuKBCbEMiq7rGyVwwglxhq67omxshwOKS3vg693qJPfx/Jyv7XMipBoJ3NwHtGgxEOx7lze/zmb/7m6gLf5jYYDAghUNf1onbVaZhrramnU0SE+XzOo48+yl//63+dEKA0iQGnq4XFZXTaaSPGuJA8FqXwvmE6ndI0iXbGe7+6AW90vJkRX3cmGOQ4IY6JSlGgUOIRccTcnSAhkeXse3C3yH6t7AchAukGr3KRvDv4c2jiFFi9xjwOGDtPUG9nY+3DUP016PWo0QhCjzo7EZOmwXOdotaJ8VebKRHFDn0uhQG/+G+f4s/OHsMf66efye2ZByIicQvksT/3YSDqVQXuTXOiNATfgBlijcGHGa13aD/DNjNGQThBj43BFv/RT36IH3tYUcWtNM2sy8VxokOCqhEP1LQ0iEoUTEYD4TJ6/nlofgkTx4haQ0WFii7nTVUiWOveFiojjSXkQZITIKqEeFd2rZAxBYGLrGAuYIohqkAMGpRBqwqCSV1YXf55ZSs7bCpzWsUYMcYwGo0o19YWE+dXIxAOOCLdCRCi8DnP8Cd/8m1+//d/n/X19dUFvt1TWHkK3FqbFQQ5gEA6ZuOf+Imf4CMfeQ8tLVZs4tG60TM8AnXNZHeXyWSyWIurM+sNCjLz/Fc3L9jd7xTOqRHIkIgmCETtMEEQKRYpifTfeDBpthoF/gFZHXVGmr004Z03dVCJI8eHTSbtECd3Y/rvpBi8D6rH8dLDuUiZ10GQWU5elUSg9CkDIcbhge3QZ1tZzk0M/9WvP8VleZhpdFlS1SFRZWbbsI94I7jMzRQWmCN932oZvjnM0AOBxitC6wmxwBihFxtG+jL9cIkPPXyG/9Vf+BD3WVCsEWKgqJIcrioTuUERgWDyujOLDIfpX4R6C+rPUYz/gJHfplQGYTMhjGgOnFOx80qyNMew/3TS/o4avfi+VQ134aTj1cKexAwuci46RkX0BcYMIZbXRiArz76yxfrJkUdVVaxvbmLW1kCbjE4Oo46uw2pRj8NncrZSlUQiv/Irn+fs2bM451ZdVj8gCFUplRiMs/ZKCIHpdErbtrz73e/m53/+5zlxDHw+05Wo1/ILYD5nvrdHXe+L161qIG/c/s8XPA0E58+LPLBjkB5J2FiRunCu1/q2ao37wbK8KcOJ/YUCoFu8guiHlOZ9lL0fBv1jEO8mRJiqGSgYZVHoWa9zBokcsWgKCEkkKijFjlV87kuOf/6Zi7jB29jZu0x/fZ3o232E21FtASEKXu1Pni+YizJE6r7Pr2KdW2q+0VjTA2lAW8SUhBn0Ksd7HxryC39lnY+/I2LGuyhrCXUPVUFdALRElSbYVZPYfVXOeSbuNKB9jrr+HWL9qwxig7THUou31AdnEjokIsvnlF8gDFn+HlgwLsQ7HIGo685RpRS2BEArQtRENNb2Fl1Yf1VE/usV6ljZNVMUxlAOh9DVPULqnllMBl8TDceFHoNkhPu9F2t++Zd/GYCdnR2q0WjVp/8DYJ1uSg5XF6jggQce4Kd/+qd5/B2PEwioMrX9qwpiPvtrVy91XLFov+2YdGOMTKdT9vb2mM1m3YJcRMZar1op3igEcpjZWCn1v0fkkxJjZHr2qw/P6p/99jFvkO0+mAqsom0jmFQLsXIxr5geRE2bnblZnQG39gaHUY6wsia4NDn9G/cDseXgQHU54Rx5+ftTmkB/G1xSo4taMQ3vYhLfSv/uH0GPfghdnQAGEIUiVvtgNQ/7OptSFE5mWFEUBObzGVId4+wM/vN/9jU+/ScvciGWtG2N3ujjm4aiWY2S31IEIWkjFyHpv+jQfb3Ao5nlHLi2JrXoNnv0FfQl0LYzxj2XIlRVEkJgECa893TFf/BTj/O3fvxhhrrJkb7gMYuww+Tb3sQrKGUzXvBoelgUEs7C/EtMXvoNeuFZlLuc0LFP7L++8Glo0K/SoEe7/+lGmLafD/TtBPxUcvjWRJrpjIKNRGDZHzM2kWPHfm1Nbb5tT2Vv4g54mRUa+cGxG1CcbOs6OY+iAGPw3qO15tixYwyHQ8qyPKDNsMgnRaBObZR1E2gah5WUephOJ1RVhQ/w2c8+zde+9jWm0ynWWvRggK/r/XTZyt601uv1kjZL2y66b7ruKq31okbW7/ex1rK2tsYnPvEJfuInHr6hY8Qqu49aSVNEPniayYT5zs5iruRaa3ql9/HGIBBZotA+rNRpALQpxjDAOxAliFpq2zqYm7ghlbaVvXGmYhZdUi1RObzyoBMFHbFCsIkh1efupRCTNjQBcIh9BisBr4aEeJJZPEar7qMcvItq/b2g7kOxgcLiY8DFFqcbog4EAqHtU2kY+DqjmhTRTsoT7AG/9y3PP/3db/D01pzGVsT5Dras8POGajhMuh8ru3UOIot6txqc9vjcfadDiwqGsvHoJnU7WatoCss0zNlVDoxQlusw2aG39W0+cM+In/2xd/OzP7LJPSqtsBnF/lrFYwkoluczKhQa8VndVF8A9zXq+Zdp519JTL3eE8M6EtuUtJcWIae0KFc38aZ6DMVylLhwIJmdPfg+ogpQZkZOQGCMmXf9/qtayA8qEJFrhRfpsSjQWtO2LUqphDxOnoReL1OjBmII+9HH0rS5tTCf538UBfNxou+2Gr7z3JTf/M3f5IUXXljMCXR648sdHSt781rTNIuZjphrHDFTLkvW9VBKcc899/DJT36Sn/mZxzmxCZPZa4tylcpqlW3LPDPtNk2z+H2rtXLrEIhSKvfkCyGENIOz9ha3QCCy8ciY7XvxcTuzsgZC0MkZiV/ED+kVD7HzrgRBbrFn2M3/0Eg0EEq8mNy9pDP8DCgJRCI6BkTFRQAYfCJMncdHqItH0WvvwW38MKZ3muiL5Ch8ckAWTas9nsiciCdiAG+gF9usoT0kxh5fOQf/3edf4N88C7PB/fiQVM16pUaLQwVN2J11IuUru0XmddK6DqpI+CD28jMOhccUNYVpaV1N3TRAH6MLvBi0WDZn5/jAW9b5mz/1OJ964i5OqDl4wfdKmrjfJVcxx+Ag+hQ8SAmUeAdGAbEF/yLMfodi8gfg/wxNILgi1U+U4FEos4UKERXsSpnyppwfh9PIC17l7EAELSY1QkgfHw2FPLD47sXutdYudIo7xTkxepWt+gGKJK4BS9JR4RymNAyPnYCNU6B7GbEKopaEwyRNlDsSJXskUrcwtCRhjxjR5YDLWw2///tP8oUvfJ3dSclouMnu3jhFsrbITKr9pIW+ujW3xbrpshPaGGofoJnjvOfxxx/nZz/2bj78Ac1QIDZhsWZuJJmx+J4QYDxmPt6hnU5SmipczdO3QiK34P6Lyo95VLgsr3YgxHd+x8ufPRx1DURCjFgE123xqFe1jzejhZMZgNQQPYYaE+uEDWJJJEVqPqcxGzMDqYk61U7m/v1o806qtXfA8N2g344XaHGgA4YJGhCqNMHrFSoWoApEBbyeYrA0xRDfwPkx/OqXdvjVL13k23vrBFOxJ31i2eKjMPWR2EJlNEYbxrSre3gLbWYS4lABdASbp/2CgiCaCZpaGcQarPYM2Gat3WNjbcQTD97Df/jJk7z/nZqeQDOvsVVFJLIz3WPUH1HRYqJP6pQAYkEqpjnSHUgEfwnmf0SYfBEz/x2qdpIcSghEtYZX4M0lkBolLTGANKfzCba3uolHO0AOeQybuzlTd1ua49I4HFopoh8gPP5LVzkQpZRTS1JyB/q7V3ZbRxCvdhd7vR7lxklYOwleE9oWCotCLVBGiCn1RcxUBikYQaFQyjJrZpSFRSl48smX+Nzn/oAXXtihGJyhMQWhzkSLPhCCMBoOUaFIinK9VS//mzrDYUzOge+j1X5Z8sQTT/C3f+5R3nUcKr2fxWhcQ2EKRv1RSnvcyC9pGuZ7e8x3d7GhxigFooneI0ohEq8DX1b2RiHR3H3nrnIg/eF7/8mll5//v9vy5UQxoQtcjIjkiU7MCoG8CW1e7gBQuCEqDsEJhIjEbWALrbdAK6It8GaNubuH2r8FK2eQ6iFG9z9B9GeQsAFqA5WzCUo1KGoCNYjG4RGv0SqJ0BWzGioDqqZXGC4Cv/3n8Iv/v/N8+cU+0j+JJ6J9Ev7xCOgSr4SJMxTeo22JY9XHfyutJ2eYTaeI3kVsjVeTlM7WBbOxR+ijsZjaMai3efd9hp/76KP8xI/ezaOnWlSo03CpqnBaAyUNUDLPOjAaWkUTBqhC0bGY9GKdOwj/nDD997TTP6BUZ+nFCTQBmuOIGoGaIboGqVNKNfbB9fa5clbxx01GIJ1LyPM7WELU6NJQuwYfH4P+W//t1SksrRedWEqpfVKylb2pTS3yzftCOgciNGNApy6aNvMHaa3Z3NyEzXtAmSQdir5mi3bXbaVF42NKP0kkdV2xnxf90ycv8+u//iW+970JVTWijilazWMhK3uTWscv1XFaeR/T1Lf2KNPHiGW2N2Gj1Hzwgx/kL334rXzoHZa7NiDGG2jBdg5MSSEKD4RIQhQxEtuW+e5lmr09XNOgYthft0uzB9fMhORa7cpeZwSaZz5S1kEw2hxAfkstMA/+rnAvbfwapTb74DNrHuPVK3iuVQhwK81Lm+FlD02T9OxjBJ26XbADmuiYNRsE/Ri6/wGK/o9C+VFQ0FDn4niJTg1babg8WpCCSMAHj1clC4Lmbsi9dcxkwO9/Y4d/9tlv8VtP77ETToIpkeiolKB96udsxRIEPAWtBlbI401h5eQ51tbWaK1lrwXPEFUYStUycGPizrM8crzHx973MD/34ft5zyOWgc3NOyKwGARMqqWWGoVfMCf6OAClmKRmPirm9Hgp65o/SZj8Hro5hwpjCjTEY+lsMW16fX0RUYJ1Awh9yMwL0Z7L6dlidROP5CEO6qUQJdVBmCwcSAwqfVkptL0XwkOfuRYCaYui+GJowwfEJK8TQlg16b7ZAejSZOgiUuuiN6UITUM0Qq/Xoxgdh9HdUJy8Pm/mUpThvV/oesSO8lnS7/7GN57mNz79Rf70z7cx5kzqCXYOXWhCW6/Cize7AylLnHPszmY4CZi1YUqNzudoN+f97343P/G+R/mpHznJ20+muGQ2C1gN9gbObm0tLrfzhhzF4h3s7jK7cola1ZgY0EqhRe/3/d4AK8YCda/sdbWuAyuvl19C5OoaCNUT3zL2i/++aeMHoiQ21BAFJYkjh7ia+HwzWlE/lKKEYgtndgjlHEfEc5zgHqOu76fXe5y10ftgcD+oPngIxQwRocgRnKNNP5dGS7Gd7karKCXVv2oP2wFUAXut4qkLPX7x313hq88O2Q46d35dQZsSqyyz+TSxdgJdJqtVDUGgzWRIZkWne2sDUHsFlGJdlyloHL8Me3s8dHfFjz1+hp//1Ht46KRwajQhOk8IUPTW0npwanFjDQ5NjSzEyUvA4PPBM2IXIxfBfwt2vgHjr1P4b1GF3Yyk10ApvHZJeKzcxkRBRQMBVJO105UjCDidUm/GrXKkR3QPS49L4V5uXAhRJVYL0jBnad7yGcq37V0jhQVlr7fdztKE8Iop9TaKDjISiRLS5tMqz1xYNk/eC8UpKEep3nH4Z2PXthkWy0iWl1UE0enROU+/0rTA00+/xK989sv86Z+eo62Oo5Ri1jTY3pAQYDadUlbVvgjEyt6U1rYtVVURQmQ+n7PWr3j8scf4yQ+/k489YXlgBAMghD2ErAOxBA7iDR5PCoX3Dre9TX35EsV0SmU13oVMmRTzGt5HF8KhOkdMWjOr7qtbcMZ096Esx8vPHTxRytNfVSax1bgYKJVZWiAHJxRX9iZBIOpZEKEOPdp4L606DuYRdPUwsXwETryHEEY0PnVXGQtaB2BCjA4zPwECtqqZC8yJQItlSClgVaLcleAxNnLOw5eeafkff/95PvOVOXvlD4PS2PASA71HyRbzZs4kDLDVSeqQIsS+rwGHUONV4l4iGvCrJNettKZ4mEndsqlf4L33RD75/uP8lQ+f4J33B8TPaKctRleYYgQ61TEaP0WrGmMMgVST0LlT05FYfGvRGXm29PxFaL4BV/4UvfNniHuaur9LNIbe5axHZAytgqZ3AdENQoOPUM4fQFpN+s0R0VuIElrKxPO2spvsLdTVacL86LWAPf3lV3YgRTHWWi98xFVkiit781nWRzDKELGYoocdrGE2TkJ5FzQtyoJVmQ07gOjUImHE7Et9iixEQbv/xmUYojUEx7e+9QL/6lf/gM9//QVU9RCUFeztoUuNVZbJZJeyLFmr1ti6vIOtTqzu0ZvYvPesra3xyR/9JH/9x+/h3ffB8QhQY7TB9PMgataBwUBhCgSPj/66YECQ1Im1s0Nz+TKhnmB6qSuwaRp60k/fJXLgtRLvVjiAPg6i7hUKeSNs2YEIAsbMDzx/mBrg5fOfiIOJZ7BbIW0A5UBNaHuZMyd3QZS+zg7rNr+Rfi0fxJeh09QACIN8hVz6ut7NB6tJ3SDuVMJl5vm8qiXtrpg4qNKjWUhBsqCJ8fuVaBFi6OWb5DJxYX4+agiKximUWJS2RKPwuWsiqtQd91w8hbX3Merfx3D0CGX5FrS5F2QjddJ1Guf5Nqn9ehgSoJntUvT7ONfivaesUq3L1RNMUbA7nlONjrEb4Tf++BL/7N9+ga98b8pucTfESM/N7/AddjREPtPXqS1Gj9IaiY7YOkJosEojktPMZh3XJpZarTUhOLQBq4TQzhn0KprpHrQNlbaUCsQFIp4Kzd95wvLEB97Oex5/B4MhRKmxKMBRU9NjiMKgYF+L3rNo+R6XEyIRi8Jg0VikjRAmwBjsk3D584z3Pg3zPSoJSUNo8ta0/nvnV6f0rVy+Lp07rc7nYJHOM7v7jnQOmTHeKq5UFnvsftaP/TN5ZQRC6soIe+P9JOfKjmadatpCKLxrl9tnpA0hQHQ5FRCzwJMGbSi0ybcppRVD7PQRUu74nnvuQanT9Irj6GIIulo4MonXz1EXVQUxYqzFWEvbpMDAFqm4vjZaY2ce+PRn/4h/8dknObujKYpTKapUq1mhNwAiJCYA3fHVaVQE71P7tsosucamuldde9x8RtCKymrm8znRe0pjUKKYTses9QZ8+CMf4VMfv4cfPwbDNbD5JHAJW0CiLrwevMDhKCgQoPENJigKrVO9bTxn9+z3cLOLBOZUi4g2HpjzWNmb2Jb2eFFc3XZ3lQOpzPu/OA1f/YAzY6yE1HIHB/SEc0zbnZC3+QXKEbTUGZJ1f55NSKP7u/VGCr1U5ogRB9HQ+vuvGZF2RenEhBzx0S+eT5soPV9hISpiKJK4E45Ii1c7RCUoa2iC0Loerr0L4S6K4i0MyjOY4iRVfwPUKHVXyQjCBknHOCS1MWkTuuk4pyQ5JEGBKmkoaB1InXLaFANqH9lGmAs8N4Zf+exZfv13LvPchU2iqShsn0q3uDYuuJRW9v3ZZr2d15NasMt60UmhTwy2HNI0Dc0sHesiiWFZqSIN/82/RymCaysaSkwxpBis41tHPZ5xfKixcYKZXeKhk5af/ImH+ekPv5tH7h0R4xhTDGk9+DZQKCi0TWy3VAe2eRQQBa1qQdUEpkQiPdaAHqGFYg6mnIE8C9PPU29/HpqnKLxDxQGlqpAoNM4Re99Ga432/dUieFNYPudD3s96nBEIODwhblCYd//313cgvd6lKSvWyxu1q69TV0OIS8Bjn0cmcfvsK6qF1iFi9uc4RBMJRKVSu2vbgi4oioJeNaIsjqOrU1CdTvMcOiSnEHPHSvAgJCaBGwjwmkR9hdElziUnV2hhr4HnL8M//43f5Xe//AxntxqGG/fSRE3bOEzHkbSy19Xqul5oMFhrUzHT+8X8j9Y63YtQ0HiNc46mHmOUZjQasbN9jvc/+iA/+WM/y0feO+Khk7AuoGWOUYZJjisKqxaHQQg+l73Ufumha4iSZQCS+bFiwCiFqQDnaS6fZ3f3Jfx8m0FfJf2IkJgOrqkwuLI3cY5LCD6krs6qunJdB0L80D8Stv9ibT5H4TseLJCsA6J+0Aj4DyOPDlVFtf8BEIuslZJ3nEo/V8yXayXs11A6NsvueilBok2EhD5RxsSgqXsmIRSp0yOCp8SH03h3N9beR2HeQjF8kKp6CxQjUL3kooJCQrnfe0sqnWQ/hKbG54lStZAMNQgmTZtGGOqaensXNVrH2oLLNcwt/PvnGn7x//tv+fJzF1HD+3CjyHTWsFZZKvHEvYv0ej32ci3szrWj1UCmVu0jEEKmEPK5ZrVEdi8tLTPwDu89IhEVNQWnUFOPljHHzATDHipscf/JHu959G7+Fz//V1jvw/F+QQ/QBKgblI+IifSLNq94m/ZAQ2KdUCmtKqpNa1oFoghg8RQ4hkTAtrsM5AqYKcRniDtfZXb5K1T+OYZlhPkEvCeGESItrRGiAWctToT+is//TXIO5huxqAlvp7Zp1aP2JSKPAW//5es7EK1dr9f7QjvmR1dX9eYglH2dlRSBBZ+9VVQ45xISUT6JNhUFVTHA2GOInML0z4CchmITpJ/osNEQQ0pDhYM56ddsTUO5tkZoHfNGCBg+/ekv8c9+43M8fyUg1QmapgHsvmphFKy1eO9XTDavs3nnUFpDnpNQdLrkgo6CmzpshHk9Z2Oz5Cc++kk+/qMP8dZ74XgvOYT1It2myXxGoSKDooIAsa6JRbqBrWsJDWmA1CYCf1y7372/VK+IC3wNpS3BjZld2WKy9T385AKVyvlyN1ko2UluJNFaLX7aOcdKkvb2yLAMBoM/BO2u70DURz5vVPt/nprf/i0XJ5jY6TVUB+sgPyhApEMOy5P20YA0oBuiSp7Z59qHX3Q1KYglRTzTbXUQR6AFcfjcJRWIKFGIMgQvuACIQRuDMSXbzd0I92J0RWXvpujdTdG/H6pjqaaRU1EBhyfiaYiqRiGgwXoQbCdZnDJZgM85TaGX34dCo1NtJ+4Hzr4ccXEeUL2Sp7bhF//Fl/n0F77FTD+MPjZMPEaXtlEljIabTCYT2qgxg03qusaqerXLjuIg4jAj+4AKIOLR0WFji4qOAocFtJ/hmxkFjkJD9C3NdMz9D5T8rb/6l/jwj3yKSqAHjIo0IF56wARwIbXfVZYWuLC3jaoq+v0+JZluxkSi6aj/AzFEGu8ppVrIGot4LC2WBhgnRO6ehN0/o93+Csy/Rb/cY2RKmI3wkwptT2dOq22QOQqHIqLrTSQEMKv1c2tN5WRkmwLTrvtUXyLGiFMVdTzFevXe/wZ+7A+v70AAUxRjma06JG4sRXiQf0qWH4HY5XyXEsjGGMqqQpV97nvwbRDPgCmAExDXwZfQthDm6etaoYzKvdghU5XkekWe31gEiLKfn76RTPNsBsO+4jf+4Dv84r/4DN88Pyb07sJFhws1rq7pHTtGbBt2trfRxqCVSs7DWvCrA+D1Xl/OtbimZlCVPP7Yu/jYh3+U974HTmykuZ51RWqEaGHYS86jmUaM8mgVDqAHhWJjtEGL0NIivkmoQ2sEIcRACAEtOjEJBLlWWJprIpHd55/HTc/iZMaw18NIzXw6x7YVur8J0zZ3kqTmkNa3xMwObYyBsFo/t8MalGvUP+AacyCdXfjWfxBH4Tl6YTvHJBbYZ+k1Mc+B3O6teGqaIUUPYonkmkVUc3yuJTTRI2ZE69aZz/sYezfGnGIyn1EPt5Zy2CbzfpQJsYUB/dFJrDpBWR2nsqdQZg0YQUjts1H7fH1TK+SilpG7HEOWko1XKfepnLseH7g/6QXM4oVURztx6DHnInj2Ssu/+PRv8Zuf/TyXZyBrJ2mDZe5S6k0RUp1+oZFc4EXjJCG2Mo7v8O316jWQRJHuU7oP0kG91L49NJfROFrvwTcUWnH6xDEefst9nDl9go986Ak2+z0210rWC4sVD6EBiWSC9HxjkxZHxOApUvAQ96soIvvRYurxyvfTG0RBlBkemNMSgkLJEC2pR0O3OXlhtsB+F/zTMP4mbu9pzM5zIJ6Qf1OQpSJ5NBjJ2uVRZX2QNrWsyyx/i1md0LfSOeQF4jI3HX49fd18D4Ap96NHf+H3+vf9/Y9fE2y80gv3ej3HhDv+7mqtcfMaYouxhtFoRNU/BqMzjLSC/tbSgW7yY5Vzu4PsSDZSqy29lB4L+wpvnX60zu3xy6moN8IuXbrEO97xDh585J2EapO5HTKZR9qoKMs0S5IcyH7w6SXpViUHstqEr55D3pdl6fdhNEqPRZHHfVqobKKY6VaPzivIAm2EnqTVpAlEXEaz8aakkUWBd4GWGqzGYkEZAmnUJwYwAhSAj7Czw3x8nvHsIlLvcOwa72W/y3B1/29n1NEFAkVRvGKU+IoOoig+9I/mu7v/J6vGaQI1cyQt4HDUNxSB3T4RZDq1Q74kniEeqNshdTxGZd9Ob+OdYB4EuQ/0cTAafHdNuhC/68Zael3VXWqdHIM2BJ2e84sqpQNqYL6UizK5hmEhWnTIL7fIhkW8qvJ3a8gTwx26OPAoMb+3mhSXJkTzjrfdzbt1OrDEOXC7XR4TpCCIxqMWLNs6pg8Vu3mYVQR5vQM6NU8kNtOuXTuElCpCKxQqNTqpdLucg8ZHvPccG5glZ6SIoQf0UsAhy6oqEXAoWhQ1ggMBQ0ycUTG7pa6zMKRfFgSUKAq1QfSpxhcjaOUozTaKHeA8NN+Dve9Qbz8Ds+cZxT1KYqqviCDhWCrXqYBXDm9TZ1ad94NpR2mGJXaNH/X1jqCVvSFmcvjbzYml8yfExDjSukcZlm/9zGt2IOVgcG5+aXV527alP+jT3zwGG8dA1qGp0saZtyk8XDqpo/iUnsgORBZCGrLgFjvM/rLEPsXB2fH4uvcqaJ3Zd7sg0tqcOwPqGqr+dSKV1Rp5VQQSUq2g68brJF21Uujs7mMA58G5iChBa6hsCiCaZv8aKwUmN/Td6GWXV/rOThQsZDq1nDJtQ/qaluTsXKhp97aYXDmLH7+MaccM8lQ8RHD1PsvC0u/qaoFxtXBuI7R88Lzp5oykLK+8ZgeCvO//Hf23/4soLxKZIHn+YT/CHebvu82LYN3kZUxi30G1SfyGkoY1GrmPQfUhKN4Ps7cS1YBQQFulPdg7VJqQnO5ZOImOFl98zk+1ENqUh46JvyjFiSUxWALD/RdTZEQyTZrQi5bZ9DPEcn9ieAm3vNqBsQiJc//tXpMOpqGGyuT5EJ+GEakKolIHXdqCwjt3p60iyBs6xhPajAvk0X0MizYL+6VJdC/gMrctGGIhi6Y5WeDG9PnyfbEICouKNiHUrszRFb1UmuVAeQKRoENGlJ7oPOI8KKjMHNRL0HwX6udod75GbL9L0VzEKlLzBz2o+7nFOHcv6gmiAqgGDeigIPSIsUjIV2YJBEUBbSCuJtDfHLYfxCCBqHaz9vwQ70+ii0eAt/3qa3cgxsyrqvqXOH7+Tr68VVVhh0OoKmhkEQkK18ngxUP/kEORV7x2UCav9DKvk/WK/UjZB48OLs0bWLOIIOOhjFi8lnj6yq6NYF2bqUdSF51WGq2WhmeiA8loJEcIYUmRRR247gevuuIGE8ivEO1HEsogz5ngW6gnuPllJpPztPNztM02lakprcFGQbyA88QQFrxWcg1eqy5/HnONZAU43tTQ4xWWjTAYDP6bV7t5r+xAem9xlfnA/6tt/t3Po2Yssq2LjM0PBo2F+BTxRz3DK09UM6ICzwAf1uj3T0N5CniQ2FO0KtAQGfM1AI6VDwI6XxYNqDTpnZTF8fk6iXTfY/KGS1vfNPl5k8kU1RJ3BIYQK4jV4hARDgyeLyELn1sqmkNQpMj57zwDkjUUuiL9qNkiek9r+mAHzO1g4Rd9gEocNnpUfl0vCo9hnJUMqzvekbz6EW6NPnRkhzSIlzetiqMFAXPnFbTKhesFqo1EPOJjRrK5pSoArkMYGsQQteAEnFlwSOSVmepjFlCxRQXJa2ZCVOcRf45Qf4d675uE2bMU9RajNqIw4HvQDCEEAlO8rpHhDmIN0zbm16/RAUwIudzWg1CkjsRoQJHem25TjcSk69ZfdfG+aZBIjAGlZjkwWCe400j50GeoHtl77Q4EkvrU9M6+rFUvp7jqmtYaKEs8nkCgoFhE45GIpPG+xdcE0AcmePePkfR8Foo+kOp69ajxppvWSFFQqJIQofX77PNapRx6WlC5a2zpf93nq/TUq7mXcNX1Epag5pL/VfsgZBEYRgIaWXTrIaRuqBhuDgiMkb3JHuPLZ/GTlyjYpa8DhTGoruXO+30WaZ1ak0OMuLZFxF4NlZcV7FZ2m4CQq7v6RAReYf7jxhzIfT/81Vn82O/Mxp/58fXBZWzt8TuPUJQlwTyTfkG4vXOZ897F5CjmGxinIRZYEYLWBDMDPQE7JfQUkV6K6pyhb0r6i1bdwymnLtnQdeFrZIEeUhEhRk2IYBb6I5Y88LGcmkRUurGyoEXNLcCdv1FLCY0Ylr+wlBeT/Txn9z7zYtmzqe/bklqJhzqnzQMp4S4ZvVCkDrCuiKsOvM07OnJ79Wdf/fm5cizzXnaORmVnIShcfkz/Vwv6mKigNd3+LtFEFBYTJGluxFd6mzbf5IJ2d4IaF6i5oJyi0IEizBF2CdEnGp4oabZECc4KrbF4VRFig1UtOkIMPUKEmLoGEAlp1iOGRJsSB8QohKiJ0RPkyj5CXtmtMz1LZJ3cjWta4sAwNbDbDFg/+a5/VYw+9tnv34EAZVluNzO9D7lzJLRgmL0jzgiFIPh8QBdGEbB4/IIK6uqIPF0nFxwiaknx79C5vjzJHm8oqH1dEjAh+73UortMa3/oPYXU+hm6HP0quX00/CKdw5BXxTUxJy47SZkYb8h/HUQFi/rbfrRpBwNsdYLhxhmYjmlnl4gzwTtP9B6lUtFb6xRAeElMwKg0IxUzc+/h7p20nlco5PY65hKyjDGxZVRVtX29n7kBB/Lg70zlbf+Ttr2A8SBFA7EFX+Rcx22+gYNeiuD3SaKEiJKW2d7L9HoTpNyj1/TxXdujeVsCGPNMFaFzWkJ1J27ql0mDtg0Hc+X7ED8UzX5UiCF0HVYLSz05kZRbXuzUrCkepVhyXGle5BX+0Kxl0gA+zQkA66znb/BEiUTxhC5yNssn1P7flfiMmvzVzdXOO0qKdH6ITFAtsTl36wqSkuWyd8lfNu3mwRTS8vqQmJUrE/mNZBwbF9zMBlEVxj4A3AXlu4jVj1JX38TXz4B7htg8S6GuYOIOhYfSjSibNWjuyevXI7rJXFc1UUJmTxhlQO1B14i5kFd56jYrZ8fz+52tFsEtPQAjMab6aTTgpcUTMeoRdPnQZ47sQCjLcVmW1DNPjAqjdZqBuENsMplQzOfoMiIKgkvjESpmFTeT8w8LKNLlnvTiYL4qEjwQae4nL+I18pJvZIDf8Wd1cyyyqnC8ASmEwzdBHXxc1BPiVSnJGwMecanxLx6aMoqE4AkuILrFGkOxtkGxdhfUY2h2aXcuEJo93MyhPFghDw9lrfMuG3ForcoBcrbVKnoTQ+ADuufdzFLVq16gKPaO7kDCu/65kXP/ZOK/SRN3sMUeeJeUxEQW2ty3LWwLeY4i2gzt2xShywQjUOnnkPpJqAvQ76Uw90ATYBahGia205TLyRs7HCCbcz63O2bRqCj6QBHVH8QlS07HE6VF4xZzACkYtft6HgJRNflnO012OViYPfCv5Y2ce3TqCfvUK6BjScjDwlEFlJnTTa4rgFCC70NIS2e/a2xl3+cCPIDwutpUWCAKkyfOI0RNyEuna/kuVLMfsES9+HmfiyiJI80iOd2qUKigF3FM0C/hC49jQGCAcBJ4K9hPImFO23sxKQy6p2jCc4j/HoazUDwJJqDiXWkthBJ0RVQBryCYeYpq88S5DgN0ALVYXKk7J5qVc7mlFlP6NMQZXmvaWBGUwup3/BLmx28CAhFxRb//D8zM/F+6KaaOkuGOuL4xsrOzQ5ydZ324gx7ek6a1W5e6UxYZnrjvQJacgTU2Hw+H6HKvchrXRgRvRASSqp+5AL9UKI9LBfnFezkcAa9qIEdcYOHgSliKBtOjyu7/6i6Z+JrOif385+HShEajsEQUTY5oCgW2qrBmDUYnYbQDezuwfZY4c0j0CYmEa6+BeD2+rngLCn4ru/Z9UIro9hdFURTYfv/ijWXAbqTQtfuNu3bO/w/nov9D+sV5zNyh/MmkNGZvbwSy4Hhya6nPnhZUA8VlnIYmCq2qcPFeer230F9/G5iN3HZbweBYlgFMESJKk7pcyuyfTYruY8fS2z0v6XPREMp9Tey8pQ6QKQoEObjh4mLz7y3lQroair4qQ7KgKznMkaWfAj9OLZlhhjItohpgBr5JTIrdhYrlUm9/N4G8vdqER7GOOkZlBCmGfSrFDh2XeT1Vi/WUHEKZJr0X69jjSTWPrgYXM/LQFOg4AKfTU4sGQZ9EZUybkY7HoYEBnShimRsKQ/0izfTPqGdfp/HfxfoXWW+fz+dQ6sZMFD4e1CzRt0gBoY+4YWaGdhDnYNL5FNVgtQZuZQYrpIHhmj1iaajjSUzvR54e3P+fP3ojP39jPBRVtV0UxeebuXxkEV3cQZFnURREp9nb22M+PUdhZkkjWPWZ7jUptUBIqSWl0apEdIUSi6gCoSKqAq36aFNijdrPI+f8cVzivTqsPf26OtC2pplPmU6nhHYMqsaqhhiniG9Q2YGokAS08PagAzE7q114BGtyDlq0QolFGYuiR9Rp3ShboSQQVUQrRdR5uE8l9HK9bXgQecSr6PyBXMtwYHUSHcPQkGiuKgvBp5qf6vepRqepmi38ZJdm9yLirkY1cTUHcvtYR4bWzaMqRVmWNxwV3pgDKd46L0dv/zeT6bmPEM4ytCXM3A8G+sxcXlHVubaggR6EtaR5Ymp8s0MV51hzlhifBacJURGAtUkO5WKic09zHiYpFoaSIDox6iqLlj6m6EOZ+bxNBbYEu4EqNkBOIX4D3AbQB4YQNBhBWckT8t0AcmY5ZXQgESCL2oon4hbCUwBaDJEiDax3mZPiXlrtaN15mvlTMH+WEF/ChD16DgiCiQZigYikKWJdE8w8HXzzlSTpUWzTd3owaf34ZSQZS2y1htYDsH3QA9AlqALKIn0+eAvEY6iogSGWIcgA4pAgZhGWRFqcCqhihrIQ8AlctsO81hJoiapFS6CnZlCCw+GLLgVbAI8Sykdw5qfxQ099/teo6y8zrc9TyAUqvYP1oJ1O9UVXpZyomkBscKohGAFZQ0Qw0a0Wwa00PcI3LbHvaS0E90MY+9F/cHMdCKCsnZdlScjsool7ehVl7Ivn7LNEdYhiuZjuXVL4q5uAmtZptkQsk6JC9Axrp1jlMdqjjUV6FVidi/PgXW7GVD6puWUa9S6F3oHCmP8db7C43dJSqIJq8xixd5p6vIWfXCTWQowBo01GH2qfBFDSo4isJNFv0vpZZjRYPMbI3t4eWnnQDcKcEDWCQYxGqz7NeokxgbI3xFS9zIGShWlDwHX3SecCeualUl1rxnJKU/bfU4j+mnVOQVCdgqEI5cmTlJNN2N2F1qBEpTmi5TmQEFIbcmb4VUq9ATzTK7vhs13t1zrLsnwSa+c3HH/HG3UC028PZ1c+93+bTP/Vf9KrdxkgxFDvS97drhtYZ62UTpEwHIqoMwtxzNxVi5JnN4jlx4eTigee35/HkyWksq8U2sYBUUaITikxpQfY4hjSW4fiJBSboI6BPgH6GLAJcW2fAeDQoN+CokwD1HimdLglHfYlEsvcdaYZS6IsqQDx2zB+AbfzHfze0zB/Act5lL4Aajd31bQZ4QgxauwhNuCVvVYbH7x/h9aXKIMolZrrgsbHQPBCVBGlCpRYjFoHuwH6DOi7oLgPqrvAnIJiANIHpXEYfJ4FcXSDwCU6T4ObmAWtlpkbdZr7iqrNbd6pouKxBAImOGQ+o3XfxI2/Sb37DeL8aUrZYWAc+DmEkOZQRHDGELTQSmoXHbgVl8GtTWGleZw9PcUPCobF//Fv2nv+4i/ddARC/5Fxr/njc3VjiPO46r55LVmyzMKaNqw+4EBizOkKlUSGWlczm+/ixg1Ii+k1WBso+iWmNwDjIfoFEtTqMAvqa7s1JndVtm2kIECvh9HHMGYTJjuE3fMJbUSP6IhkckAJEe/DisvkjYEpB3XNlVrozYQQqNuaZrZL29pEiFcaiqHGVJZiEPFGoCjwNjmAuIQmXnnRLudEZQklLUWuqFQoryoKtUlRHqenNpjv9KDZIzqH5PZ2EQVKJYnfGK56rZXdOgTcIRCtNbbXu/iazrb4WtJQu8+avcv/n8/58Rc/MmQbFeeI8rf3BRR/8EBPtKFItOhgEK+7KwW4xaRwlJB45vL8xL4SYXc90udiljhA2BcXCnQR2DBPHCet6Ch1Sj3k11e6T2QD9Cm0PoMt7kPKB6C4N9dS8hRjHAF9CAMi5QLxiK5Z7spJhI86MaRGjVOCD4ZY5/4w3X37BfBPMd7+Kq79JqF5DhsvU5iWQmlohdg6lF0dBEexWoYHEO5i/eT1FGK7UDFcXkfd14qJzsyXydEEHI6I0iXO9PAyRJf3U43eAr2HoXgrcAbCCRCh1V2mqQbx6MwwIFlcV1GmOly3QVQ8wPpcSz+9ozZkbZzLMP8zxttfYr77RWx5DutbtIrYzAzmvcfLNDWiBLtaBLfQXCyIbDLTfczgfX84eOAffPi1/PxrUwNae8gN5oNLs9oS6nBV9LuyayDEcHBQbOFEliOwEAjREaMjKr/IE6MksZ56R1NPCWEHpIe1PfpFgakGqFMboLM6nJLM25W0zJPCWBdBLnN1LYi4CISkdFfm7FtXYLcW+iOG9iTMX2a++zJ+diVt/pjpwbVmWVR1ZTffulrDMpq96t+LNuBU25Dg8d7Txpbaz4jNHpP6EqoYoewAXfapigGm6sOizLZfzeo6Aq+JUOIhZRLZR0Upu1WAHTGUTYbFCSazi0hweO/2WVlybVBWWYw3DQopioKq33/NGrSvDYEAbP/q364v/tY/CXtfo1e2xHh7c9nEkPrQvZmA1IQ8Wa+CRgeDCnafaRBSThhPzBPE4nMfuxyid+lqHSHQTWMINm8as0SiOE2b0pEiPfT+sJ5kzQYt+4gnCjGmSb+gLO7MD6HVPRTFCWzxUIouuQcYpAK7unZmYnEGOJeT34GIo6ZdtCQrFIaGON2m3v0u7eRrMPsWRXiGUj+fiqGrCPJo6c14DV53ONhum/XLiUvxXn6+GSQJZfEB5SMSEv174mVTaS4pWHzQtKFHUEOK6gRmtA79MyB/AcoelN0MiiZS4OgjVGloPPeDLFRuhMSHFx17eozFohigscQWjAP8DvA96vEf0Uy+gmu/QunmVMqj2gDN6TTAduMdoyt7PRCIGBrpY3ofpzz24b/C+k/96uuHQADKctsYc76Buw4wyK7smqa0XjiTTh879e/LQceTc8QLDq1u18ZAXJJAlJxPjvnfZ8+epbCawUAxGJykX9Yo7W9c70trCA0utImaYtGro/BZsNZUFUbWiWadVvqEqVqk4lb2enuYTA0QXn04KK2LjAQiaXgjhEyiaVK6SJKEQF3XtH6bOLbE4gpm4ChjD4oqdfxFT9Cp6aLr6lt+O4t/xFwHIRIIECK2IxXVBXhNefw4hQzZ29X7YLXr0PJ+dX9v9fmU14u19g8py/Hrj0AAzv/K376084//ySBqeuPERhvNmKBrnKkT51Ow0IJVZaL7WWind32ngxyoN6u7eJTzpRGgAmNxZhPfO4kdPobaeAzsozhOAmuLaZBIQJgSuQR4KjZTR1drF0gJSQPLtSROJc+Mgik9ztFMv8neua8SZ89zzGzTxG/TQyN+lISOsgJZmlmJeHM61XxUC2qCjTuJE8klpbqoVo3At3T92AHYNSjeAYN3Q+8x0I8Am8yDS8gEB0wys1YKMAgavKW2qYNLx9SbJR27bkb2qIbQXmEy/TSTS59H6j9jPRiq2V3QOLAtqBpspNFz6vJS1hkSpLX03F2p7Kh20xlidkFBHe4GoIh39vkRM7uxRJ1iUftyhhZ3EwSctCgdieX5dDtmD6CDTsGFF3Z7FfTuZm30H32KE9fnvjo6AgGwdl5VFczaFB0t5WOXHdJyf/HKXifziXgxiEo5b2ZM/Q60F4nFOmsnTuIDtJnj0dpOFU8dTJt0aFKu9aVUK4lEqv6Q6vRp6is7+N3LiBaCD0gIqaNblsGNxq1Qypva5rMZoTUw24HZJVR1Ed0/jRmuU5aWSWzREtEoFEIkZCh9Y3s7BI/SmtHaGn05Sb0zIm5P9yegQw2EDLjjAUS1Oj9uBoDNGqk5YyAxHkC2IoItCjBm/n29/veFQPa++O56/JtPur0/YTC/kB1H6kZyegekRnSeVHZrKF/uN7brrJHbpXVWhbSj+Y9mkBaJ2cOr1N8fjSKq43i5l9H6u1G9t0KVum9i6BGkQtluc15ORVN3Yr9jUyBKuq8tgqaPigNiS6I2Uefw0yfZvfgV4vw7mPYF0C/TQye9BxcSY68IsdhJ7KwSUsugW8uiVbmbTa2K8LfSGr+WaM4kq9eaIVXvPnprj8DgMTAPQrg/d/mRNSOSVK+LjkKKNDcie1ljpqsFprmqkPV2FDU0LxMmX2Jy5Y9x/g+pfE3p8lyRTl1lIepFpsLgUfjM3pt1ckQRBLxOGQ0T7uzzI+Yip3Ts2hFAL87jWOwSYkvIz6v2PgyS0JwIO+ZeBic+jul94hiDR6+85hTY9/Wui2KvHA7/uda5BzAcbC1cqBWunMMbksM8/BFjTF04bcvZs2fZuniRMJkscs4hhEX6uesGO3yrOu3ucKB7DGhbiBE9GLJ5110MBgOstfvR44LKN62LLvJZ1UvenKa1xlqLMUluoG1bxuMx25cvs3vuHEwm6Z7n1KbPpZVIRIu+gfWZS3k+sfeqjQ1GJ08yHA4XbAbdR7d+u0zGas28Hmgk7f+Or6woCsxg8H+9Ee2Pm4dAAGZ/+KP1y5/7Ixn/SuoAiceSxKW6QmAPUdupgNyspXxoNzmt5km5TGXEFHurO3sEm5pJ4hRyRY7ss3Jhvr4RoVUayvspBh+EjQ+CfS80D+IDSJXS2cmR1PnDseitaktg2EmUEMjfX4LImDj+Es2Vr7I3+VOK+Ax9NaZy5HoI+/MxJBLGRWSk5iBuX+t9ZbcGgdAiyqNVR7ycSTOlRwynifYkavMdcPydoO7Fu3Wm4TihKDECPeYJXXQV8jiCUOzrmqiU+gx1ytFbE0C9xGT2e+xt/QHF9GWsfxGtJ1RolBukepzPXYjlucxGLRAr8Ov5MJyn3yl39vpZIBC1mx7b0wsEh3iwl7PD6KGkh0MTXNrdWka4zU9RnfqJ+ynf/cL3FcB+3+/c2nHZ7/9LY8wi6o0xIjmvth+yruz1RiDL9acFE2qnEpfRwWQy4fLly+y9/DL11hY0qVHmMHFqXPpfDlGT9kmTIlBV5MatkNIYdrjBYHOT0WiEUgrnXNbMzozDHdvwKqJ88x5CGbHG5fx4/tpsNmO6tUVz4QJxPEYbQ69MzqO5gSaq1icKFGtzuTQE0JrBcI1Tp05RlmWaTvdpdmV1Ztz8e7s4J5bQnVIKUxRUw+E/Ruv59/v6cqRNvfuVh/3lX/y2nz+Pa/eweo5VLfiQOaBzoTYaYjzImSRZRyKuEMjRIsjebnLc7RpF20e8zdH/XmJALa+kxn1TMI895s2DiLmf9WNvh7UPgP8AWAW2wQvMEaBEU6UW3gDMAaap6GmFIJEZBTHCQBokXKTeO8f8yu/Tzv6YgXwLqy9i2gjzkxDWF113mG2ineFz950OKzbfW5rWUPO0fsIAXJFmTgD0BKKDvqYWR80advBueic+COV7gHtpZj1stZ5fqN7PKERZIJCaXaxYkoaJIvo0dhR1gLhNvfV7+L2v0tZ/TOkvMwgzcBGaU8mRFXOimdIUW+kgDCXaraGaY+nXFZfu6PvXIRDM5QMIRBaIMOcQNWAi8zjGESh4H0X5w3DXzx6j/9prH0dHIABlOdZVdd4YcyACXkWab5wt8pnXfjInrBOXktYpZ900DTtXrjB7+eVXRIoLUr9A6tUrUrsmzuGDT+TjArPZDJShXN9kfWODXq+3H1E2zQqJ3gbrZ4E6lDp4v5Q6oHu+u7vLhRdfZOfiWeJ8RtG7fvBnxODx+Ojp5NQ708rQP36c0WhEURR5JiHur9nVurkJEcKSgujS2WythV7vn36/tY/FPfyH//Affv8/bU6NaczTk93dv1nbpygqiL4mti3KPwBhDdQMpCHqacrLx0EiV8NDVmle2RHWh19D+wEmkthyzYxo63S66wEhHieGTbwbIa6HVXtU6hxGP4nyv4Oefg/MHKqA8hrfroHuESWxZ4lKQakmOxIBFecotY1mhrbHmLsK2jW0/SGKYp3ppKD2lyjMCbTVRDdBnAIrUHhCaHBqjLYgvljdxFuZAm1PI34tq2q2oOdgJ0QzB+3y9lSYaCm8Q+YXMZPvUahvQnERMafAa4KvUKoEcbg4xasZShwqDpIaYpqPRySpU0lMnULRn0TKB7FymukeNO1FyrKAck6Mu4jp4ymIygMREYfWc8RvZuqe6R1+BzUgBGkTUaZqUucaEYkW2rsgjvBhTKsmhF6gtoHof5Ji7Wc/weDhI13Ao5/eZbnd7/c/r7XGOZe1Bw52Z63sVgchclVHXIcU57MZswsX8BcugPdUZYWSlEWIhyOZHJWKUguepJDzq7pTWCxL1jY26Pf7OOfAOUTrrHqWpo+7jpuwWh9vevPeL+pa3X3z3lPv7MC5c4wnu2nPG4N3jrqt0UpjMAc6+F7xADIGtEZ6PdbzugnOQdsucvbXWrur8+WGIWbqmsycaiEEjDH0+/1fxdq9o7780RAIQPHA87HV35mG5/5204yx2mMx0GxC1ESdOiWCmRCVJyKoKEgokiaFWtEZHOkGBkHFCOIIqiUoh9MepzROWbxKutkRi4oWEyI6JB0H40C5l4juaSR+F2V3kGqCEYWhl/SSVS6pKI+WlgWrry9RoY9XNUYUgiEGQbgf+CGCP820EWb6O5hCUOWEKLt410dJL4kkec1KkuoWBxcREEc0E1AN3swJKhJEEaQABhAG6FhSiqGMDaXbxjQXoXmOpnoKU+wgZoDyfXQYZinnmOrlUqACSEfQKHsITSZTjIgURFlH4r0gj+FjxaRpmdvn0YUh0Cb2hDBKHwRUKEDGIPM7XlZCosk6LSrhAWmJ4lEIEnrgesnZlnNaXTKNm1C9g7L31/+GbLzr3JER7E2BwYPBuV6v5xbRweKJVXrqzYg+lvPLIoIxhqZpuHLhApOXXya4OVr0gb2ZKOgDHGIR1tkBxLhIl0NVUaytsbm5mXKtOZLtuj9W80G3UYCi9f5EeBfxK7UY8Njb2+PChQtML1/OXX9pLbS+veHfESOpONLrYdfXFzWRVU31phwAxK6mlLMFg8EANRyeuynr48gIBMDeveXn9babur8IW9i2QBiDrZFgiFQEVQOCSIOSGdKeSAjk++8gWxmkGpNqiSJINECBChYdFToGNHOUzNEyQzMH0anuENYhDBFdokyDyEvg/hztn8FyBdEtRtYwoYdVEWRKJE+TA7QjiAalPUoinhZE4UURNUS5C7EnqJuSuZ9ShytYCpQBgid6m7QmZIVAb2mKqthK2QFIKNUPkdBDhSpF+r5F4hwt88QczZxImxKYGorwXWz4Gqbdw5gx2ArRFk2FjgpRLs9+jUFmOWYtc1emJso0Rc2+QuiBehCvN5mHPpN2m6jm2AAmFJggqFghWLC7RNUkdc07GoEk/BFEQ7RE0UCBhH66R3aHKNu0FHh1iqA+Stn/2Y+r4fv//KYcPzfrD6kGg/ODweBri9z2Ksp8U9g1I7jlzgwR2qbBe48xBuccW5cuUV+6BHW9mF5PTEgZzSRR7fQRQuI7UgprNVqnHxERpKpYW+rMWkZDMcYVErkNbDEtrnX6WJ7xWkKV8/mcrZdfZnrxYloAN5h96BgPSHEFaI0ZDhcMB1ch1hXX3mtGIN31M8YwHA5/yfR6V27Wy98cBAJgHvlzM6+3Q/3yX5NwFm0vEmUXwl0EDEE0UXmU2kHRIs3d6QQy09VNPoI51gn0QAKKgJYZKrTpI0aUV6hgkWATkZFuQNVEu0s0E1w4ifMVVhqsVBS+ppi/gPbbCFdShxZ9xGxA7OFjSaRMSEIBTUSiQemIp6aWGU7PCFqhWUPkPnRzGtc6JG6BOo+WKao9lt9PvbqJt9BapQhYJBboaFChQLxCAkgMKHyKNVQL4nGmpbUNdVlTm4bB7nFsO6QwT9Por+D0dzHVFK2PgxRAYl1OPsJAGBGipZVMcSXbRFpaXdAqBdpAvJsQNtCxIvgXsbFFhwlQQyghaoJuAIOEO7uGJjGQrqQhiCHEVPPUCBIV2GcROybKANE/8rR58O9/HHPm5ZuWALmpf01VbWutXRelOrciynuTwJCreuo7NBBCoCgKtLXgHME5uo667UuXiLMZsW1THvUQsiHG/Xw44HC0pMljTY5WiwI1GNDvJyqbxZroev5X9iZPkab7FNuWtmkW9+8AW27TEEJYrJvLly8z3tm5sRRa/h8JfCzAcVFV9I4leiSt9UFEs6qN3DiCTOmANHn+fTLuvjEIBKB66DvaT+bT6d5P1vIdbK9KpBjiIWjE9xDxaHppQlLqVRfWkSOANn90XOoWpPvIeqU6JqKjxbVWWRPdYNRlFNvQnoDYQ6QHlChzHqufQeqnULKLiEL8CO17OANTcczFU2iVItSoMLGg8kOKUKGUS+kxXxGK+6B4O9P2BLvuu9jCYKspbXOJaAyR1PETKAjYFBGTeb3wSIhIVEgwqc4jGi+aRDK+ClKOlDgIChNUkjongGoSStVtWi/SSSUXKFVgKDDBYr3BekW9PmNWjCkjVK1lML3IcO/rFPG7YOeg/v/tvWuMZMd5pvnE5VzyVlnVVdXdbFK2SN1oiaRki7Qlj6iLZcGwMTM7nl3trAx4AC2gBcbAClhj1sB4Af9YATvA6oeBMdYCvIZhYGdnDIwB32cg78iGJEv2UDZtUzQpkRpS4q2b7FvdsjLPORHx7Y+IzKpqNi/uarK6uuNtZGdlZVaezDhxIr73u7zfCqIGTNSATpV4tYtSjtIpbKexaoiVIVY0VmLdkdfC1PRo7e2E3h1sTTTd5lkKPUVXE2CbSVhG9ICis3FuJOnPyJQCXjtEeUTFDCVRGi2pUa8olEjKQDve528mDjEKZbcxTDDtMiZoJEBHwJWWbdND6h+jPPmRf0n5zkeu7/pzvVEUO71eD2vtIs9/bq1crWdIxo0N7z1uexs2N6Mqa9qT5HW2opxbkLYsGY1GDAYDuq5DdncXGVoZx9iFmmpErtTRkp0d3LlzMJkgItjUqDC2S05V769j8e5VvcW8UUrFVL8Ul8nrCK+oXrxf2bgoCqqquuaeH28eAwHw4TkF/7JzBtd0KDulpENjMKLRrg++j5gdRHcolQNhR4nYWMqwUO+c31Bo0QQCjbuEVy9R9CcwcGgqVBhRYBDlUUpSFtheR0PRE8CjVIeiQ6kaLW+hcEN2Njsm6mkG1RDlwqJVkSYeWykf3zctSGreqERpUIJCFvdqwbzy7ShuYjqMAuuWUWEEDIGajgk76juo6gWKXos1Kxg3QrdV1MYy26B3CUYQHSvMUSmrSEFA0FhKCgpl0V2JTBW+iW5TVbYY7aKCsIp1UHHupvT0KOGYqk8MWnRSwJBUgxLSVzjeFCQUDYEO0yxj3CgOBaDMFLGBqaxiih+hHH7gF1T93t9Er1zX6svrv3qX5Y4aDj/b6/U25j72xc54FT98xjGYpCEwm82Ybm0Rtreh6153+GKh7CsC1mJSnv9cwTnj+FvA8yrnRbMQaymKAqUUm5ubbG1u0ja7i5DZlfNjsTZcVZNNoNdDDYeYslx4Mw7Up9zKBqC6ooXonAGKLOJS/X7/aT0YnMXeed39vdefgZjVlvI9D7ld+0Qzk38m6jsUTqG8A2nAraBCia8vggkxOyjj6CagWMAkrbImWXCSKlw1Wl/C2k0oniOYRxHZxWqDDd+PUQXBxFjEXKcI3UQ/NBUQpeS1KpB2gPIV6NNov8ZWuMw07DLs4t9FpuJBd/ExySGOQRLziKlBHlRI7CNLWRw1xBtM6CGicUETlEYbg1QvoPU2Ep7FqG9T+Rqjh2h1MprIZodOCS0dDh/VDKQAUamfDWgMwZcYtQLuDK6paDviPCjPokOL9vvYMywYSIzzaRQmzfE5i42xQFEOUeHYKyH4YkbAYZoz6FDH3vHSEhCawoL9cUz/J37ajD7xB2+IAfFGfbGirjeGw+F/Wlgn+6ohuVp1dMYNyz7m8aumadje3qadd6l7HQxCK70wjuaVzHppifF4nBnITTI/JGktFUURm8ol63c+d2azGVtbW8jubuw7NV8GUAsG8koxNT3vcFmW2NGI/nC46DuTszz3Yh/qCtXducLEcDj8vaKuL79Rx7dv2Dcbf+RPddO/wPTsTyr9d6CeT7r0W2AMngoRIWuxHvEEXFhu8x63gdg9UKcLWKFkQo8pKE9wjxMmdXydvB9T/sA+d4MCpsk0Wk3vW0bDr5wQdIf2JZRvQ4f/jqZeI+x+Dc35xFwm6KS1FVSsW/FqPkWjj1vhMDInShbJhsiRomIMXpBiQih3ER3d1spbKnH0AOc28XwJ9CUonoLyvcAJYJBSeCt8qNBzpRwlFLR4BNSATvpYM0bV6wRvadsZTr7NgH2B+Pm9zG3i1ENdDtrIixbqqZOhOeY2jJIhSjyiN9N3nYAWKG9H2w+g6p/8DMN3n3/DXJhv6Jfr9c6XZfndRYL3fj8dORvrWEzQubIysZIVYg+QdmsLdl+7CNT7RTF7VF5NjvB6MGBpaSkP8HFHUudtU43I/pin3qem65xja2uL2dZW6rEetdVeTzafn0+gskSnDE+tNcbaPP4H6cie5pW1lFX1Na5j1fnVcP1jIAfMk5M72pePtVvtzzbt9yhqoNymaS/QdMtU1RgdciXy0WIarft5z3Jsst6igmoMM9Qo6WNSx8OCGVY/i3dPoU9YtK9QbjX6m3XqPqcMKDCpzlCpy0CH2ALRjsCYqncfYesFZu0lPAW2DIjfAQRt+6hgCFICmqA9omQRH1FBRfsnM5CjNTBCg9YuKhMYh+gWlMOGCuUHMDFoNaI0EzTfo9XPYMsWXfUwrCJqgJYqlimRwl6qA72NpsOjsbrEo2PdT1mjVMO03QbnUSGA0oT581qhdDR6gu9Q6mCMVRFS1mDM3tNyvGMgWq/iGoMy59B1g9MlLqwg1ccxyx//JMP7nn1Dj//Gc9xqo+z3/1NVRZcVKTPAGLNnWWQcHwuH6Pee94nY3NyMvujUvdjv80tfrV3DXPtoXglfjEZUVYX3PvrMU21I6Lo83jcDjFl0xjTGEEKIcbSdnQMxtMWPkrwUi1ThvfiI1vE/Xdf0UjfEq2mscQUDupnRdd0BVQCtNVVdUwwGv01db7zRx3/jOeDwR7/B1PxvnUx/0jdfR+lnMGWF6WqUk9yQ8KgtSJkHMWPMIajkV9YdJqQsLV/HWwgYGpSeIJxF66dhZwNtJ6CXIaxhQi8JLTaI8YuezYphOk60FANxo9ArHyBMYXv2XwgusFR1qK4lNB5Maoka5X/Tbb4rlZEpZS/o0SL14g5hPfWIScXD83iG7sXiP9NgdEERLrC7+9XYE70K9IoHQNbx2kZtLA1KFal/oWCZEYIiqJpgQDOG/rtQ7Yzd7WW0fxQtUSFYcHgarPhYV6QVIvO2ynpvgxKDuUmIq241piiRomKiAsIpit5Hqfsf+wXq9z39hh//TfmW/f75ejT6nf3V6bkO4BixjvntCksvhMDu7i7b29sxHiLRIBDhQHbNohbkChYCLHqHzFkISclZck/sm8RCUQdvyWqeTCbMNjcXNHV/EtHLp6Cw15IkgCkol5YYDoeL5+eZSLdadueVKh9lWVIPh7/1ZrAPeKNjIHOUp7YI+qnJrPxM23p00Gg9pWCWKokzjmwC+qiLpZRFlBB0qujVLUF7kHkqro3V3ynsoE3sBmdCiw3bFHoHehrMGZQJODVD4xFaBIcOYxQlShUxVkJIavADsGdo5TLT2Xk0lymlRLvYjD1WsCtQHVr5lPip0KEf7R+Va0GO1L7QgmDRotFSoEOFliKp5OqotmxmUYvNKLwoCqkp2EDPtrCDErRB2ZZO9WiVwQOaEi1R50oTEF2igNZ3FHoIZh3xfcLkCXxweEmuLAPgEd2hlQAeJVE+JWpmJd0sMVE54djPnxYjlqlaYabeifQ+jl3+0H+rq3uff1MY0Jv2Pavq8nA4/JVer7fQscm1IMeMieyzeuY3a+0iz5/Z7KBF+DrEjkII6LJkPB7T6/UiC0lV6xk3CVItx7y3yFwDbTqdwvZ2mjdhz8N05byb6z2luRc7YyrscEhV14vsQNnXZfNWUesVEZxziAi9Xo/RaPQ5W1SX36zjv3lXaflD3zFl738vK/U/t7O/QPEVRGmU9PMFdpQIqaObFpTy8UJWjpAsM2UdElKFucQmIApLCMsosVRGo9wGbfl1OnWRghr0O1EsEevFZ1jUXoHw3OITBaLo1BivoO7fQW94O517HBpAWZAWQozJ6LSCzPP4ZVFBnIvJjnT6uFNx+thzaJmC70MYQEgp2sVLeLNLUDHb0vo+eKEILWW4SLP5lxRlh+ZeAoaOMyigwoK34DswBm08TgnK1DQEdCio7HtgdAYrDdNOQAJKfJK4ilVJIj7G9ESzKBZZVKYf//ljdYMwRfMRqvpDn9Ojn/2lN9U2eFO/bV1vFP3+LxZFsfChZ9zoxuNBtc/9t3nO/1zzbDabEZomTSydnE3qVdnMvDQEY6n7/WhN5tjHzYM0N+bX+v7r3lrLZDKhaRpE/CJSJq/AVOesVpF6DSkF/T4qaWTNj3NAGfhmh7UoramqCtPvn3/TT++bTvPco6dnl75xdnPnLynaJzmxm7I4tKJRgbbaikVCylK6CtuMwQPmMqgZmA7R0Pi7omdMXcgX6VGuD4A4x241wNkzSP3DLJ/+MBTvw888pi5gnmvvS4TIIrzZilIWYRTVCPRF3PZ/ZfvC40y3n0S5i9RmA8M0Kq4m14RXBYoCH53dWHZfk+K/+guyFtth4A+5Rl/uvR2jz7A0Wme88g4obwMZIVKitE6uLQ90+wwSiwQbyez0Amx9m8uz/xM9O8+4UNA6/EwwVYXQpM8Zz7PRl+Pf+YqoAXe049eEt0QHTflIbNczt6n9KcRAW3S04hHAmArblujWUYQJWMuzozsx+p2MBz/IYHx/j+rtszfz87/5jmalqAeDz3ah/2+6dv+vc8+Q4465P7aZTqlMeHmMS+0paM+ZSWxGlSZjVbG8vMxS/xTaFyhVgt+J7q7FexTEplnzK793yA+dN5BDWxCHGv5lkBF1XceakcRQI9t4tWUkTRxjoCyppCJ0hhAc+iaKr857zgcRvPcYkRhD8hacQ2vNYDBgMBz+7FEwrjd/AzHvOUfP/UHVqX8z0x1d8bUY9FJgKKi6k1GcDYchJOaRZqqMUiNlMPZs2qnzAnC0C0isPC7pMGabxnew48EKurgX/AlQJu4Bem/NsWEEQKuFRjVoCkx5Bl0sY8I94BvwAk6laVqCGCTVf3iVGImZHtJHN83n8DDDd0g7b+yapNi8GueKrxEfWaoKRCkDZUFV0bMp+xKnAlCNwBjM1gdomq8y7V6kRjA29nCPdU4GPa93kiptTNXcJXKk42eKp9LHWE9rW/pyZhr7i3pFQYnD0LWBYDrE9hE9ovEOY+9h0PtR6L3lj1Bvm73Zn/9oUl20mZWDwX8/Ho//F3PRfHB/LGRhOWQCclxMpAPWnnOOyWSCLncpVvSV5PPKP02neq8JEMqCUVFNxQco5y6wuIGotIHY9F4mJ2sd8/ljUd6DVFHHJBysCXldjoiioOr3cbOS0KS15CapQldKESR2iTLGIEQFCKM0ZVmytLT0e7bX+zxKH8lOeESX3z3nKO75D8Xo1Dc3d2ePF91jeHmJKgQKEXSnwffiLCrOx+I0pRcWBICVueWYGchRIrjYarSQlyg6jQlP4WQD0/SAMYT3I6bCqVj7odiN+VNuGNtC6GbOSfBYoA/YWCViLPsVLiB6w+c+cYBBOHG0PphbfgIc1gR/MdIYVSx2jRAgqJCUlqfEtDwf540CtFlc9x0Oxe0Y+wCBKS0TrHqBnpnF3ccP4odUyV8eejeUcWp0iuF2b49DmaajJkAAHWp0CNhyClazK8KmV1h9F8Xw/Qyqn/gX2HvOHtXnP1L7TfUH55aWlv4/mdSf2J3Nc7fzNXkcraT9bGSekdXf3YUypGIzecXlWl2hezQPlqrFhrHPYF38//omymvH0vIGcqhzf9jrde59UIlupHbp4dUjIBzUyRJUUVDXNX7XoCRRmJslyzMEJASUNYtRqeuaenn5V6h7l4/yox2xA+DuDTX4Z/946s780qz9k38l5tsUcimuDX4VggV/AlHgygtEf2UT+0G4mGcuWUvrSNGxjNUW0ypghi0nWH8e1z0Mu2Oo30pQZ3AspU2hIQC2CKiuj53VLNqa672bT+fVHNgqOgwNwgyVsms6vXLIb1Dlk3iYDeSQWUzKryUDJC5FYVEvpBBcMi+KfUtVYh8S/2aqegjCWPUxugD7KMFdjMxFZLFAKN0kg6IX4yv7uxgeIXS7Fr+32cBrIvOWirJbjrGe0IJ4lN7AK02j1xB9H67/8V9k/Kl/fdSf/8g9yKp++6yaPXR5NtHg92VXZBwb9qF1EsBCDugduemUel43cjUGshcE2XOF6L2nQnj5ArVfU0uQ1+QP6nW8IuMQ5/+wLpyUeSWJjMzFeOd6akq9+nnWaDwepTSqKLDWHmDENwP7QMcBcc5BAb1eb3swGJy9ET7eDRGCtMs/8/mBr3b89tqvztwfU3cNungpPunfiigIYRlUg9Y7abal9M2cRXOk8OUWXiy17qNCH9xZUBXWbLLVPEQxvRP6P0phIlMIrOIBSxdnn09GpW5BeUT7xT6ijU0/RV0lHSzIIFY6z7NnivJwLiyV+9EcBq/tIHz1LSZItc8Y4YoO5ZF5LKQ393suUzamLmDWQtA1Wq9iZQVxfbC7iO9SLQmISvNFdelxuDHMB5c6d9YvJDdeXNd86qUTzCVMVeHVOjMpUebHGK5+7H+k/xO/nTeQfaiXlp5rZ8U3nePe2AfZIF2X7cNjDuccSiJvCElg1yaW0c5mlFVKgtA6ijUeiMqqg7d5Ecl+qvI6GFJmIDcygz0Ex0lPFUVK03WOruuipLxSqZvm8R4fUxTgHE4J9WCJYjT6MmW5faN8vhsnCbL4xB/o8uQ33Wz4a9vmrz5hzCNYo9D+IoQ+xo2AERiLEgdmNy8AN8R5ey5aTOH2mLJPvbBNC/Uis62/YFwOoBgi7gw+2KiTqAp0UTA1kthEhyx6foAwZyI9DBakwASLCgotsVOECouXH+YL5HN4GBw2Bmmb19hgNBISLwl64SmdY2ADXl2GsAvqr9FuCxMM+GHUUoOk7SZ7HguxmJDO+xGr8YpJ398vYQCVGIiYLZzyqLJk0sxw/v0My3/wK3r9f/rsjXT6b6gserv+3u8uFV//zvSi/YRzntoWhNy08Fhja2sL25sw6AeUtdDGHunGRh2smG1jgIAQ0r3sW58MBgPKYExiIWFf07ojXwFvcQZx2OF7zXoNFd1QqdfMlVlfzjlEB0zXIU2zUIiG2Et9HmM5rvDeUxQFvf5ou1xaevaGO/83omTIznO/9+nJzpd+w8jf0DMX6XWg3TCqaKZFI2ZlgfG9fBUf5QQvon6b9sOkwtpLxmKHV9B6RW/8FuyJB2FwH4R3gjcEq9BmiGewiHXGqmaHDvui6uqKGIdykbEkn/ZMVa+1/GQGcpQW9ms8X7vmlZmAmKScy740X9l7vQqgzoF/Etq/RjYfx228ROGmEALBbaNLR9AOv6/Ozgjo7kQ6xNHGUF06vunW0vyP49AVu7QGtpsV6sGHGY1/7MfN2ke/dLMR0DcEw5WV74zH429ktd7jj6qq2N3dZff8+dj7QSkoiqv2q174w6/oYHdwUZGXbRCv9i/jiC3U17i99g4kV5kgCSHE59uWdnubnZ2dyEhSD/aboSe6MYbBYPBFMxyevRE/340pBDH48FftbPgzddV/0rvfB3UJ7Avxue62WCcQNVwx+Ro92gnUrMfrXEfrSVIfCBM8Boeyz6Pds7hwFraeB/UcVHcSyjEajUHvrSQCirnVue8+cuWYQaObxD6i7E/F6JDfoMsn8TA4rI1nX02Tyu7bhuZoAEfAEZhiLl1A7T6Dk98FP8OqHko0hBJsgegdgoKgbLKYu5TFmY57xAwk6C590/T99U6a7hUunGAw/ClU9ZGfp37/Y3kD+ft8sLreWDp58vNbL/C/5qv0GLswvEdrjYiwsbFBu/M8qlfD0FEUBdp5zNyFFaLbwkqx2ECCxL8Nqd1u0A1eO8TEDaTsXn0BeM0sLJU3kENdp/61CMSrO7GaIrmg1VU2ELGx96BSC/IRVIP3LZ10BJliL16k6i7jyl1KiTVJIQTkJoh/APTX1z+HefP7fLxuhnmjy6aHc199cOvF//wVK1+jX10kuEsYY1C8A9c06PJ8mljzCrR4b0SlSs4raKyJSp9d+nWZ3WRv0M5xpfvgKu4EMQSTY1gZ1w4tG0e8gOq00cXsQ68kboZmI8Za5uq6PjJlUbHGw9uYiWt334IpChxPRBXycpVtt07LjzI6+fEfqU9+8KEb2oC44SfIYHB2eXn53+9u6k855yjLkuAc3WxKURS5Zv247zNZ/CzjFoaxlnY2Q9dQFAVN16GNZnlp+TeL0ejZG/3zq2NxAe/8+QOTs196aLb9VwyG5ynChFmzxaCqoavSzp5aZu6zeLXst4TT8zrsWQqJqWQcEQOBRWfBjIxrWoA5WiUB5QZxutstvN63/oRhWl8CWjzoyQG7PUh8XpVTdmZTinKAqBHbu2v0xg8wuu3j76X/wCM3vIF/LGbJYHB2sLr6haqq6LoOpRRVVeWe6hkZGccazrnYz9wYnHP0ej1Ga2u/TK93/jh8fnWcXAjtS7/9LzZe+sqvWvkWw/73KBqPalM/iHme94KJzDVwkhrnQuXTAR6Vsh4kq7G+SQzk6raLKJfHKuPaF7CjPr5PUQAzIWjodIyJEPoAFCExELOdnCDz55cBmJRnoVcynd6FqLtZOfXgZ+yJ/+bXj8v4H6t+buXJU4+udCt/vnVRPuico9TZ/XHsFwCVXYgZhzFUjncMTWtN66IRtbq6+iV9Yv2RY3X9Hrsg5vTPPrhz7i++7mZ/ySBcouimUVFVuajvnzqPBQ2IjT52sQuLN/oko/ZStIBzJfKRMpKcRptxKBytEalkJ83vEwRl6ObZoGYLdIMRhwmgQhVrTyQpK+i4Tm2VK0zVXfT772N08gPvpXzgWG0gx69Uszc4Pzx16pfqus4xkIyMjGOPfr+/PTp58hcoj0fc43gzkDnOfeXB3c1vfMU3f0apLiO0aJlR2ll0zImjbVukGKSdPzKNIkjMzgqpQ5nNLpSjnYB5DDIOQWyP+PJVJFXwsELALjppYi6Bbih0bEfrux7BFWgzRhUVznt2W0+58kmq8YfeY1duzErzm4+BzFHXG/3l5c8XxZ4Lal7x7NsW7z1lWeYrLCMj48gQvCeEsFAJFhGaJhqvS0tLDMbjf217x495HH8GkjA993/92nTy2Gf8ZJPKbFJzGQmXMKrFVhWNDxCqRbaVDSSfZJsYSDaBD2cCJhvkNfsqvMI4S45BZRxmBTviLL6kFixJ0ypeBQadrguhja52a/ClYdosM3UnGA5PsrT04V9g/X/4/HEe/mMvV9lbX//m0tLSN+e7u1IqaixpTehygDYjI+MI9zelFp6REALGGPr9PkvLy48xHj977L/fzSAl0c7+/IHJxW8/FDa/je2+x0C/iFEXo6iaUbFCNPVeNhIZiJZZshxyQ6HrwkAWMyq8BvMImYFkXMcV7GgTafw86yplE2rR6GAgFJGdGAii2RXNTK+i6rdRje9lsPTu96j6/seO+/DfFKtnWQ/Orqyv/8x4PP4DrTVt2y52+4yMjIyjM7CiAaW1pigKhsPhQ8Px+DOq7l2+Gb6evTnO0n3PUd737+2SnQ1a94/cVhMNE+PRMkMC+KSBFQgoDSrMfac50H60BCb3LM44BAE54jQsX1yKG0S3hvFVUucF1HasT9MlSgoK/Q7qwX3owft+nupDX7tZxv/m8t8MBuf0iRNfKAeD2I0sK71mZGQc6Q4Xe7oXvd5lvbz8S4xGL9xcG/hNuMjK9jfu3d788iMbG19jPLiAdYJqA7r1WDFYY8FcAOfAmkjEhNSD+aB6Lym7AhUQBUKsbg9p7839RDIyjvECGOYeiKRkMe/fMb/+5z3Z5+2GVADl8Ik5i4BRA3RYxidJEq01wQRmKtC2Zxiu/AOK5Y+8i6UffOJmG7+bMoKsynJ7OBz+ysrKCt57vPcopSjLEmNMzM5yDqzNV1BGRsY1wxhD13W0TXMg42q+5qycOEExGv0yZbl9U661N21Dn8lTluaZBzcu/sWfuO5xjP47hkWHpkN2G2hPYouCzsx7EGti/nYamEX20Fzld+6rTz7X113/kJGRcaPCM++VHtLVve96FpvWhX2/ml/vqf5EuTG+bQnVS9Ar6SiY+hLhPsrePSytPPBRxg9++WYdv5s3h3Vwl2MwuLC8vv75wWCwISKLXiJ2rr+f60QyMjIOgdB1iwwrAO89WmtGo9HlpfX1z3GMq8xvbQay38q48Ief2tz88r9r24epzQUGuoC2R9u2mMofZBSJYexpNEnsbUxAh8Q4AovyBrGZgWRkHFe4dNmHhS0d7+eV5PuzvMycfAh7C0BXgNZ01YSJCXTFbdjeBxiMP/QPy8HH/+hmH79boorOLC09d2J9/XeGw+FCiyaEwH4drYyMjIy/N9IaMvduLC0tsbK+/uvlYHj2Vvj6twQDWdDNC3/8j3Y2/+b3m9mjqOIp+iZQTltQDkmUI+yPaYhJlkf0kxpJ1oewyNbIDCQj4xh7J9J1L6mxWXiZTR2iByLdQMO8C6EYXM+wI6DcOyiG99Ffef9HWf7wl2+V8buldDz0ePzc0okTn+/1ejOlFJLrRDIyMg6zAaWYx3A43O6vrn6O4a3BPG5JBrLA1p984vLWQ3883XiYM+E8mCkSWoJ0KNugjUHE0XUd1vRiNkY46O6aZ2tIbieSkXF8F0BSPQcHY6CifPRMiI+SSMoQnAIp0KoHogntgO8OVlgZ38/K6P4fZ/CRL91q43drKgnW9cbS0tIXVldXdyBq9ovIQjury/1EMjIyAGNtrCVzDq012pgo0hoC2hjW1ta2x+PxL1PXl2/F8VG3shvHbz22pl/8f8/PZt+l62ZU5QRttvHtBkY3FGUVCw7FLlRjQ2IcIflOTaYgGRnHmIGkVH7Ri5hnfCL93kLrHaJ7GLtKE0bMZjVF1afff+cX29P/9JP96p3bt+r43dJa5qauN9T6+v/TG412TLIsgEXFOs7lKywj4xaGdw6l1MI7Mc/eXBqPz9v19cdu5c3jlmcgC2z/55/cvPy9/9hMnsL45yn1BUo2sH6KEX9gr5Wk6jvXwjEhS8ZnZBxXSFKYUGJQwe61r0nZmC0ab4Y0akQbThPKO+iN7mZp5fYPqfrmUdXNDOQwGA7PjdfX//l4PP6d/Uwk9xPJyLi1Me906n0Mpo/H498ar639Q1UPzufRyQzkALrZVx9st7/5Fb/5GLp9gV7YwvgpiGNhmuiAaIckH6nKHfUyMo4tWjP3JBSYYFFBxZinCoDFFTUzdYJQ3kYxeg/l+L73m+pHHs4jlxnIy1DUw7OD9fXPLo3Hf22Mwfvc7Cgj41aG9z7GPFZXv9Y7efrTphqczaOSGchrT5wXv/7AZPsbDzWzv6Uun8KocxROUGKx0oNuFe8cbnAhKXO6WLEaLDpU4Ku0RXegGsRMYm92LIQ+3q8BUKkLebAzMq4RMzkVF7LiBYyaoGiiYoQ7Aa4Pbildhy2YKcFOQE8QkxJktn8ArTXOXqBTUzAeXxhcOMWsuZPR+Iepej/4/mI9s47MQP4eMMPh2aXV1V8cj8fPAbiUBz5X8XVdh8laWhkZx8BMVvG2DyISa7+sxTmHc46iKLDpsdaa5eXls8Px+BeLQWYdmYFcK6ZffXDr/N9+ZbLxTQp9lmExwYaLGD9BKQVhCKFCVMrSUg5UQzC78yEGsWg/TI8EcCizEV8flvIYZ2Rc896wk66jZRCzuA6D2QDdoFOlOX4YPQNhsGg2iAiheJEY9hjh9Ro73YDGn2Z44l7G6+/7EaoffSiPcmYg145e7/zS6dM/d/r06T8vy5K2bePENSZraWVk3PAbjIqG3kH6EW/Eug6bOpN2XUdRFJw+ffqh8alTn6XqbeQRzAzkuqE7/7ufvvzSQ7+h2/9KVVymtpco/IvJwllHZAmREq8hmG1QDegpEBV9TTCooJMF1MS5bLMbLCPjmheweaJL6IMG0YLXDjFb8fl5i9FuiPH9qGkXBFIF+qzQtFrTdd+HVG9nvHr/p4uT//g388hmBnLdUaysfPfkW97yhZWVlR2tNS5Xqmdk3NCYxzquoCWLmEgIAWMMKysrs7Xbb/9CsbLydB61zEDeWEz+9q0bF595utl8lGHxHzB4RLnYLyAUmORrNQFQDiUezMbeni0G/HKc4EVmyRkZ17yAuVH8ITGOBUI/3iEopfA2xkq80jFmiQF/gq3io/SH9zA8cfpdDH7wiTyimYG88ajrjeW1tR9eX1//fB6MjIzjx0LmsZGTp059bri+/p5bVU03M5AjRnvpzz7YXH746zuzb1IVz1CZ78Cso/RQmD7MRiA1aAMKgp3itcfZBqUUVZv38IyMa8XUzlBKUYhBuxLdGXBlVNdVCsxmjEnWhlAaNptTzLp1VsbvZnTyAx+l9+CX8yheO2wegsOhXFl5urTrv6A2Rj832w1vdeLolyWFB2ZzqWiBEOIGEsKifW5GRsb1YRfOCzZYtLKgdey7IALWYoyidS3TbkbRK1g//ZaHVf/0H4HOQczMQG4cbD/7u5+e7nzjN0x4lNI+SS/4hZqvdCcQMbQaxChCeRGlFP1ZnQcuI+MaMal3CCGgmyEFmhKN0hphGgPk1Qm2dkfMwl0Uo3czWL7nx8v1j34pj9z1QfafXEeM7rjjz0+eOfN/13XcFIwxKGNQWsduZuk2z0vPm3dGxiEXsKQOYa1Fa73H+NNz89qOtbW1h1fuuOMz5epqDpRnBnKDY+ubd2xufePn2tlj/wr5DlY2UWFCGUCjsKIQAsoFjMksOiPjWhFUgVIWAVrxdBLwyiJmiJjb6MJbWF794c/Ua//k1/NoZQZyPLB073PjM2e+sb6+/gfz7ob7WcdVc9MzMjL+3nDO4b2PscV0XWmtqaqKfr/P6e///i/Uy8u5tiMzkOOJ7ct/eTftt346TB/5P1T3bcruLLUDXIqNlFkyPiPjmhewXQ26QKyhLXq0xWko34UZ/MDPU9792/3xvc/mUXrjkLOw3mCMVu7/Fu78d8Lm6E+7SfUxIxa8f5k6aEZGxjVAx3RdpRTWWmy/jxku/1uGK09g8+aRGcjNRLenf/vW6fa3nm4mT9B05ynledabb4NSCD0IFU5KAILxKNMS1C7KtKh5xmFQSIjVtCZYrE9eyLQfiYqvEz1nNmHvA4iJNoMY5t5Lpab5xGRcM0RS3xvVgPKg2vnKDqGK8y1UKJnPtxbwkOadCymxxHYoFXA6pr4HqSBUBF+h6WEw6CAEaVAyQ9spaM137dtAvp+6PsVoeDeD4TvPUN2T5dczA7kJB7vXuzAyy/90UJ34ycm0+YxqLyHTkBZ8QSuFNakHszhc16FsAHyUQwGUaBT66iqjGRnHDMaYtBEJIXh8mudBPEoCWmt8F2MchdKYwgIFEnZxTUM9rOnVKw8tLZ36mipXvkjIWSmZgdzs6J4cyu7mdmieZbL5HZR/gVl4gYJLFOXzlBJQzqF8wPgVcD2QXryw9BRlplBF7R8f7J4dsI9ZkPogaFwiKO6A3aAEEIvkTSjjMAtIUrWVK2xR0VNQjqCbPUYiJvXjGCy0qmzxPPgAboy4Hir0ontXT0HvEuwGWI2zlk4UjbsNkVMU9jZ0eQdmeCe93l13MXxvDpRnBnKrjLqdqcFg3fSWf3Cpf9v9TJuP6cnGJ9z0Ml3XoREqrdHaxIraeWUtMbcdpfAh5HHMOPYIIaD3ZyWm+T2/11rDPItR4vwvyx798dqXGN3+Rcr1r+N7F3BPW+ydmX1kBnJrYmvjTz/Rbv/dHzP9FtY9TS2XqJlBtwtC9CfrEihBWQiCI+DrBlSzxzTm12GoQKpo0QFK0oZjtkDvgt6OlqI/lQc/4xAMZN55s0oxj+SSUrHzpugmMpE0MYUCxBIwIBWmLdACWgKoAHSgHKhZfNt6wDRUNJxAqrdTje6lGL37/UXvA7lHeWYgGXMsLS8/Tf/UZ5lc/GSYXHwwTLaQxqNEYgOcEICw56FSCkV2P2Uc8w1IKXRiF0hI3QIDaInJJc5RVEN6wxUYnfoig/XfQo1ykDwzkIxXglz4y7vb6VOPq9nTuO47GHmOEM5jcFgVLzoJJcFrDL10JjvQDYomWXCJzYuOdoJEyy9agAZSthf2Qh7wjGuHO5nm3zTOvyuz+uasRGxiJi5la8XYSSOjmIVlZoQQcMGjsGhzCvSdBO6gHrwbvfyOEwzvzpLrmYFkvOauPhqdq3onfopu58Fy44VP4+vTrisQ5xHJsY+Mm5uRWGMp6x4UwydYvuPfwsqfYGzON88MJONa4C8/enq68+2fbqeP/6rrnsCqZ9DViwxwmMkO2hiQtZjd4kZJTM7F3Hy7BWqHYFxkLroHoY93Q0SEIsVCMjKuBZ2K80ppQXshBNAhMlwdapAqzccQWXGxC2YX1ARE2KpLOpZQfhXP29D2bdjq3Z+u+3d+sVrJ9RyZgWQcGmblnnPD+uK3aE7+sp9d/KRrLt4xddA0DcOqAu+RziGuRQcXM1h06vtcFKAKtBIQIYggOYMr4zpCRA4o4GplQBUQCmgkqS4kLTjvQRzKCmhN27boStHv9ynqE0+Yav33KFYfo86bR2YgGdcf04ff3u1+98nd6Vl0+13K5gnETXChQ+MwNlCgCeKg83uFWtojzPCmQekWSZ3c7O7pPKYZ1wzXOx+LAH2B8RVKephgFs833QxrLaooQSpabwm+QOkSwwqz4Vug/j76vTso+m/9Pqr7svxIZiAZbxh6vY2iGP/UeNDdTZh9kPPPfZIu0HYK8YJSApKyW4whhLCoWL+ycj1XsmdcF/bBXo/xeWZgrCwPFEUBgPceCQ6UpaoqbD0Eu7Jdrd32R9j1h9BLj2CqnTyimYFkvNlW4ItPDKfNo5+aNX/3a04ex6inKIttehikDZhQo6SP9ho1l5MnahLppD2UkXEt8N2JZKw4lG4JtgE1w+sZHkGKPm3XZ7cbE9ydWPtOBv37PjkYvP0P1drbZnkEMwPJOOqTeOqdO6PZS4+Ouou/3HXnP9XOXjztuh1c52JtlveI77BiMXNLUemc0ZVxaMw7bCqlooab9wiOYDxBges6jDGM+2Pq8raHdXXHb2NPPkIvbx6ZgWTcmIzk0jfubbeffsQ3T2H886jwLMG/ROlTC1BVgh9ACEj1fB6wjEMsICoGzIEgis5Zgqyi7DrYM3T6NLb+fqrxHXfplfdlvarMQDJu+JM6Hj9teyd/DD/7ELP2YzTbH5PpDkyT1HYQ8J7gParK45VxCHgP2kBiItZajO3BYPks9dqX6/4dX8KceogiV49nBpJxPDH9q7vb6fOPt5NnaWdnkfY8XnYpZJN+sQkuEELApOB7gY66RAGgAx2iyJby8XHchdLdKwTi5/NKDHN9JEJSC5a9LJ3Z4NLLLdroHIn/pz4SzPtJLN4/PvbFfrXXPVXief+JhatlPs3VQbeddYdz4zlzhQ2W3j/sfaH4kRbHPXi8qpUDfyeLvi7pfXT8hddy4Pk56p3l9Pf7+r8ov6dEsP+4SoE6OC7OGbQq0Sr1iRGTWsOm9gEmvp/XDhHBMRdbM4gpmaAJsorV61jzNmz9NurqXe8yaz/0RL7wMgPJuCnOsp2Vy8sfLsf+blpzL7vm/nZ66R20bs3PLqNJri1SjxEffdnKBbQJIH6xMAXlk89bXr2r4vw5ufJ36uDvDok9A0j2bVr7fr5iP7uuBz9w/IPvLy97LNd0/Pn7L+4P92Ff9g5a65g5leqDRGIsQyXJHOcc2gjo2LtDSEkYShFEGAwH2GKFsj71BNXtv0dx+kuE8TP5ossMJOMmhmx8e1l1k7XZ9FtPKv88s+5FvHuOoJ7D6MsYNcWKQlNifIX4Ot4vTOQOlEeZcEU6sD5gZystgCfg91nGbmGZF7PV1/ikr8EQzIyDprm++jqtrujQOO/cyOCQF1BzxW/0FQOdPpe6+vPTYs+G03PBZAEtKrKmIOkj6yQ4eHBIuqVL+45jEzNLDEzs4sBartxLEsORFqUDWpNUc1N/Dx0IWtGFAi9LeL+ED+so1rHmduryBNquYcenfkSbE0+ylHWqMgPJuHUsh+V3bdA9tVOPTv4UXfNgNWvv72abH+tC30qYoKRjQT5IdSVaLxZACR5JK1m0WF+9pkRFk5brbq4sWMcVDONlB5Kr36vrdHxegeG84ud4k85zyo56ZcY0r+Fg0VtcUqp3CIIxBoXF2gpUn8IuPVJWJ75Mb/0RypOP0Ft5GvLmkRlIRgYQLv3d6bZ54YF29szvu+45FC+AnEPCBRQ7GNVSKI1ohQlQOr9nAItlHuMI6fF8Y5n79GP9yR4TKLql+OOVMYIFY3AHH1/5unaVRYzlwPNz+AOMY9EwZR5jsIfLJtVd/+qMA/ZiMvs/3xWxGaqX0p/pl/+d7MWM9sb3IJPxdmPv8SK2ZPe+ZtoQNAGRDpSglEel8du1FqQiiEJ8Dy8lwhD0EqKH6HIFY9eoBrdRVqdQ5ckzVO/JAfGMzEAyrrIgnnjPubqZPVl303+O7x4gdB+QdvZAM9ula2eIb2Ouv6gUl1Uvs2pjoWK0zhcbiFwni//l5vPBN30ZE1IHf69e6XWHOf5VjnfwYK/w/BFYjPvqgCB2BEQCQWINeVEUlNWQsj5xnnL5acqVpzCrj1GtPI4ZPQa98/kqycgMJOPvBf/i37y16555ugvn8OEFWn8e8ZdYaRq0zICA4FCqQaRDaDE4tJaFNbywwINeWOKu3n7lBXhhidurPJ+ytFJW2Csmg13BTPZeFx+X7nA2VGsPMp4rYw1XZoPtR0xwKg58LdHzbCzBKwgqEHS838/k5kddmowOMiztD35/bZFgFh0ABYtWPUQpFDXn62UMK1izTGlOUdiTFOWZd6mcRZWRGUjG9YIZj58z9vR9NfoeXPhgaOT+rgn38uKLw8hCOMg0uIq//SrZUdfDon5dhOJlr1PX9fiv9K6v1jXyKKTI5gwEpdBKs7y8/HRpVh/T9fpjFLc9hF57jLD8VJ7xGZmBZLw5ePFby7PZS/dOp9/9SuueBTmHNhew5jJKtrB4LGBEoUOFcgXiYr0B/c14H+aifNHtpcRH373eW5hjcDcshPpEhKI6aOGHfbGE2LlRsT8GEa7I1rLucF/dXcFAFAdjNFonF19iDvoK+ZiZCIo9iZk5MwFQ3uAlYMTG3SZcufsUuLYPRmOKKB/iVdSgckpwYlB2CefWCWEFpc5gizsYlG/9UNm77b9w6i6XJ29GZiAZR4tTd2/Uk/B4rcKPIfZ+WvugdHwweL/WTGco3yLO0XUOHTRWDEYXKK3pUsaPOkBU9h53Xbfomz23nrXWC5l6lF9kDYlIFPDb99iacsEL1L54yR5zOJwBtZ+BHKzZiD83TbtouBRfK/viEIqyKJCg0bDYFL2P98oL2pp9iWMCIfUNT33EbVkiCCG0OHF45eKGYg3GVPRHy6BPPkt528MU3/dlzJmHcCcfoZ83j4zMQDKOAfzG37y1aZ5/upk9T9s9g3MvEtjGqAmn7WRRCS8ie2rBaREtigIdBAkK5fdeN1+oTT3bW8iVivvDgrYoaFLlvOhktR+sbKfcPSQF6e3f+djLIku/K0xa8EmLf9wAFjLoTe8gq1Am3psUI3JdTJ+ep9imAj+VfveCGRJYxqgBxpyisLdT1bdTVbffZZaz9lRGZiAZxxxmNDrXH67+UN/7ewj+g4Ty7hA271SyfXryvUfqeQGd1prCmFh7YOMK3DYNOggKgwG0Te4crdNG0R2oQJcQEOdQ8wV6vmGEec1KWGwgIgL2kIrEbXtFv5Wwt5Ephcxm6XDqZfUWKAW93h6zCEk+JoTF57R1fWCDkuDjJuqjIsBtd9wG+sQTSg/PYk49gjr9MOrEY+isPZWRGUjGDQrH0zZaIHce3hWy+fga7WStbTYfn7WX6ZrLdN0FgrtIUTcoNhG1g5JtgkwwahfRHTqADafSmwSU9nHjUA6jYgW80dHNpWQeg5i7yOJjp3qH2xxD6oGkFYglKFDYVA5i8QEQg0eleg5Bwl5BZu1fTJ++IDBEVE1gTNAjAmN2XY0yJ7D1KkV5krIeU/bWvq+oeuep3p4l0TPyBpKRQfvkEGbLqN112F2DzTtg805mL95DuPx2/Mad0l0eNu0GvtugC1Nw4cAGgorMQ2mPJgAe76JUh5IouaLn3RpTbnErh5MjtjKJ5CAV+nlkr/APizZFKqzUSNCIkr0CwbSBaK3RRR/sMlRLUKw5ypUnUMtPMzz9MGr5KdTwLGHpWai2UcOz6DtzDCMjbyAZGYfB7ot/+Cnl23/nfEvXzfBuQud2cH4KYYqxghEPqsOIe1kle+naQx1/ZmRfxb0BVaCweGUhVDRe0KqPsRWFGWLKisL2MIVFq+Iz9al/8uv5LGYcV+QYSMaxRn9t7VuIAzzxvgHVAG38uduNgl7SQOjia0IS+RKBQ24gYwtQpJhMAbpMtwKkhqKK92lDQZv0egViHs9nMOM44/8H10V5PSwdniwAAAAASUVORK5CYII=;" parent="1" vertex="1">
          <mxGeometry x="436.5" y="479" width="50" height="50" as="geometry" />
        </mxCell>
        <mxCell id="N_H7r8gi8kSWgMIb8MQw-30" style="edgeStyle=orthogonalEdgeStyle;rounded=0;orthogonalLoop=1;jettySize=auto;html=1;entryX=0;entryY=0.5;entryDx=0;entryDy=0;" parent="1" source="N_H7r8gi8kSWgMIb8MQw-4" target="N_H7r8gi8kSWgMIb8MQw-18" edge="1">
          <mxGeometry relative="1" as="geometry" />
        </mxCell>
        <mxCell id="N_H7r8gi8kSWgMIb8MQw-33" style="edgeStyle=orthogonalEdgeStyle;rounded=0;orthogonalLoop=1;jettySize=auto;html=1;" parent="1" source="N_H7r8gi8kSWgMIb8MQw-5" target="N_H7r8gi8kSWgMIb8MQw-21" edge="1">
          <mxGeometry relative="1" as="geometry">
            <Array as="points">
              <mxPoint x="590" y="826" />
              <mxPoint x="590" y="864" />
            </Array>
          </mxGeometry>
        </mxCell>
        <mxCell id="N_H7r8gi8kSWgMIb8MQw-34" style="edgeStyle=orthogonalEdgeStyle;rounded=0;orthogonalLoop=1;jettySize=auto;html=1;" parent="1" source="N_H7r8gi8kSWgMIb8MQw-6" target="N_H7r8gi8kSWgMIb8MQw-21" edge="1">
          <mxGeometry relative="1" as="geometry">
            <Array as="points">
              <mxPoint x="590" y="923" />
              <mxPoint x="590" y="864" />
            </Array>
          </mxGeometry>
        </mxCell>
        <mxCell id="N_H7r8gi8kSWgMIb8MQw-37" value="Development Environment" style="swimlane;whiteSpace=wrap;html=1;labelBackgroundColor=none;fillColor=#d5e8d4;strokeColor=#82b366;" parent="1" vertex="1">
          <mxGeometry x="47.5" y="440" width="330" height="570" as="geometry" />
        </mxCell>
        <mxCell id="N_H7r8gi8kSWgMIb8MQw-1" value="OpenAPI Generator" style="shape=image;verticalLabelPosition=bottom;labelBackgroundColor=default;verticalAlign=top;aspect=fixed;imageAspect=0;image=data:image/png,iVBORw0KGgoAAAANSUhEUgAAA+gAAAPoCAYAAABNo9TkAAABgmlDQ1BzUkdCIElFQzYxOTY2LTIuMQAAKJF1kbtLA0EQhz8TRfENWlhYBIlWRnyAaCOYIFEIIjGCryZZc4mQxOMuQYKtYBtQEG18FfoXaCtYC4KiCGJhZa1oo3LO5YSImFl29tvfzgy7s+CKpFTarOyFdCZrhIN+z+zcvKf6iSoaqaCPyqgy9dGpqRBl7f1WIsWufXat8nH/Wt1S3FRQUSM8onQjKzwuHFrN6jZvCbeqZHRJ+ES425ALCt/YeszhZ5sTDn/abETCAXA1C3sSvzj2i1XSSAvLy/GmUzn1cx/7JfXxzMy0rB0y2zEJE8SPhwnGCDAoXRkWP4iPfnpkR5n83mL+JCuSq8Tr5DFYJkGSLN2i5qR6XFZN9LiMFHm7/3/7amoD/U71ej9UPVrWaydUb8JXwbI+Dizr6xDcD3CeKeWv7MPQm+iFkubdg6Z1OL0oabFtONuAtns9akSLklumS9Pg5Rga5qDlCmoXnJ79nHN0B5E1+apL2NmFLolvWvwGD5VnvvFB6VkAAAAJcEhZcwAALiMAAC4jAXilP3YAACAASURBVHic7N15uGR3Qef/T2chCfsSZY0ksshP9lUt2VIeZBGXFkVBkVL5Dai4IYIzIyriBqIoiKKMTANKFNEaQMCBYwFBGhEIIKiQRJOwhIjZSEIWknTPH3U76XSqu++tW6e+Z3m9nqeedN++Xffj0un7zvfUqR179+4NAAAAZVXj6pgkd0tyj41/3jbJLZLcfL/HgT+/eZKbJbkqyWUHPC5d8PNLk5yd5IwkZ9Sz+qK1/A/HpuwQ6AAAAOtRjaubJDkp8wg/8PE1SXasedIF2Yj1Ax/1rL5kzVsGT6ADAAA0pBpXd0ryyCSP2vjnvZIcUXTU5n0hyfuTnJrkvUk+Wc/qPWUn9ZtABwAAWIFqXO1IctdcH+OPTHL3oqNW66Ik78v1wf6xelZfU3ZSvwh0AACAJVXj6o5JnpjrT8lPKLtorS7L/IT9vUnemeS0elYLzG0Q6AAAAFtQjavbJHlSkqckOTnrf914W52R5JQkp9Sz+lOlx3SRQAcAADiMalzdNMm3J3lqkscnObrsotb7aJI3JPnLelZ/tvSYrhDoAAAAC1Tj6ugk35r5Sfl3Zf52ZmzdqZmfrL+pntXnlx7TZgIdAABgP9W4+tokP5P5afntCs/pk2uS/F2S30/y916vfmMCHQAAIEk1rh6Y5HlJnpzuvBVaV52W5CVJ/tqd4K8n0AEAgMHaeGu0cZLnJ3lM4TlD9B9JXppkVz2rryg9pjSBDgAADE41ro7M/E7sz0vy4MJzSP4rycuT/GE9qy8sPaYUgQ4AAAxGNa6OS/L0JM9NcrfCc7ixLyf5kyQvG+Ld3wU6AADQexuXsj8189c936nwHA7vmsxvJver9ay+pPSYdRHoAABAr1Xj6gFJXpHk4aW3sGXnZX5/gD+rZ/We0mOaJtABAIBeqsbVbZP8WpJnxl3Zu253kp+sZ/VppYc0SaADAAC9snEDuGck+fV4H/M+2Zv569P/Zz2rLyg9pgkCHQAA6I1qXI0yv5z9QaW30JgLk/xikj+pZ/W1pceskkAHAAA6rxpXt8/8BnA/VHoLa/OxJD9Rz+rdpYesikAHAAA6rRpXj03yuiRfXXoLa7c38/sM/Go9q68pPWa7BDoAANBJ1bg6OvM4e17pLRT3viQ/0PX3ThfoAABA51Tj6qQkpyT5htJbaI0Lk/xwPavfUnrIsgQ6AADQKdW4+t4k/yvJLUtvoZVenuR59ay+qvSQrRLoAABAJ1Tj6rgkL8v8fc3hUD6a5PvrWX166SFbIdABAIDWq8bVvZP8RZL7lN5CZ3w5yY/Vs/r1pYdslkAHAABarRpXT0/yR0mOK72FTnptkmfVs/rK0kMOR6ADAACtVI2rHUlekOSFpbfQeacm+c56Vl9cesihCHQAAKB1qnF1ZJJXJPmx0lvojU8keVw9q88tPeRgBDoAANAq1bg6NsmfJXlS6S30zjlJHlvP6k+XHrKIQAcAAFqjGle3SvLmJI8qvYXeuiDJt9Wz+oOlhxzoiNIDAAAAkqQaV3fK/LXC4pwm3S7JrBpXjy895EACHQAAKK4aV/dMsjvJ/UpvYRBumuQt1bj6odJD9ucSdwAAoKhqXD0syduSHF96C4P0vCQvrWd18Th2gg4AABRTjauTk7w74pxyXpLkN0uPSJygAwAAhVTj6iGZx/nNS2+BJD9fz+qXlhwg0AEAgLWrxtW9krwvTs5plx+qZ/XrS31xgQ4AAKxVNa5OSPL+JCeU3gIHuCbJd9Sz+h0lvrhABwAA1qYaV8dnfnJ+r9Jb4CAuTzIu8T7pbhIHAACsRTWubpHk7RHntNtNk7ytGldft+4vLNABAIDGVePqmCR/k+ShpbfAJtwuyf+txtWd1vlFBToAANCoalztSLIrSVV4CmzFXZP8XTWubr2uLyjQAQCApj0nyfeXHgFLuG+SN1fj6th1fDGBDgAANKYaV49O8uLSO2AbHpnkVev4Qu7iDgAANKIaV3dOclqSry69BVag8fdIF+gAAMDKVePqJknek+SbCk+BVflykgfVs/r0pr6AS9wBAIAmvDTinH65WZK/2HhHgkYIdAAAYKWqcfUDSX6y9A5owAOTvKSpJ3eJOwAAsDLVuLpvkg8mOa70FmjQd9az+i2rflKBDgAArEQ1ro5O8qEk9y+9BRp2YZIH1LP6s6t8Upe4AwAAq/L8iHOG4bZJ/rwaV0et8kkFOgAAsG3VuLp3kl8qvQPW6BFJXrDKJ3SJOwAAsC0bp4i7kzy09BZYs71JHl7P6t2reDIn6AAAwHb9TMQ5w7QjySurcXXkKp5MoAMAAEurxtU9k7yo9A4o6AFJ/tsqnsgl7gAAwFKqcXVEkvcmeXjpLVDYhUnuWc/qC7bzJE7QAQCAZT0z4hyS+V3df227T+IEHQAA2LJqXN0qyZlJji+9BVpib5KH1LP6tGWfwAk6AACwjOdFnMP+diR5RTWudiz7BAIdAADYkmpc3SXJc0rvgBYaJfnBZX+zQAcAALbqhUmOLT0CWuol1bi65TK/UaADAACbVo2r+ySZlN4BLXaHJC9Y5jcKdAAAYCt+KzoCDudnqnF1wlZ/kz9YAADAplTj6uQk31Z6B3TAUUl+dqu/ydusAQAAh7VxZ+oPJnlo6S3QEV9OckI9qy/a7G9wgg4AAGzGoyLOYStuluTHt/IbBDoAALAZP1d6AHTQT1fj6rjNfrJABwAADqkaV1+X5Imld0AHfVWSp2/2kwU6AABwOD9TegB02HOrcXXkZj5RoAMAAAdVjavj433PYTvuluRJm/lEgQ4AABzKs5IcW3oEdNzzN94J4ZAEOgAAsFA1ro5J8uzSO6AHHpRkfLhPEugAAMDBPCXJ7UuPgJ447L0cBDoAAHAwP1p6APTI46pxdbtDfYJABwAAbqQaV3dN8vDSO6BHjkryPYf6BIEOAAAs8tTSA6CHnnKoXxToAADAIgIdVu+R1bi6y8F+UaADAAA3UI2r+yW5T+kd0EM7knzfwX5RoAMAAAdyeg7NOeifrx179+5d5xAAAKDFqnF1RJKzk5xQeAr02b3qWf3pAz/oBB0AANjfwyPOoWkLbxYn0AEAgP19b+kBMABPqcbVjgM/KNABAID9fWvpATAA90zyoAM/KNABAIAkSTWuvibzcACa95gDPyDQAQCAfarSA2BAHnXgBwQ6AACwj0CH9fnmalwdtf8HBDoAALDv7dUEOqzPLZI8YP8PCHQAACBJ7pvkq0qPgIF55P4/EegAAEDi9BxKEOgAAMCN3OiO0kDjHrHx8pIkAh0AAAavGlc7knxT6R0wQLdNcu99PxHoAADAiUluWXoEDNR1b7cm0AEAgPuXHgADdt3r0AU6AADwgMN/CtCQh+/7gUAHAAAEOpRzx2pc3TIR6AAAgEvcobS7JwIdAAAGrRpXt878JnFAOfdIBDoAAAzd/UoPAAQ6AADg8nZoA4EOAADkpNIDAIEOAAAkdy49ABDoAABAcpfSA4AcX42rWwt0AAAYNifo0A73EOgAADBQ1bg6IsmdSu8Akgh0AAAYtOOTHF16BJAkOVGgAwDAcLm8HdrjFgIdAACGyw3ioD0EOgAADNgdSw8ArnNzgQ4AAMN1s9IDgOsIdAAAGLBjSw8AriPQAQBgwI4pPQC4jtegAwDAgAl0aA8n6AAAMGAucYf2EOgAADBgTtChPQQ6AAAMmECH9hDoAAAwYAId2uNYgQ4AAMN1dOkBwHUuE+gAADBcl5ceAFxHoAMAwIBdVnoAcB2BDgAAA3Zp6QHAdQQ6AAAMmBN0aA+BDgAAA+YEHdrjUoEOAADD5QQd2sMJOgAADJgTdGgPgQ4AAAPmBB3aQ6ADAMCAXVx6AHAdr0EHAIABO6f0AOA6Fwl0AAAYrvOSXFl6BJAkOVOgAwDAQNWzem+cokNbnCHQAQBg2M4qPQDIniT/IdABAGDYzi49AMhn6ll9lUAHAIBhO7v0ACBnJIlABwCAYXOJO5Qn0AEAACfo0AICHQAAyOmlBwACHQAABq+e1RcnObP0Dhg4gQ4AACRJPlR6AAzYtdm4F4RABwAABDqU86l6Vl+dCHQAAECgQ0mn7vuBQAcAAD6aZE/pETBQ7933A4EOAAADV8/qLyf5l9I7YKCcoAMAADfw4dIDYIDOqGf1F/b9RKADAACJ16FDCafu/xOBDgAAJMm7Sw+AAXrv/j8R6AAAQJJ8OhvvxQysjRN0AADghupZvTfJ20vvgAH5TD2rz9n/AwIdAADYR6DD+rz3wA8IdAAAYJ93J7my9AgYiFMP/IBABwAAkiT1rL4iyaz0DhiAPUneduAHBToAALA/l7lD8969//uf7yPQAQCA/b2j9AAYgDcs+qBABwAArlPP6v9I8q+ld0CPfSXJ3yz6BYEOAAAc6PWlB0CPvaOe1Rcv+gWBDgAAHOj1md/ECli9hZe3JwIdAAA4QD2rP5/knaV3QA9dluRvD/aLAh0AAFjkf5ceAD30f+pZffnBflGgAwAAi7wlyUWlR0DPnHKoXxToAADAjdSz+socJiaALbkgybsO9QkCHQAAOBiXucPqvKGe1Vcf6hMEOgAAcDAfSfLJ0iOgB65N8rLDfZJABwAAFqpn9d4kf1B6B/TAG+tZfdbhPkmgAwAAh/LaJOeVHgEd95LNfJJABwAADmrjZnGHvTQXOKh31rP6Y5v5RIEOAAAczquSXFx6BHTUizf7iQIdAAA4pHpWX5LklaV3QAd9OMm7N/vJAh0AANiMlye5svQI6JgXb9xscVMEOgAAcFj1rP5ikv9Vegd0yJlJplv5DQIdAADYrJcmuab0COiIl9az+tqt/AaBDgAAbNZRSS4pPQI64NzM36JwSwQ6AABwWNW4uluS9yS5beEp0AU/v/EWhVsi0AEAgEPaL87vUngKdMH7kpyyzG/csXfvpm8oBwAADIw4hy3Zk+RB9az++DK/2Qk6AACwkDiHLfujZeM8EegAAMAC4hy27IIkv7SdJxDoAADADYhzWMr/qGf1hdt5AoEOAABcR5zDUk5L8qfbfRKBDgAAJBHnsA3Prmf1tdt9EoEOAACIc1jea+tZ/YFVPJFABwCAgRPnsLQvJnn+qp5MoAMAwICJc9iWp9Wz+j9X9WQCHQAABkqcw7a8uJ7V71zlEwp0AAAYIHEO2/KPSV6w6ifdsXfv3lU/JwAA0GLiHLblS0keUM/qs1f9xE7QAQBgQMQ5bNszmojzRKADAMBgiHPYtlfVs/pNTT25QAcAgAEQ57Btn0zynCa/gEAHAICeE+ewbVck+b56Vl/R5Bc5qsknB+iqXbt3Hp3kVUnuX3oLQAu8YjKavrb0CJYjzmElnlXP6n9t+ou4izvAATbi/JQkTyq9BaAl9ib5kclouqv0ELZGnMNKvKCe1b+2ji/kEneA/YhzgIV2JHnNrt07J6WHsHniHFbilUl+fV1fzAk6wAZxDnBYTtI7QpzDSrwpyffXs/radX1BgQ4QcQ6wBSK95cQ5rMR7kjy+ntVXrvOLCnRg8MQ5wJaJ9JYS57ASH0/yqHpWf2ndX1igA4MmzgGWJtJbRpzDSpydZFTP6i+U+OJuEgcMljgH2BY3jmsRcQ4rcX6Sx5aK80SgAwMlzgFWQqS3gDiHlfhykifUs/r0kiMEOjA44hxgpUR6QeIcVuKyJN9ez+oPlR7iNejAoIhzgMZ4TfqaiXNYifOTPK6e1R8pPSRxgg4MiDgHaJST9DUS57ASn0ny8LbEeSLQgYEQ5wBrIdLXQJzDSvxbkm+uZ/WnSw/Zn0AHek+cA6yVSG+QOIeV+GCSR9Sz+nOlhxxIoAO9Js4BihDpDRDnsBLvSlLVs/qC0kMWEehAb4lzgKJE+gqJc1iJv8j8bu2XlR5yMAId6CVxDtAKIn0FxDls27VJfi7JU+tZfVXpMYfibdaA3hHnAK3jLdiWJM5h2/4zyZPrWX1q6SGb4QQd6BVxDtBKTtKXIM5h23YneVBX4jwR6ECPiHOAVhPpWyDOYdtenuTkelafW3rIVrjEHegFcQ7QGS53PwxxDttyeZJn1LP6lNJDliHQgc4T5wCdI9IPQpzDtnwsydPqWf3J0kOW5RJ3oNPEOUAnudx9AXEOS/tKkl9M8rAux3niBB3oMHEO0HlO0jeIc1jaPyX5kXpW/0vpIavgBB3oJHEO0AtO0iPOYUlXJnluklFf4jxxgg50kDgH6J3BnqSLc1jKqZnfCO6M0kNWzQk60CniHKCXBnmSLs5hy85P8uOZv31a7+I8cYIOdIg4B+i9wZyki3PYkiuS/G6Sl9Sz+pLSY5ok0IFOEOcAg9H7SBfnsGl7krwmya/Us/rzpcesg0AHWk+cAwxObyNdnLfChUluleTI0kM4pL9N8gt9ugHcZgh0oNXEOcBg9S7SxXkrfC7Jo5Nck+TnkjwjyXElB3Ej/5Tk+fWsfk/pISUIdKC1xDnA4PUm0sV5K3wuyaPrWf3v+z5QjauvTvJTSZ6d+ak65bw1ye8kObWe1YONVIEOtJI4B2BD5yNdnLfCjeJ8f9W4umWSZyZ5TpI7rHPYwF2RZFeS36tn9emFt7SCQAdaR5wDcIC9SR44GU0/XnrIVonzVjhknO+vGlfHJnl65ifq92l62ICdl+QPkryqntUXlB7TJgIdaBVxDsACvzQZTV9UesRWifNW2HSc768aVzuSPCjJDyd5apLbNLBtiN6X+V3ZT6ln9VWlx7SRQAdaQ5wDsIA4Z1lLxfmBNk7Vvz3zWH9skiNWsG1IPpHkDZlH+Tmlx7SdQAdaQZwDsIA4Z1krifMDVePqzkl+MMnTktx7lc/dM5/JPMrfUM/qT5Qe0yUCHShOnAOwgDhnWY3E+YGqcXVSkscneUKSb0lybJNfrwM+neRdSd6Y5P31rN5TeE8nCXSgKHEOwALinGWtJc4PVI2r4zJ/f/UnJPm2JCet8+sX8sUk9b5HPas/W3hPLwh0oBhxDsAC4pxlFYnzA23cYO6eSU5O8tAkD8n8jvBdf+36l5J8IPNT8jrJJ52Sr55AB4oQ5wAsIM5ZVivi/GCqcXXTJA/MPNj3Pe5RdNShnZXkY0k+vt8/z6lntXhsmEAH1k6cA7CAOGdZrY7zg6nG1a0zj/QTM78kfv9/nphmX9P+lSTnJvl85v/7+3ySszOP8X+uZ/WXGvzaHIJAB9ZKnAOwgDhnWZ2M88PZuEz+9knumuTWSW6e5BYH+efNMg/uq/Z7XHnAjy/PPMj3xfj5TsPbSaADayPOAVhAnLOsXsY5w9b1GxUAHSHOAVhAnLMscU4vCXSgceIcgAXEOcsS5/SWQAcaJc4BWECcsyxxTq8JdKAx4hyABcQ5yxLn9J5ABxohzgFYQJyzLHHOIAh0YOXEOQALiHOWJc4ZDIEOrJQ4B2ABcc6yxDmDItCBlRHnACwgzlmWOGdwBDqwEuIcgAXEOcsS5wySQAe2TZwDsIA4Z1ninMES6MC2iHMAFhDnLEucM2gCHViaOAdgAXHOssQ5gyfQgaWIcwAWEOcsS5xDBDqwBHEOwALinGWJc9gg0IEtEecALCDOWZY4h/0IdGDTxDkAC4hzliXO4QACHdgUcQ7AAuKcZYlzWECgA4clzgFYQJyzLHEOByHQgUMS5wAsIM5ZljiHQxDowEGJcwAWEOcsS5zDYQh0YCFxDsAC4pxliXPYBIEO3Ig4B2ABcc6yxDlskkAHbkCcA7CAOGdZ4hy2QKAD1xHnACwgzlmWOIctEuhAEnEOwELinGWJc1iCQAfEOQCLiHOWJc5hSQIdBm4jzt8QcQ7A9cQ5yxLnsA0CHQZsvzj/ntJbAGgNcc6yxDlsk0CHgRLnACwgzlmWOIcVEOgwQOIcgAXEOcsS57AiAh0GRpwDsIA4Z1niHFZIoMOAiHMAFhDnLEucw4oJdBgIcQ7AAuKcZYlzaIBAhwEQ5wAsIM5ZljiHhgh06DlxDsAC4pxliXNokECHHhPnACwgzlmWOIeGCXToKXEOwALinGWJc1gDgQ49JM4BWECcsyxxDmsi0KFnxDkAC4hzliXOYY0EOvSIOAdgAXHOssQ5rJlAh54Q5wAsIM5ZljiHAgQ69IA4B2ABcc6yxDkUItCh48Q5AAuIc5YlzqEggQ4dJs4BWECcsyxxDoUJdOgocQ7AAuKcZYlzaAGBDh0kzgFYQJyzLHEOLSHQoWPEOQALiHOWJc6hRQQ6dIg4B2ABcc6yxDm0jECHjhDnACwgzlmWOIcWEujQAeIcgAXEOcsS59BSAh1aTpwDsIA4Z1niHFpMoEOLiXMAFhDnLEucQ8sJdGgpcQ7AAuKcZYlz6ACBDi0kzgFYQJyzLHEOHSHQoWXEOQALiHOWJc6hQwQ6tIg4B2ABcc6yxDl0jECHlhDnACwgzlmWOIcOEujQAuIcgAXEOcsS59BRAh0KE+cALCDOWZY4hw4T6FCQOAdgAXHOssQ5dJxAh0LEOQALiHOWJc6hBwQ6FCDOAVhAnLMscQ49IdBhzcQ5AAuIc5YlzqFHBDqskTgHYAFxzrLEOfSMQIc1EecALCDOWZY4hx4S6LAG4hyABcQ5yxLn0FMCHRomzgFYQJyzLHEOPSbQoUHiHIAFxDnLEufQcwIdGiLOAVhAnLMscQ4DINChAeIcgAXEOcsS5zAQAh1WTJwDsIA4Z1niHAZEoMMKiXMAFhDnLEucw8AIdFgRcQ7AAuKcZYlzGCCBDisgzgFYQJyzLHEOAyXQYZvEOQALiHOWJc5hwAQ6bIM4B2ABcc6yxDkMnECHJYlzABYQ5yxLnAMCHZYhzgFYQJyzLHEOJBHosGXiHIAFxDnLEufAdY4qPQC6RJwDK/TlJJce5HHZxucck+QmG4/D/Xj/f95sXf9DkEScszxxDtyAQIdNEufAIVyb5LNJzt7vcU6SC3N9cN8gwCej6Z6mxuzavfOYJHdIcqeNxx0P8uPbNrVhQMQ5yxLnwI3s2Lt3b+kN0HriHAZvT+bfTJ+93+Os/X78ucloek2RZduwa/fOYzMP+f2j/R5J7pvkfhHwhyPOWZY4BxYS6HAY4hwG5zNJPrzxOC3JGZkH+FeKrlqzXbt37sg83O+b64P9vkm+PvNL6YdOnLMscQ4clECHQxDn0HvnJflQrg/yj0xG0/8sO6nddu3eeVTmp+z7gn1fvJ9YcNa6iXOWJc6BQxLocBDiHHrn/Nwwxj88GU3PLTupP3bt3nnLJN+YZLzxeHD6+W4x4pxldTbOd+3eef/JaPrx0jtgCAQ6LCDOoRf+K8nfbTzen+Qzk9HUX3prsmv3zlsleWSSkzMP9vuXXbQS4pxldTnOX5DkhUl+ZDKa7io8B3pPoMMBxDl01p4k/5jkHRuPjzZ5p3S2ZtfunccneVTmsX5ykv+v7KItE+csq+tx/qsbP90bkQ6NE+iwH3EOnfOFXH9K/q7JaHpR4T1s0q7dO++YeaifnKRKu1/DLs5ZVl/ifB+RDg0T6LBBnEMnXJv55ervyDzKP+6y9e7buGP8A5N838bjrmUX3YA4Z1l9i/N9RDo0SKBDxDm03FVJ3pzkjUnqyWj6pcJ7aNBGrD8s81B/cpI7F5wjzllWX+N8H5EODRHoDJ44h9Z6f5LXJXnjZDS9uPQY1m/X7p1HJPmmzGP9e5PcYY1fXpyzrL7H+T4iHRog0Bk0cQ6tc3bmUf76yWh6ZuEttMiu3TuPTPKIzGP9e5Ic3+CXE+csayhxvo9IhxUT6AyWOIfWuDTzy9dfl+Qf3Hmdw9m1e+dRmd9c7skbj1uu8OnFOcsaWpzvI9JhhQQ6gyTOobg9Sd6ZeZS/eTKaXl54Dx21a/fOWyR5WpKfTHKvbT6dOGdZQ43zfUQ6rIhAZ3DEORR1epJXJ/nzyWj6hdJj6I+Nm8tVmYf6E5Ps2OJTiHOWNfQ430ekwwoIdAZFnEMx70/y20ne6hJ2mrZr9867JfnxJD+a5Fab+C3inGWJ8xsS6bBNAp3BEOewdnszf3u0356MprtLj2F4du3eefMkP5j5qfrXH+TTxDnLEueLiXTYBoHOIIhzWKuvJHltkt+ZjKafLj0GNi5/PznJTyX5jlx/+bs4Z1ni/NBEOixJoNN74hzW5uIkf5jkFZPR9LzSY2CRXbt3npT55e8XTEbT3yq9Z6vEeSuI880R6bAEgU6viXNYi88m+d0kfzoZTS8tPQb6Spy3gjjfGpEOWyTQ6S1xDo375yQvSfLGyWh6dekx0GfivBXE+XJEOmyBQKeXxDk06vQkz0vylslo6i8RaJg4bwVxvj0iHTZJoNM74hwac0GSX0nyx07MYT3EeSuI89UQ6bAJAp1eEefQiKuS/H6S35iMpl8qPQaGQpy3gjhfLZEOhyHQ6Q1xDo04Jcn/mIymZ5ceAkMizltBnDdDpMMhCHR6QZzDyv1DkudORtMPlh4CQyPOW0GcN0ukw0EcUXoAbJc4h5U6M8mTkjxSnMP6ifNWEOfN25HkNbt275yUHgJt4wSdThPnsDIXZv5N3R9NRtOvlB4DQyTOW0Gcr5eTdDiAQKezxDmsxLVJXp7kRZPR9KLSY2CoxHkriPMyRDrsR6DTSeIcVuJfkkwmo+mHSw+BIRPnrSDOyxLpsMFr0OkccQ7bdm2SX0/yYHEOZYnzVhDn5XlNOmxwgk6niHPYtk9mfmr+kdJDYOjEeSuI83Zxks7gOUGnM8Q5bMu1SX4tyUPEOZQnzltBnLePk3QGzwk6nSDOYVs+kfmp+WmlhwDivCXEebs5SWewnKDTeuIclnZN5t/EPUScQzuI81YQ5+3nJJ3BcoJOq4lzWNo/Z35q/tHSQ4A5cd4K4rxbnKQzOE7QaS1xDku5JskLkzxUnEN7iPNWEOfd4ySdwXGCTivt2r3zqCSnRJzDVpyZ5MnCHNpFnLeCOO+2vUl+eDKavrb0EGiaE3Ta6k4R57AVb41Tc2gdcd4K4rz7diT5ydIjYB0EOkC37U3ygiTfNRlNKCUb8QAAIABJREFULy49BrieOG8FcQ50ylGlBwCwtIuSPHUymv5d6SHADYnzVhDnQOcIdIBu+liS756MpmeVHgLckDhvBXEOdJJL3AG653VJRuIc2kect4I4BzpLoAN0x9VJfiLz9ze/ovQY4IbEeSuIc6DTXOIO0A3nJvmeyWj6gdJDgBsT560gzoHOc4IO0H6nJnmwOId2EuetIM6BXhDoAO32siTVZDQ9r/QQ4MbEeSuIc6A3XOIO0E7XJnnGZDTdVXoIsJg4bwVxDvSKQAdon6uSPHkymr6l9BBgMXHeCuIc6B2BDtAulyb59slo+t7SQ4DFxHkriHOglwQ6QHv8V5LHTUbT00oPARYT560gzoHeEugA7fCZJI+ZjKanlx4CLCbOW0GcA73mLu4A5f1bkm8W59Be4rwVxDnQewIdoKx/SvKIyWj6udJDgMXEeSuIc2AQBDpAOXWSb5mMpheUHgIsJs5bQZwDgyHQAcp4U5InTkbTy0oPARYT560gzoFBEegA6/fqJN8/GU2vKj0EWEyct4I4BwZHoAOs128leeZkNL229BBgMXHeCuIcGCRvswawPr8yGU1fWHoEcHDivBXEOTBYTtAB1uOl8U0btJo4bwVxDgyaQAdo3quSPG8ymu4tPQRYTJy3gjgHBk+gAzTr9Ul+QpxDe4nzVhDnABHoAE36myQ/MhlN95QeAiwmzltBnANsEOgAzfi7JE+djKbXlB4CLCbOW0GcA+xHoAOs3qlJnuR9zqG9xHkriHOAAwh0gNX6SJJvn4yml5ceAiwmzltBnAMsINABVuczSZ44GU0vKT0EWEyct4I4BzgIgQ6wGpck+bbJaHpe6SHAYuK8FcQ5wCEIdIDtuzbJ90xG00+WHgIsJs5bQZwDHIZAB9i+H5uMpu8qPQJYTJy3gjgH2ASBDrA9L5mMpq8uPQJYTJy3gjgH2CSBDrC8v07y30uPABYT560gzgG2QKADLOeDSZ42GU33lB4C3Jg4bwVxDrBFAh1g6z6f5Dsno+kVpYcANybOW0GcAyxBoANszdVJvncymv5n6SHAjYnzVhDnAEsS6ABb85zJaPqB0iOAGxPnrSDOAbZBoANs3ilJXll6BHBj4rwVxDnANgl0gM351yT/bTKa7i09BLghcd4K4hxgBQQ6wOFdluRJk9H0stJDgBsS560gzgFWRKADHN4PT0bTT5UeAdyQOG8FcQ6wQgId4NB+dzKavqn0COCGxHkriHOAFRPoAAf3wSS/UHoEcEPivBXEOUADBDrAYpcn+cHJaHp16SHA9cR5K4hzgIYIdIDFfnYymp5ZegRwPXHeCuIcoEECHeDG/jbJq0uPAK4nzltBnAM07KjSAwBa5vwkz/B+5zSlGldHJPmqJHfOPDbvmORmSY5NcszGY/8fH5Pk6MxfdnFZkkv3++f+P744yTlJzqtnda/+/1ect4I4B1gDgQ5wQ///ZDT9z9Ij6LZqXN06yf03Hifl+hi/c+ZBfnSDX/7Kalydk+TsJGcd8M/T61l9cYNfe+XEeSuIc4A1EegA13vNZDT9P6VH0B3VuNqReYDfP8kDNh73T3LXgrOOTfJ1G48bqcbVmUk+tN/jo/Ws/vL65m2eOG8FcQ6wRgIdYO6sJD9TegTttnF5+v2SVEkek+Qbk9yy6Kitu/vG4ykbP99Tjat/SfLhzIP93Uk+XfoyeXHeCuIcYM0EOsDc0yej6aWlR9A+1bg6IfMYf0ySb8n89eN9ckSS+248fnjjY2dV4+rtSd6e5N31rL5inYPEeSuIc4ACBDpA8trJaPq+0iNoh41T8m9O8uQk35rknmUXFXFSkp/YeFxZjatZ5rH+9npWn9XkFxbnrSDOAQoR6MDQXZrkF0qPoLxqXN0vyQ9kfun3CYXntMmxSZ6w8Ug1rv41yZ8leV09qz+/yi8kzltBnAMUJNCBofuVyWh6XukRlFGNqxMzD/KnJrlP2TWd8fVJfiPJr1Xj6p1J/neSt9Sz+srtPKk4bwVxDlCYQAeG7N+SvKL0CNarGlfHZB7kP5r5pews54gkj9t4XFSNq1Myj/WPbPUGc+K8FcQ5QAsIdGDIfmoyml5degTrUY2r45P8WOavq7594Tl9c5skP77x+GQ1rl6ZZNdmTtXFeSuIc4CWEOjAUP3NZDStS4+gedW4ulfmb6H39MxfT02z7pPkj5L8cjWuXpbkVfWsvmTRJ4rzVhDnAC0i0IEhujLJc0qPoDnVuNqR5NGZ/9/5iWXXDNYdkrw4yX/fOFF/eT2rv7jvF8V5K4hzgJYR6MAQ/eZkND2n9AiaUY2rkzMPw4eW3kKS5NZJ/meS51Tj6k+TvDTz7z/eE3FekjgHaCGBDgzN2Ul+u/QIVq8aV/dN8lvZeDswWue4JM/O/D4AX0py27JzBk2cA7SUQAeG5mcno+kVpUewOtW4ukvm37BPkuwou4ZNODLivCRxDtBiAh0YkncmeXPpEaxGNa5uleT5SX42bv4GmyHOAVpOoANDcU2Sn56Mplt6f2bapxpXRyR5VubfrN+u8BzoCnEO0AECHRiKl01G00+VHsH2VOPqnkn+NMnDS2+BDhHnAB0h0IEh+EKSF5UewfKqcXVU5pey/2pczg5bIc4BOkSgA0PwvMloemnpESynGlf3SfKaeNs02CpxDtAxAh3ou/cn+fPSI9i6alwdnflN4H4pydGF50DXiHOADhLoQN/9lBvDdc/Gqfnrkzyg9BboIHEO0FFHlB4A0KC3TUbT00qPYGuqcfUDST4YcQ7LEOcAHeYEHeizl5QewOZV4+omSX4nybNLb4GOEucAHSfQgb76xyTvKz2CzanG1Z2T/FWSbyq9BTpKnAP0gEvcgb56sdeed0M1rh6d5LSIc1iWOAfoCSfoQB99OslbSo/g0KpxtSPJc5P8ZpIjC8+BrhLnAD0i0IE++u3JaLqn9AgOrhpXxyR5bZLvK70FOkycA/SMQAf65twkf1Z6BAdXjatbJJkm+ZbSW6DDuhznvxBxDrCQQAf65vcmo+lVpUewWDWujk/y9iQPLb0FOqyzcb7h+NIDANrKTeKAPrkkyR+XHsFi1bg6IfM764tzWF7X4zxJXpnETTwBFhDoQJ/80WQ0vaT0CG6sGlf3SvL+JPcqvQU6rA9xnsloelaSt5beAdBGAh3oi68k+f3SI7ixalw9JPOT8xNKb4EO60Wc7+flpQcAtJFAB/ritZPR9AulR3BD1bg6Ocm74zWnsB19i/MkmSX519IjANpGoAN9sDfJS0uP4IaqcfWwJH+b5Oalt0CH9THOMxlN9yb5g9I7ANpGoAN98DeT0fT00iO4XjWu7pnkbUluWnoLdFgv43w/r0/ypdIjANpEoAN98JLSA7heNa7ulOSdcVk7bEff4zyT0fSyJK8pvQOgTQQ60HXvmYym/1R6BHPVuLpVknckuWvpLdBhvY/z/XjLNYD9CHSg615cegBz1bg6Nsmbk9yv9BbosCHFeSaj6b9n/nIYACLQgW77VJL/W3oESTWujkzy50keVXoLdNig4nw/ryg9AKAtBDrQZW/YuBMwBVXjakfmd2P+7tJboMOGGudJ8q7M/4MrwOAJdKDLTik9gCTJC5I8q/QI6LAhx7m3XAPYj0AHuupDk9H0zNIjhq4aV5MkLyy9Azps0HG+n9cluaT0CIDSBDrQVW8oPWDoqnF17yR/WHoHdJg43zAZTS9N8leldwCUJtCBLtqb5I2lRwxZNa6OS/KXSY4rvQU6SpzfmH+vA4Mn0IEuevdkND239IiBe1mSe5ceAR0lzhebJTm/9AiAkgQ60EVuDldQNa6+N8kzS++AjhLnBzEZTa9J8teldwCUJNCBrrk6voErphpXJyV5dekd0FHi/PD+svQAgJIEOtA175iMpheVHjFE1bg6OvOrF25Vegt0kDjfnFOTnFd6BEApAh3oGndvL+dFSb6h9AjoIHG+SZPR9Nokbyq9A6AUgQ50yZeTvLX0iCGqxtW3Jnl+6R3QQeJ861zmDgyWQAe65M2T0fTy0iOGphpXt0/y+tI7oIPE+XJ2J/l86REAJQh0oEtc3l7Gi5N8dekR0DHifEmT0XRPkr8qvQOgBIEOdMWFSd5VesTQVONqlOTppXdAx4jz7XOZOzBIAh3oir+ajKZfKT1iSKpxdWSSV5TeAR0jzlfjg0nOKT0CYN0EOtAVp5QeMEA/muRBpUdAh4jzFZmMpnuTvLH0DoB1E+hAF3w+yftKjxiSalzdNslvlN4BHSLOV89l7sDgCHSgC964cdMg1udFSW5XegR0hDhvxmlJzi49AmCdBDrQBW4Ot0bVuLp/kmeV3gEdIc4bsnGZ+9+X3gGwTgIdaLs9Sd5fesRQVONqR+Y3hvP3AxyeOG/erPQAgHXyDRjQdh+djKaXlB4xIE9J8ojSI6ADxPl6vLv0AIB1EuhA27239IChqMbVcUl+u/QO6IALI87XYjKafiHJp0rvAFgXgQ603amlBwzIDyW5U+kR0AG3THJN6RED4hQdGAyBDrSdt1dbg2pcHZnkuaV3QEccleTnSo8YEK9DBwZDoANt9onJaHph6RED8d1J7l56BHTIM6px9VWlRwzEe0oPAFgXgQ60mdefr8HGndufX3oHdMxxSX669IghmIym5yf559I7ANZBoANt5vXn63FykgeXHgEd9OxqXN2y9IiBcJk7MAgCHWgzrz9fD6fnsJxbJXlm6RED4UZxwCAIdKCtPj0ZTc8rPaLvqnH1wCTfWnoHdNhzqnF1bOkRA3Bqkj2lRwA0TaADbeXy9vX4+dIDoOPukOTppUf03WQ0vTjJR0rvAGiaQAfayg3iGlaNq5OSfF/pHdADz9642SLNcpk70HsCHWgrJ+jN+9n4ewBW4T5xo8V1cKM4oPd8Ywa00VmT0fSzpUf0WTWujk7y1NI7oEcmpQcMwAdKDwBomkAH2sjpefMek+R2pUdAjzzVzeKaNRlNL0lyTukdAE0S6EAbef1585yew2rdJsl3lB4xAP9cegBAkwQ60EZO0BtUjaubJvmu0jughyalBwzAJ0oPAGiSQAfa5otJ/qP0iJ57YpKblR4BPfTYalzdufSInhPoQK8JdKBtPjUZTfeWHtFzLm+HZhyR5GmlR/ScS9yBXhPoQNucWXpAn1Xj6jZJHl96B/SYQG/WGUm+UnoEQFMEOtA2Z5Qe0HPfneQmpUdAj319Na5OKj2iryaj6dVJ/q30DoCmCHSgbQR6s55SegAMgKtUmuV16EBvCXSgbQR6Q6pxdcck49I7YACeUHpAz3kdOtBbAh1oG69Bb863JdlRegQMwLgaV8eVHtFjTtCB3hLoQJt8fjKaXl56RI89qvQAGIjjkjy69IgeE+hAbwl0oE1c3t6sR5YeAAPiMvfmnJvkwtIjAJog0IE2EegNqcbViUm+pvQOGJAnVOPKS0oaMBlN98YpOtBTAh1oE4HeHKfnsF5fm+SepUf0mEAHekmgA20i0Jvj9eewfieXHtBj/r4AekmgA23iG67mOEGH9Xto6QE9dm7pAQBNEOhAW+xN8u+lR/RRNa7ulOTupXfAAD2k9IAeE+hALwl0oC0+NxlNryw9oqecnkMZ967G1U1Lj+ipL5QeANAEgQ60hcvbm+P151DGkUkeWHpETwl0oJcEOtAWAr05TtChHK9Db8DGFVfeCx3oHYEOtIVAb0A1rm6S5F6ld8CACfTmOEUHekegA20h0JtxUvy7HkoS6M1xozigd3zTBrTFWaUH9NQ9Sg+AgbtHNa5uXXpETwl0oHcEOtAWF5ce0FMCHcrz57AZLnEHekegA21xWekBPSUMoLwTSw/oKSfoQO8IdKAtBHoz7l56AJCTSg/oKYEO9I5AB9rgqsloenXpET3lBB3KO7H0gJ5yiTvQOwIdaAOn5w2oxtUxSb6m9A7ACXpDnKADvSPQgTYQ6M342vj3PLTBiaUH9NR5pQcArJpv3IA2EOjNcHk7tMOJ1bjaUXpE30xG0yuTXF56B8AqCXSgDQR6M+5WegCQJDk2ye1Lj+ipq0oPAFglgQ60gUBvxm1LDwCuc9fSA3rqK6UHAKySQAfa4NLSA3rqFqUHANe5dekBPeUEHegVgQ60gRP0Zty89ADgOv6DWTOcoAO9ItCBNhDozRDo0B7+PDZDoAO9ItCBNhDozRAE0B5O0JvhEnegVwQ60AYCvRmCANrDn8dmOEEHekWgA23gJnHNcIIO7eHPYzMEOtArAh1oAyfozRAE0B5O0JvhEnegVwQ60AYCvRkCHdrDn8dmOEEHekWgA20g0JshCKA9blZ6QE8JdKBXBDrQBpeXHtBTggDaQ0g2wyXuQK8IdKANblJ6QE/5xhXaw5/HZvgPH0CvCHSgDdw8qRleOgDtIdCbIdCBXhHoQBt4rXQzBDq0x5WlB/TU3tIDAFZJoANtINCbIdChPZygN8PfH0CvCHSgDXyD1QyBDu0h0JvhJVJArwh0oA0EejMEOrSHQG+GQAd6RaADbSDQm3Fp6QHAdbwGvRkCHegVgQ60gW+wmuEEHdrj8tIDesrfH0CvCHSgDZygN0OgQ3ucW3pATwl0oFcEOtAGAr0ZLnGH9vhc6QE9JdCBXhHoQBsI9GYIdGiPz5ce0De7du88MslNS+8AWCWBDrSBQG/G2aUHAEmSq5OcX3pED/m7A+gdgQ60gW+ymnFG6QFAkuTcelbvKT2ih1zeDvSOQAfawDdZzRDo0A4ub2+GvzuA3hHoQBs4QW9APasvjstqoQ3cIK4ZAh3oHYEOtMFNN272w+o5RYfynKA3w3/cBXpHoANt4U68zRDoUN5ZpQf0lBN0oHcEOtAWTkKacWbpAUA+XnpAT9229ACAVRPoQFs4CWmGE3QoT6A3466lBwCsmkAH2uIupQf0lECHss6uZ/WXSo/oqRNLDwBYNYEOtMU9Sg/oKYEOZX2s9IAeO7H0AIBVE+hAWwj0BtSz+pIkXyi9AwbM5e3NObH0AIBVE+hAWwj05ry/9AAYMCfoDdi1e+fRSU4ovQNg1QQ60BYCvTnvLT0ABswJejPuEt/HAj3kX2xAW9xt1+6dR5Ye0VOnlh4AA3VJkrNLj+ipE0sPAGiCQAfa4iZxJ/emfDLJRaVHwAB9oJ7Ve0uP6KkTSw8AaIJAB9rEZe4NqGf1niTvK70DBuhdpQf02EmlBwA0QaADbSLQm+N16LB+dekBPXZi6QEATRDoQJsI9OZ4HTqs1xeTfKL0iB47sfQAgCYIdKBNBHpzPpbk0tIjYED+fuPlJTTjxNIDAJog0IE2EegNqWf1NfF+6LBOXn/ekF27d7qpKNBbAh1ok6/dtXvnUaVH9JjXocP6eP15c05IsqP0CIAmCHSgTY5O8jWlR/TYO0sPgIH4dD2rP1t6RI+52groLYEOtI1vvJrz0SSnlx4BA+A/hjXrQaUHADRFoANtI9AbUs/qvUneUHoHDMAbSw/ouYeUHgDQFIEOtI1Ab9YppQdAz30mye7SI3ruoaUHADRFoANtc/fSA/qsntWnJzmt9A7osTd4e7Xm7Nq98w5xB3egxwQ60Db3LD1gAFzmDs3x56tZDy49AKBJAh1om7vt2r3zNqVH9NxfJtlbegT00CfqWf2J0iN6zuvPgV4T6EDb7Ejy8NIj+qye1Z9LcmrpHdBDTs+bJ9CBXhPoQBs9qvSAAXCzOFg9f64atGv3zh0R6EDPCXSgjR5ZesAAvCnJNaVHQI/8Qz2rzyk9oufulOQOpUcANEmgA230oF27d96i9Ig+q2f1BUneUXoH9Miflh4wAE7Pgd4T6EAbHZlkVHrEAPx+6QHQE+fF5e3rINCB3hPoQFu5zL15s3hPdFiFP6hn9VWlRwyAQAd6T6ADbeVGcQ2rZ/XeJC8uvQM67ookf1x6RN+5QRwwFAIdaKuH7dq987jSIwbgr5P8e+kR0GGvrWf1+aVHDMBdkxxfegRA0wQ60FZHJ/nG0iP6rp7V1yZ5aekd0GG/V3rAQLgvCTAIAh1oM69DX4/XJvli6RHQQW+tZ/WnS48YiMeXHgCwDgIdaDOvQ1+DelZfkeTlpXdAB/1u6QFDsGv3ziOSPLb0DoB1EOhAm33Trt07b1J6xED8YZLLSo+ADvlQkveWHjEQD0ryVaVHAKyDQAfa7NgkDy09YgjqWX1Rkj8pvQM65Pkb74RA81zeDgyGQAfazuvQ1+f3klxdegR0wNvqWf3u0iMGRKADgyHQgbbzOvQ1qWf1Z5P8fukd0HJ7kvxC6RFDsWv3ztsm+YbSOwDWRaADbffNu3bvPKr0iAF5UZLzSo+AFttVz+pPlh4xII+J71eBAfEvPKDtbp7kgaVHDEU9qy9J8vOld0BLXZHkl0uPGJjHlR4AsE4CHeiCk0sPGJg/T/L+0iOghV5Wz+rPlR4xFBtvrybQgUER6EAXPKn0gCHZuDP1TyZxh2q43vlJXlJ6xMDcP8kdSo8AWCeBDnTBw3bt3nm30iOGpJ7VH03yx6V3QIv8cj2rv1R6xMA4PQcGR6ADXfGU0gMG6BeTXFh6BLTA+5K8qvSIAfL2asDgCHSgK56ya/fOHaVHDEk9qy9I8j9L74DCrkzyo/Ws3lN6yJDs2r3z1klGpXcArJtAB7ri65Pct/SIAXp1ko+WHgEF/WI9q88oPWKAqiRHlh4BsG4CHeiSp5YeMDT1rL42ybPjhnH/r717D9btrus7/slJCHIJIGgLWGkKBGILogIybgQ0HkCqJSwRUBHcOBSEFojlVkCxSAcUkJulUKkzi8pFEd0WC4N29VFAlwgFxWq1IipI8TJYRK6BkNM/np3knGSfc/bleZ7vurxeM8+cOeeP5JOZnP3s917r+S3m6d1JXlo9YqYeWj0AoIJAB8bku3Yfu8MGdYuuT/Lc6h2wYZ9P8v27P6Rig9q++dIkl1bvAKjgG11gTP5xkm+oHjFTz83yoCyYix/tFt0fVI+YqYcmOb96BEAFgQ6MjdPcC3SL7ookD49T3ZmH341nnld6ZPUAgCoCHRibh7Z9c171iDnqFt1fJHlU9Q5Ys88keUS36L5QPWSO2r65KE5vB2ZMoANj8+VJvqV6xFx1i+7NSV5evQPW6NHdovv96hEz9ojqAQCVBDowRk5zr/W0ePQa0/TybtG9oXrEXO0eAirQgVkT6MAYNW3f3KB6xFx1i+7yJA9L8qnqLbBCfZKnVo+YuXslubB6BEAlgQ6M0QVJvq16xJx1i+4DSR5XvQNW5K+TPKRbdJ+vHjJzDocDZk+gA2PlNPdi3aJ7bZLXVO+AI/pikod1i+6j1UPmrO2bGyZ5SPUOgGoCHRirb2v75qbVI8gPJHl79Qg4gqd3i87/w/UelOXdUQCzJtCBsbp+kqZ6xNx1i+5zWX5j/XvVW+AQfi7Ji6tHkMTt7QBJBDowbk5zH4Bu0f1dkgck+VD1FjiALsn3dYvuRPWQuWv75tZJ7lu9A2AIBDowZsfbvrmoegTJ7ud375fkY9VbYB/enaTZfSIB9R4e35MCJPHFEBi3c5I8pXoES92i++MsT9f/TPUWOIM/TPJt3aLzmMAB2H32+aOrdwAMhUAHxu772r65ZfUIlrpF9+4kD05yRfUW2MOHk9yvW3Tu9BiOBya5Q/UIgKEQ6MDYXT/JE6tHcI1u0b0tyfdX74Br+ViWcf6R6iGc4qnVAwCGRKADU/D4tm9uUj2Ca3SL7mfiG2+G41NJvrVbdP+negjXaPvmnkm2qncADIlAB6bgpkkeUz2CU3WL7kVJnl+9g9n7dJIHdovuvdVDuA4/xAO4FoEOTMUPtn1z/eoRnKpbdM+Mg/yo87Ek39wtul+rHsKp2r65OMml1TsAhkagA1Nx63gu+iB1i+4nkjwiDo5js/48yT27Rfee6iHs6cnVAwCGSKADU/K03Uf2MDDdonttkn+R5e3GsG7vT7K1++g/Bqbtm1sleWT1DoAh8o0sMCUXZxmBDNDu6e6XZHnbMazLrye5T7fo/rJ6CKf1hCTnV48AGCKBDkzN06oHcHq7z0m/Z5IPVW9hkt6U5AHdovtE9RD21vbNBUkeX70DYKgEOjA1W23ffGP1CE5v97bjrSS/V72FSfmPSb6rW3Sfqx7CGT06yydvALAHgQ5M0dOrB3Bm3aL7aJL7JHlH9RYm4dlJ/nW36L5YPYTTa/vmekl+sHoHwJAJdGCKvr3tmztVj+DMukX3d0nun6QtnsJ4fTbJdrfontstuhPVYzirhyX5yuoRAEMm0IGp8uztEegW3ee6RfeoLB/D5oR3DuL3k9ytW3SvqR7C2bV9c06cEQJwVgIdmKqHt33jSs1I7D6G7euS/E71FkbhVUm+vlt0/7t6CPt2aZI7V48AGDqBDkzVefFZx1HZPTzuG5K8rHoLg/WJJA/pFt3jukX32eox7M/uZ89fUL0DYAwEOjBlj2n75hbVI9i/btFd3i26y7K82vb/qvcwKO9K8jXdontT9RAO7AeSXFQ9AmAMBDowZTdK8pzqERxct+jenOQuSd5ZvYVB+LEk9+4W3Z9XD+Fg2r65WZIfqd4BMBYCHZi6x7V9c5fqERxct+g+kuSSLH/I4oTuefqbJPfvFt0zukX3heoxHMozk7iTCWCfBDowdceS/OTuCcKMTLforugW3b9Lcs84QG5u2iR37hbdr1YP4XDavvknSZ5UvQNgTAQ6MAf3SvJd1SM4vG7R/VaSuyd5XHw2ferem+QbukX3qG7R/U31GI7keUnOrx4BMCYCHZiLF7V9c+PqERxet+i+2C26VyW5Q5JXJrmyeBKr9bEkj0lyj27Rvat6DEfT9s094gejAAcm0IG5uHWSH6oewdF1i+5vu0X3+CR3S/Kb1Xs4siuT/Ickd+gW3au7RffF6kEcze5Hil5cvQNgjAQ6MCf/pu2bO1SPYDW6Rfc7WX584RFJ/rJ4DofzziRf1y26J3SL7uPVY1iZ70iyVT2XKjoJAAAc6UlEQVQCYIwEOjAn10vyUgfGTUe36E50i+61Se6Y5IVJnPQ9Dh9N8j1J7tMtuvdXj2F12r45P8mPV+8AGCuBDszNA5J8e/UIVqtbdJ/sFt3Tktw2yU8k+VTxJPb2J0kem+R23aJ7Q7foPD5veh6f5HbVIwDGSqADc/TStm++pHoEq9ctuo90i+4pSW6T5FlZPkebeu9J8p1JLu4W3U91i+5z1YNYvbZvbp7k2dU7AMZMoANzdNskT6kewfp0i+7j3aJ7XpILs3w02wdrF83WryS5JMuT2X/BAXCT98NJvrR6BMCYnXPihLvLGJ62b26T5EPVO5i0zya5eHtr58PVQ1i/45ccPzfLg6uenuSuxXOm7otJfi7JC7tF97vVY9iMtm/unuRdcfGH9Xnv9tbO3apHwLqdVz0AoMgNkrwoyUOrh7B+u1duf/74JcfflOSbk1yW5XkE3gdX52+TvC7JS7tF92fVY9ictm+un6SNOAc4Mt+YAHP2kLZvLtne2llUD2Ezdg8lWyRZHL/k+C2SPDjL08TvncTp/gf3qSS/lOT1Sbpu0TlFf56eneSfVo8AmAK3uDNIbnFng/4gyddub+0Iixk7fsnxr0jysCxj3S3wZ/b5JG/NMsrf0i26zxTvoVDbN3fL8tb2c6u3MHlucWcWXEEH5u6fZflYoJdVD6FOt+j+b5IXJ3nx8UuO3yHJd+++7lg6bDiuzPLOgzck+cVu0f1d8R4G4KRb28U5wIoIdIDkR9u++dntrZ2/rh5CvW7R/XGS5xy/5PiPJvmaJPdLcp8k35jkgsptG/ahJO9I8vYsr5T/VfEehueHs/whJwAr4hZ3Bskt7hR4c5IHbW/t+KLIno5fcvy8JHfJ8vPq90lyryQ3Lx21Wh/INUH+jm7R+RrMabV9c9ckvx1Xz9kct7gzC66gAyw9MMn3J/np6iEMU7forkjy3t3XS45fcvxYllcPrwr2eya5dd3CA7kyyR/mmiB/Z7foPlo7ibFo++b8uLUdYC0EOsA1Xtb2za9vb+18sHoIw9ctuiuT/K/d1yuS5Pglx2+S5PZJLjrpddXvv3zDE6/M8k6kDyT5k91fr3r9ebfoPr/hPUzHDye5U/UIgClyizuD5BZ3CvVJ7rO9tXNF9RCm5fglx2+Wa2L9wiw/z35Bkhtf63XtP/uSLB9ndu3XJ/f4/cdzTYz/WbfoLt/Ifxyz0fbN1yV5d1w9Z/Pc4s4suIIOcKqtJE9L8rzqIUzL7snn/3P3BaPj1naA9TtWPQBggJ6ze5UIgGs8K8mdq0cATJlAB7iu85K8tu2bG1QPARiCtm++Nskzq3cATJ1AB9jbVyX5seoRANXavrlZkp+Pj0YCrJ1ABzi9J7Z9c2n1CIAqbd8cS/IzSW5XvQVgDgQ6wJm9pu2b21ePACjyrCTfXj0CYC4EOsCZ3TTJL7R9c8PqIQCb1PbNA5I8p3oHwJwIdICz++okr2z75pzqIQCb0PbNbZO8PomvewAbJNAB9ueRSf5l9QiAddu9Y+gXk9ysegvA3Ah0gP37ybZv7l49AmBddu8UelWSu1RvAZgjgQ6wf+cneVPbN7eoHgKwJo9P8ojqEQBzJdABDuY2SV7X9s251UMAVqntm60kL63eATBnAh3g4O6f5MeqRwCsSts3t0zypiTnVW8BmDOBDnA4T2n75rHVIwCOqu2b6yV5Y5JbVW8BmDuBDnB4r2j75v7VIwCO6IVJ7lU9AgCBDnAU5yb5+bZv7lw9BOAw2r55VJInVe8AYEmgAxzNBUne0vaNW0OBUWn75kFJ/nP1DgCuIdABju4rk/xy2zc3qh4CsB9t33xTkp+N7wUBBsUXZYDVuGs8fg0YgbZv7prkzUmuX70FgFMJdAan7Ztzkvyr6h1wCJcmedHu/8MAg9P2zR2TvC3Lj+cAMDACnUHZDZvnJ3la9RY4pMuSPKt6BMC1tX3zlUn+e5Ivq94CwN4EOoNxUpw/vXoLHNFz2765rHoEwFXavvmyJL+a5ZkZAAyUQGcQxDkT9JK2bx5dPQKg7ZsLkrw1ycXVWwA4M4FOOXHOhP1U2zffXT0CmK+2b66fZCfJ3au3AHB2Ap1S4pyJOyfJz7R9c2n1EGB+dp8q8fok31K9BYD9EeiUEefMxLlJ3tj2zX2rhwDzsfse+6ok31G9BYD9E+iUEOfMzPlJfqntm2+sHgLMxvOTOAcDYGQEOhsnzpmpGyZ5q0gH1qntm3PavvmReI8FGCWBzkaJc2bugiS/4nZ3YB1232NfmOTfFU8B4JAEOhsjziHJ8kr6f3NwHLBKbd8cS/LKJE+u3gLA4Ql0NkKcwynOT/ILHsEGrELbN+cleU2Sx1ZvAeBoBDprJ85hT+cmeV3bNw5xAg5t9znnb0zyvdVbADg6gc5aiXM4o3OSvLrtm8uqhwDj0/bNDZP81yRN9RYAVkOgszbiHPbtJW3f/NDu3xmAs2r75iZJ3pbk/tVbAFgdgc5aiHM4sOcmeXHbN+dWDwGGre2bWyZZJLlX9RYAVkugs3LiHA7tsiwPj7tR9RBgmNq+uVOS305y1+otAKyeQGelxDkc2aVJ3t72za2qhwDD0vbN/ZP0SW5TvQWA9RDorIw4h5W5a5LfbvvmztVDgGFo++YxSd6S5ILqLQCsj0BnJcQ5rNxXJvnN3StmwEy1fXOs7ZsXJPlPWT6eEYAJE+gcmTiHtbkgyVvavnls9RBg83Yfo/bGJE+t3gLAZgh0jkScw9qdm+RVbd+8yAnvMB9t3/zDJL+W5MHVWwDYHIHOoYlz2KgnZ3k1/RbVQ4D1avtmK8n7knx99RYANkugcyjiHErcP8n72r65e/UQYPXavjmn7ZsnJnl7kltX7wFg8wQ6BybOodRtkvxG2zeP3f27CExA2zc3TvKGJC9Lcl7xHACKCHQORJzDIJyf5FVJ2t1DpIARa/vm4iTvTvKw6i0A1BLo7Js4h8F5ZJLfavvm9tVDgMNp++ahSd6T5KuqtwBQT6CzL+IcBuurk7y37ZtLq4cA+9f2zfXavnlJkp9LcuPqPQAMg0DnrMQ5DN5NkvxS2zcvb/vmBtVjgDNr++aiJO9Mcln1FhiR91cPgE0458SJE9UbGDBxDqPzR0kevr21877qIcCpdt9TH5PkxUmcHwH796Yk37O9tfOF6iGwbgKd0xLnMFpXJPmRJC/Y3tq5onoMkLR9c8skP53kn1dvgZER58yKQGdP4hwmoU/yyO2tnQ9WD4E5a/umSfLqJLeo3gIjI86ZHYHOdYhzmJRPZ/k515/e3trxBR82qO2bmyR5aZJHVW+BERLnzJJA5xTiHCbrzUkes72189fVQ2AO2r65V5L/kuTC4ikwRuKc2RLoXE2cw+T9fZafTX+Fb3pgPdq+uVWSH0/yiOotMFLinFkT6CQR5zAzf5DkidtbO4vqITAVbd+cn+QJWf4Q7ILiOTBW4pzZE+iIc5ivNyV58vbWzoerh8CYtX1z3yQvT3Jx9RYYMXEOEeizJ85h9j6b5HlJXrS9tfO56jEwJm3fXJjlM82b4ikwduIcdgn0GRPnwEn+NMkPJvllp73DmbV9c4MkT0vyb5N8SfEcGDtxDicR6DMlzoHTeFuSJ21v7fxx9RAYmt33zgdledX8wto1MAniHK5FoM+QOAfO4gtJXpLk329v7XyyegwMQds3F2f5OfP7Vm+BiRDnsAeBPjPiHDiAjyZ5apI3uO2duWr75iZJnp3kSUnOK54DUyHO4TQE+oyIc+CQ3pnkCdtbO++vHgKb0vbNsSTfm+UzzW9ZPAemRJzDGQj0mRDnwBFdmeRVSZ69vbXzt9VjYJ3avrlrlrezb1VvgYkR53AWAn0GxDmwQp9O8uokL97e2vmL6jGwKrvvlffO8r3yAcVzYIrEOeyDQJ84cQ6syRVJXp/khdtbO79fPQYOa/dW9kuzfJ+8R/EcmCpxDvsk0CdMnAMb8pYsP6f7Gw6TYyzavrl+kkdkeRDiHYrnwJSJczgAgT5R4hwo8FtJXpDkzdtbO1dWj4G9tH1z0ySPTXJZklsVz4GpE+dwQAJ9gsQ5UOyPkrwwyeu2t3Yurx4DSdL2za2yjPIfSHKT4jkwB+IcDkGgT4w4Bwbko0lekuSntrd2/r56DPPU9s0dkzwlySOTnF88B+ZCnMMhCfQJEefAQH0iySuTvGx7a+evqscwD23f3CPL98MHJTmneA7MiTiHIxDoEyHOgRG4PMlrkrxoe2vnA9VjmJ7d98JvzfK98D7Fc2COxDkckUCfAHEOjMyJJF2SNyT5xe2tnU8U72Hk2r65KMl3J/meJHcsngNzJc5hBQT6yIlzYOQuT/LWLJ+p/pbtrZ3PFu9hJNq+uXWSh2UZ5XcrngNzJ85hRQT6iIlzYGI+mWQnyyvr/8M3elxb2zc3T/LgLK+Wf1N8thyGQJzDCgn0kRLnwMR9LMkbs4z13nPV56vtmxsleWCWUf6tSa5Xuwg4iTiHFRPoIyTOgZn5cJKfzfI2+N/b3trxxjVxbd+cn+R+Wd6+fmmSG9YuAvYgzmENBPrIiHNg5v4wy1B/w/bWzgerx7A6bd8cS3LvLK+Uf2eSm9cuAs5AnMOaCPQREecAp3hPlt8k/nqS921v7VxRO4eDavvmpknumeR4kocm+YraRcA+iHNYI4E+EuIc4Iw+laRP8vYk70jynu2tnctrJ3Ftbd/cIsm9snxG+b2TfE2SY6WjgIMQ57BmAn0ExDnAgX0uybtyTbC/a3tr5zO1k+an7ZtbZhniVwX5nWoXAUcgzmEDBPrAiXOAlfhClrfEXxXsv7m9tfPJ2knT0/bNbXJqkN+hdhGwIuIcNkSgD5g4B1ibK5O8L9cE+zu3t3Y+XjtpXHbfo26XU4P8wspNwFqIc9gggT5Q4hxgo04k+WCSDyT5k91fr3p9aM4H0O0+h/z2SS466XX7JHdM8g8KpwHrJ85hwwT6AIlzgEH5QpI/y6nRftXrL7a3dr5YuG0l2r65QfaO8IuS3LpwGlBHnEMBgT4w4hxgVD6f5E9z3XD/SJJPZnm6/KcrI77tm/OT3Hj3ddMkt82pIX5Rkn9UtQ8YJHEORQT6gIhzgMn6bK4J9pNf+/mzy5PcKNdE9o2TXHCt35/uz26c5PwN/PcB0yHOoZBAHwhxDgBAMXEOxY5VD0CcAwBQTpzDAAj0YuIcAIBi4hwGQqAXEucAABQT5zAgAr2IOAcAoJg4h4ER6AXEOQAAxcQ5DJBA3zBxDgBAMXEOAyXQN0icAwBQTJzDgAn0DRHnAAAUE+cwcAJ9A8Q5AADFxDmMgEBfM3EOAEAxcQ4jIdDXSJwDAFBMnMOICPQ1EecAABQT5zAyAn0NxDkAAMXEOYyQQF8xcQ4AQDFxDiMl0FdInAMAUEycw4gJ9BUR5wAAFBPnMHICfQXEOQAAxcQ5TIBAPyJxDgBAMXEOEyHQj0CcAwBQTJzDhAj0QxLnAAAUE+cwMQL9EMQ5AADFxDlMkEA/IHEOAEAxcQ4TJdAPQJwDAFBMnMOECfR9EucAABQT5zBxAn0fxDkAAMXEOcyAQD8LcQ4AQDFxDjMh0M9AnAMAUEycw4wI9NMQ5wAAFBPnMDMCfQ/iHACAYuIcZkigX4s4BwCgmDiHmRLoJxHnAAAUE+cwYwJ9lzgHAKCYOIeZE+gR5wAAlBPngEAX5wAAFBPnQJKZB7o4BwCgmDgHrjbbQBfnAAAUE+fAKWYZ6OIcAIBi4hy4jtkFujgHAKCYOAf2NKtAF+cAABQT58BpzSbQxTkAAMXEOXBGswh0cQ4AQDFxDpzV5ANdnAMAUEycA/sy6UAX5wAAFBPnwL5NNtDFOQAAxcQ5cCCTDHRxDgBAMXEOHNjkAl2cAwBQTJwDhzKpQBfnAAAUE+fAoU0m0MU5AADFxDlwJJMIdHEOAEAxcQ4c2egDXZwDAFBMnAMrMepAF+cAABQT58DKjDbQxTkAAMXEObBSowx0cQ4AQDFxDqzc6AJdnAMAUEycA2sxqkAX5wAAFBPnwNqMJtDFOQAAxcQ5sFajCHRxDgBAMXEOrN3gA12cAwBQTJwDGzHoQBfnAAAUE+fAxgw20MU5AADFxDmwUYMMdHEOAEAxcQ5s3OACXZwDAFBMnAMlBhXo4hwAgGLiHCgzmEAX5wAAFBPnQKlBBLo4BwCgmDgHypUHujgHAKCYOAcGoTTQxTkAAMXEOTAYZYEuzgEAKCbOgUEpCXRxDgBAMXEODM7GA12cAwBQTJwDg7TRQBfnAAAUE+fAYG0s0MU5AADFxDkwaBsJdHEOAEAxcQ4M3toDXZwDAFBMnAOjsNZAF+cAABQT58BorC3QxTkAAMXEOTAqawl0cQ4AQDFxDozOygNdnAMAUEycA6O00kAX5wAAFBPnwGitLNDFOQAAxcQ5MGorCXRxDgBAMXEOjN6RA12cAwBQTJwDk3CkQBfnAAAUE+fAZBw60MU5AADFxDkwKYcKdHEOAEAxcQ5MzoEDXZwDAFBMnAOTdKBAF+cAABQT58Bk7TvQxTkAAMXEOTBp+wp0cQ4AQDFxDkzeWQNdnAMAUEycA7NwxkAX5wAAFBPnwGycNtDFOQAAxcQ5MCt7Bro4BwCgmDgHZuc6gS7OAQAoJs6BWTol0MU5AADFxDkwW1cHujgHAKCYOAdm7VgizgEAKCfOgdk798L7vV+cAwBQSZwDZHkFXZwDAFBFnAPsOpbkE9UjAACYJXEOcJJj21s7z0/yzOohAADMijgHuJZjSSLSAQDYIHEOsIerH7Mm0gEA2ABxDnAax07+jUgHAGCNxDnAGRy79h+IdAAA1kCcA5zFdQI9EekAAKyUOAfYhz0DPRHpAACshDgH2KfTBnoi0gEAOBJxDnAAZwz0RKQDAHAo4hzggM4a6IlIBwDgQMQ5wCHsK9ATkQ4AwL6Ic4BD2negJyIdAIAzEucAR3CgQE9EOgAAexLnAEd04EBPRDoAAKcQ5wArcKhAT0Q6AABJxDnAyhw60BORDgAwc+IcYIWOFOiJSAcAmClxDrBiRw70RKQDAMyMOAdYg5UEeiLSAQBmQpwDrMnKAj0R6QAAEyfOAdZopYGeiHQAgIkS5wBrtvJAT0Q6AMDEiHOADTjnxIkTa/uHt33zjCTPW9u/AGBaXpDkFdUjAPbw0e2tnSuqRwBM3VoDPRHpAPv040mesb21s94vygAADNZabnE/mdvdAc5KnAMAsP5AT0Q6wBmIcwAAkmwo0BORDrAHcQ4AwNU2FuiJSAc4iTgHAOAUGw30RKQDRJwDALCHjQd6ItKBWRPnAADsqSTQE5EOzJI4BwDgtMoCPRHpwKyIcwAAzqg00BORDsyCOAcA4KzKAz0R6cCkiXMAAPZlEIGeiHRgksQ5AAD7NphAT0Q6MCniHACAAxlUoCciHZgEcQ4AwIENLtATkQ6MmjgHAOBQBhnoiUgHRkmcAwBwaIMN9ESkA6MizgEAOJJBB3oi0oFREOcAABzZ4AM9EenAoIlzAABWYhSBnoh0YJDEOQAAKzOaQE9EOjAo4hwAgJUaVaAnIh0YBHEOAMDKjS7QE5EOlBLnAACsxSgDPRHpQAlxDgDA2ow20BORDmyUOAcAYK1GHeiJSAc2QpwDALB2ow/0RKQDayXOAQDYiEkEeiLSgbUQ5wAAbMxkAj0R6cBKiXMAADZqUoGeiHRgJcQ5AAAbN7lAT0Q6cCTiHACAEpMM9ESkA4cizgEAKDPZQE9EOnAg4hwAgFKTDvREpAP7Is4BACg3+UBPRDpwRuIcAIBBmEWgJyId2JM4BwBgMGYT6IlIB04hzgEAGJRZBXoi0oEk4hwAgAGaXaAnIh1mTpwDADBIswz0RKTDTIlzAAAGa7aBnoh0mBlxDgDAoM060BORDjMhzgEAGLzZB3oi0mHixDkAAKMg0HeJdJgkcQ4AwGgI9JOIdJgUcQ4AwKgI9GsR6TAJ4hwAgNER6HsQ6TBq4hwAgFES6Kch0mGUxDkAAKMl0M9ApMOoiHMAAEZNoJ+FSIdREOcAAIyeQN8HkQ6DJs4BAJgEgb5PIh0GSZwDADAZAv0ARDoMijgHAGBSBPoBiXQYBHEOAMDkCPRDEOlQSpwDADBJAv2QRDqUEOcAAEyWQD8CkQ4bJc4BAJg0gX5EIh02QpwDADB5An0FRDqslTgHAGAWBPqKiHRYC3EOAMBsCPQVEumwUuIcAIBZEegrJtJhJcQ5AACzI9DXQKTDkYhzAABmSaCviUiHQxHnAADMlkBfI5EOByLOAQCYNYG+ZiId9kWcAwAwewJ9A0Q6nJE4BwCACPSNEemwJ3EOAAC7BPoGiXQ4hTgHAICTCPQNE+mQRJwDAMB1CPQCIp2ZE+cAALAHgV5EpDNT4hwAAE5DoBcS6cyMOAcAgDMQ6MVEOjMhzgEA4CwE+gCIdCZOnAMAwD4I9IEQ6UyUOAcAgH0S6AMi0pkYcQ4AAAcg0AdGpDMR4hwAAA5IoA+QSGfkxDkAAByCQB8okc5IiXMAADgkgT5gIp2REecAAHAEAn3gRDojIc4BAOCIBPoIiHQGTpwDAMAKCPSREOkMlDgHAIAVEegjItIZGHEOAAArJNBHRqQzEOIcAABWTKCPkEinmDgHAIA1EOgjJdIpIs4BAGBNBPqIiXQ2TJwDAMAaCfSRE+lsiDgHAIA1E+gTINJZM3EOAAAbINAnQqSzJuIcAAA2RKBPiEhnxcQ5AABskECfGJHOiohzAADYMIE+QSKdIxLnAABQQKBPlEjnkMQ5AAAUEegTJtI5IHEOAACFBPrEiXT2SZwDAEAxgT4DIp2zEOcAADAAAn0mRDqnIc4BAGAgBPqMiHSuRZwDAMCACPSZEensEucAADAwAn2GRPrsiXMAABgggT5TIn22xDkAAAyUQJ8xkT474hwAAAZMoM+cSJ8NcQ4AAAMn0BHp0yfOAQBgBAQ6SUT6hIlzAAAYCYHO1UT65IhzAAAYEYHOKUT6ZIhzAAAYGYHOdYj00RPnAAAwQgKdPYn00RLnAAAwUgKd0xLpoyPOAQBgxAQ6ZyTSR0OcAwDAyAl0zkqkD544BwCACRDo7ItIHyxxDgAAEyHQ2TeRPjjiHAAAJkSgcyAifTDEOQAATIxA58BEejlxDgAAEyTQORSRXkacAwDARAl0Dk2kb5w4BwCACRPoHIlI3xhxDgAAEyfQOTKRvnbiHAAAZkCgsxIifW3EOQAAzIRAZ2VE+sqJcwAAmBGBzkqJ9JUR5wAAMDMCnZUT6UcmzgEAYIYEOmsh0g9NnAMAwEwJdNZGpB+YOAcAgBkT6KyVSN83cQ4AADMn0Fk7kX5W4hwAABDobIZIPy1xDgAAJBHobJBIvw5xDgAAXE2gs1Ei/WriHAAAOIVAZ+NEujgHAACuS6BTYsaRLs4BAIA9CXTKzDDSxTkAAHBaAp1SM4p0cQ4AAJyRQKfcDCJdnAMAAGcl0BmECUe6OAcAAPZFoDMYE4x0cQ4AAOybQGdQJhTp4hwAADgQgc7gTCDSxTkAAHBgAp1BGnGki3MAAOBQBDqDNcJIF+cAAMChCXQGbUSRLs4BAIAjEegM3ggiXZwDAABHJtAZhQFHujgHAABWQqAzGgOMdHEOAACsjEBnVAYU6eIcAABYKYHO6Awg0sU5AACwcgKdUSqMdHEOAACshUBntAoiXZwDAABrI9AZtQ1GujgHAADWSqAzehuIdHEOAACsnUBnEtYY6eIcAADYCIHOZKwh0sU5AACwMQKdSVlhpItzAABgowQ6k7OCSBfnAADAxgl0JukIkS7OAQCAEgKdyTpEpItzAACgjEBn0g4Q6eIcAAAoJdCZvH1EujgHAADKCXRm4QyRLs4BAIBBEOjMxh6RLs4BAIDBOOfECW3CvLR984wkN404BwAABuT/A6ESwH2oBGx9AAAAAElFTkSuQmCC;" parent="N_H7r8gi8kSWgMIb8MQw-37" vertex="1">
          <mxGeometry x="162.5" y="265" width="50" height="50" as="geometry" />
        </mxCell>
        <mxCell id="N_H7r8gi8kSWgMIb8MQw-3" value="OpenAPI&#xa;Specification&#xa;" style="shape=image;verticalLabelPosition=bottom;labelBackgroundColor=default;verticalAlign=top;aspect=fixed;imageAspect=0;image=data:image/svg+xml,PHN2ZyB4bWw6c3BhY2U9InByZXNlcnZlIiBzdHlsZT0iZW5hYmxlLWJhY2tncm91bmQ6bmV3IDAgMCA3OCA3ODsiIHZpZXdCb3g9IjAgMCA3OCA3OCIgeT0iMHB4IiB4PSIwcHgiIHhtbG5zOnhsaW5rPSJodHRwOi8vd3d3LnczLm9yZy8xOTk5L3hsaW5rIiB4bWxucz0iaHR0cDovL3d3dy53My5vcmcvMjAwMC9zdmciIGlkPSJMYXllcl8xIiB2ZXJzaW9uPSIxLjEiPiYjeGE7PHN0eWxlIHR5cGU9InRleHQvY3NzIj4mI3hhOwkuc3Qwe2ZpbGw6IzkzRDUwMDt9JiN4YTsJLnN0MXtmaWxsOiM0RDVBMzE7fSYjeGE7CS5zdDJ7ZmlsbDojNkJBNDNBO30mI3hhOwkuc3Qze2ZpbGw6IzQyNDE0Mzt9JiN4YTs8L3N0eWxlPiYjeGE7PHBhdGggZD0iTTIwLjYsNDQuOEgwYzAsMC4xLDAsMC4yLDAsMC4zYzAsMC4yLDAsMC40LDAsMC42YzAsMC4xLDAsMC4yLDAsMC4yYzAsMC4yLDAsMC40LDAuMSwwLjdjMCwwLjEsMCwwLjEsMCwwLjEmI3hBOyYjOTtjMCwwLjIsMC4xLDAuNSwwLjEsMC43YzAsMCwwLDAsMCwwLjFjMCwwLjMsMC4xLDAuNSwwLjEsMC44YzAsMCwwLDAsMCwwYzAuMiwxLjYsMC42LDMuMywxLjEsNC45YzAsMCwwLDAsMCwwJiN4QTsmIzk7YzAuMSwwLjMsMC4yLDAuNSwwLjIsMC44YzAsMCwwLDAsMCwwczAsMCwwLDBjMC4xLDAuMiwwLjEsMC40LDAuMiwwLjdjMCwwLjEsMCwwLjEsMC4xLDAuMmMwLjEsMC4yLDAuMSwwLjQsMC4yLDAuNiYjeEE7JiM5O2MwLDAuMSwwLjEsMC4yLDAuMSwwLjNjMC4xLDAuMiwwLjEsMC4zLDAuMiwwLjVjMCwwLjEsMC4xLDAuMiwwLjEsMC40YzAuMSwwLjEsMC4xLDAuMiwwLjIsMC40YzAuMSwwLjIsMC4xLDAuMywwLjIsMC41JiN4QTsmIzk7YzAsMC4xLDAuMSwwLjIsMC4xLDAuM2MwLjEsMC4yLDAuMiwwLjQsMC4zLDAuNWMwLDAuMSwwLjEsMC4xLDAuMSwwLjJjMC4xLDAuMiwwLjIsMC40LDAuMywwLjZjMCwwLDAsMC4xLDAsMC4xJiN4QTsmIzk7YzAuMSwwLjIsMC4yLDAuNSwwLjQsMC43YzAsMCwwLDAsMCwwYzAsMCwwLjEsMC4xLDAuMSwwLjFsMTcuNi0xMC42bDAuMSwwQzIxLjIsNDgsMjAuOCw0Ni40LDIwLjYsNDQuOEwyMC42LDQ0Ljh6IiBjbGFzcz0ic3QwIi8+JiN4YTs8cGF0aCBkPSJNMjUuNyw1NC4zTDI1LjcsNTQuM0wxMS4xLDY4LjhjMC4xLDAuMSwwLjEsMC4xLDAuMiwwLjJjMC4xLDAuMSwwLjMsMC4yLDAuNCwwLjRjMC4xLDAuMSwwLjEsMC4xLDAuMiwwLjImI3hBOyYjOTtjMC4yLDAuMSwwLjMsMC4zLDAuNSwwLjRjMCwwLDAuMSwwLjEsMC4xLDAuMWMwLjIsMC4yLDAuNCwwLjMsMC42LDAuNWMwLjIsMC4yLDAuNCwwLjMsMC42LDAuNWMwLDAsMCwwLDAsMCYjeEE7JiM5O2MwLjksMC43LDEuOCwxLjMsMi43LDEuOGMwLDAsMC4xLDAsMC4xLDAuMWMwLjIsMC4xLDAuNCwwLjIsMC41LDAuM2wwLjMsMC4yYzAuMSwwLjEsMC4yLDAuMSwwLjMsMC4yYzAuMiwwLjEsMC40LDAuMiwwLjYsMC4zJiN4QTsmIzk7YzAsMCwwLjEsMCwwLjEsMGMwLjUsMC4zLDEuMSwwLjUsMS42LDAuOGwwLjUtMS4ybDcuMy0xNy43bDAtMC4xQzI3LjIsNTUuNCwyNi40LDU0LjksMjUuNyw1NC4zTDI1LjcsNTQuM3oiIGNsYXNzPSJzdDEiLz4mI3hhOzxwYXRoIGQ9Ik0yNC4yLDUyLjhjLTAuMi0wLjItMC4zLTAuNC0wLjUtMC41Yy0wLjEtMC4yLTAuMy0wLjMtMC40LTAuNWMtMC4xLTAuMi0wLjMtMC40LTAuNC0wLjYmI3hBOyYjOTtjLTAuMS0wLjItMC4zLTAuNC0wLjQtMC42TDUsNjEuM2MwLjMsMC40LDAuNiwwLjksMC44LDEuM2MwLDAsMCwwLDAsMGMwLDAsMCwwLDAsMGMwLDAsMCwwLDAsMGMwLDAsMCwwLDAsMGMwLDAsMCwwLjEsMC4xLDAuMSYjeEE7JiM5O2MwLDAsMCwwLDAsMGMwLDAsMCwwLDAsMGMwLjMsMC41LDAuNiwwLjksMC45LDEuM2MwLDAsMCwwLDAsMGMwLDAsMCwwLDAsMGMwLjEsMC4yLDAuMywwLjQsMC40LDAuNmMwLDAsMCwwLDAuMSwwLjEmI3hBOyYjOTtjMC4xLDAuMiwwLjMsMC40LDAuNSwwLjZjMCwwLDAuMSwwLjEsMC4xLDAuMWMwLjEsMC4yLDAuMywwLjMsMC40LDAuNWMwLjEsMC4xLDAuMSwwLjEsMC4yLDAuMmMwLjEsMC4xLDAuMiwwLjMsMC40LDAuNCYjeEE7JiM5O2MwLjEsMC4xLDAuMSwwLjEsMC4yLDAuMmMwLDAsMC4xLDAuMSwwLjEsMC4xYzAuMSwwLjEsMC4yLDAuMiwwLjMsMC4zYzAsMCwwLjEsMC4xLDAuMSwwLjFjMC4yLDAuMiwwLjMsMC4zLDAuNSwwLjVsMTQuNS0xNC41JiN4QTsmIzk7QzI0LjUsNTMuMiwyNC4zLDUzLDI0LjIsNTIuOEwyNC4yLDUyLjh6IiBjbGFzcz0ic3QyIi8+JiN4YTs8cGF0aCBkPSJNNDMuNCw1NC4zYy0wLjIsMC4xLTAuMywwLjMtMC41LDAuNGwwLDAuMWwxMC42LDE3LjZjMC41LTAuMywxLTAuNywxLjQtMWMxLTAuOCwyLTEuNiwzLTIuNUw0My40LDU0LjMmI3hBOyYjOTtMNDMuNCw1NC4zeiIgY2xhc3M9InN0MSIvPiYjeGE7PHBhdGggZD0iTTUyLDcyLjRsLTAuNC0wLjZsLTkuOS0xNi40Yy0wLjIsMC4xLTAuNCwwLjItMC42LDAuM2MtMC4yLDAuMS0wLjQsMC4yLTAuNiwwLjNjLTEuOSwwLjktNCwxLjQtNiwxLjQmI3hBOyYjOTtjLTEuMywwLTIuNy0wLjItNC0wLjZjLTAuMi0wLjEtMC40LTAuMi0wLjctMC4yYy0wLjItMC4xLTAuNC0wLjEtMC43LTAuMmwtNy4zLDE3LjdsLTAuMywwLjdsLTAuMiwwLjZsMCwwYzAsMCwwLDAsMC4xLDAmI3hBOyYjOTtjMCwwLDAsMCwwLjEsMGgwYzAsMCwwLDAsMCwwYzAuMiwwLjEsMC4zLDAuMSwwLjUsMC4yYzAuMiwwLjEsMC40LDAuMiwwLjcsMC4yYzAuMSwwLDAuMiwwLjEsMC4zLDAuMWgwYzIuMywwLjgsNC42LDEuNCw3LDEuNyYjeEE7JiM5O2MwLjEsMCwwLjIsMCwwLjMsMGMwLjEsMCwwLjIsMCwwLjMsMGMwLjIsMCwwLjQsMCwwLjYsMC4xbDAuMSwwYzAuMiwwLDAuNSwwLDAuNywwLjFjMC4xLDAsMC4yLDAsMC4yLDBjMC4yLDAsMC40LDAsMC42LDAmI3hBOyYjOTtjMC4xLDAsMC4yLDAsMC40LDBjMC4yLDAsMC4zLDAsMC41LDBjMC4yLDAsMC41LDAsMC43LDBjMC4xLDAsMC4xLDAsMC4yLDBjMS45LDAsMy44LTAuMiw1LjctMC41YzAsMCwwLjEsMCwwLjEsMCYjeEE7JiM5O2MwLjIsMCwwLjQtMC4xLDAuNi0wLjFjMC4xLDAsMC4yLDAsMC4zLTAuMWMwLjEsMCwwLjIsMCwwLjQtMC4xYzAuMiwwLDAuNC0wLjEsMC42LTAuMWMwLDAsMC4xLDAsMC4xLDBjMi45LTAuNyw1LjctMS43LDguMy0zLjF2MCYjeEE7JiM5O2MwLjItMC4xLDAuMy0wLjIsMC41LTAuM2MwLjItMC4xLDAuNC0wLjIsMC42LTAuM2MwLjEtMC4xLDAuMy0wLjIsMC40LTAuMmMwLDAsMCwwLDAsMGgwYzAsMCwwLDAsMCwwbDAsMGwwLDBsMCwwYzAsMCwwLDAsMCwwJiN4QTsmIzk7YzAsMCwwLDAsMCwwYzAsMCwwLDAsMCwwYzAsMCwwLjEtMC4xLDAuMS0wLjFMNTIsNzIuNHogTTI1LjcsMzIuNmMwLjItMC4xLDAuMy0wLjMsMC41LTAuNGwwLTAuMUwxNS41LDE0LjZjLTAuNSwwLjMtMSwwLjctMS41LDEmI3hBOyYjOTtjLTEsMC44LTIsMS42LTMsMi41TDI1LjcsMzIuNkwyNS43LDMyLjZ6IiBjbGFzcz0ic3QwIi8+JiN4YTs8cGF0aCBkPSJNMTAuMSwxOWMtMC4yLDAuMi0wLjMsMC4zLTAuNSwwLjVjLTAuMiwwLjItMC4zLDAuMy0wLjUsMC41Yy0xLjEsMS4xLTIsMi40LTIuOSwzLjZjMCwwLjEtMC4xLDAuMS0wLjEsMC4yJiN4QTsmIzk7QzYsMjQsNS45LDI0LjEsNS44LDI0LjNjLTAuMSwwLjItMC4yLDAuMy0wLjMsMC41YzAsMC4xLTAuMSwwLjEtMC4xLDAuMkMyLjEsMzAuMSwwLjMsMzYuMSwwLDQyLjFjMCwwLjIsMCwwLjUsMCwwLjcmI3hBOyYjOTtjMCwwLjIsMCwwLjUsMCwwLjdoMjAuNWMwLTAuMiwwLTAuNSwwLTAuN2MwLTAuMiwwLTAuNSwwLTAuN2MwLjMtMi43LDEuMy01LjMsMy4xLTcuNWMwLjEtMC4yLDAuMy0wLjMsMC41LTAuNSYjeEE7JiM5O2MwLjItMC4yLDAuMy0wLjQsMC41LTAuNUwxMC4xLDE5eiBNNTIuNSwxMy45QzUyLjUsMTMuOSw1Mi40LDEzLjksNTIuNSwxMy45Yy0wLjMtMC4yLTAuNC0wLjMtMC42LTAuNGMtMC4xLTAuMS0wLjItMC4xLTAuMy0wLjImI3hBOyYjOTtjLTAuMS0wLjEtMC4yLTAuMS0wLjMtMC4yYy0wLjItMC4xLTAuNC0wLjItMC42LTAuM2MwLDAtMC4xLDAtMC4xLDBjLTEuMi0wLjYtMi40LTEuMi0zLjctMS43YzAsMC0wLjEsMC0wLjEsMCYjeEE7JiM5O2MtMC4zLTAuMS0wLjYtMC4yLTAuOC0wLjNjLTIuMi0wLjgtNC42LTEuMy02LjktMS42bC0wLjMsMGMtMC4xLDAtMC4yLDAtMC4zLDBjLTAuMiwwLTAuNCwwLTAuNi0wLjFjLTAuMSwwLTAuMSwwLTAuMiwwJiN4QTsmIzk7Yy0wLjIsMC0wLjQsMC0wLjctMC4xbC0wLjMsMGMtMC4yLDAtMC40LDAtMC42LDBjLTAuMSwwLTAuMiwwLTAuMywwdjIwLjZjMS4xLDAuMSwyLjEsMC4zLDMuMSwwLjdsMTUuMS0xNS4xJiN4QTsmIzk7QzUzLjYsMTQuNyw1My4xLDE0LjMsNTIuNSwxMy45TDUyLjUsMTMuOXoiIGNsYXNzPSJzdDEiLz4mI3hhOzxwYXRoIGQ9Ik0zMy44LDguOWMtMC4yLDAtMC41LDAtMC43LDBjLTEuNSwwLjEtMi45LDAuMi00LjMsMC40YzAsMC0wLjEsMC0wLjEsMGMtMC4yLDAtMC40LDAuMS0wLjYsMC4xJiN4QTsmIzk7Yy0wLjEsMC0wLjIsMC0wLjMsMC4xYy0wLjEsMC0wLjIsMC0wLjQsMC4xYy0wLjIsMC0wLjQsMC4xLTAuNiwwLjFjMCwwLTAuMSwwLTAuMSwwYy0yLjksMC43LTUuNywxLjctOC4zLDMuMSYjeEE7JiM5O2MtMC4yLDAuMS0wLjMsMC4yLTAuNSwwLjNjLTAuMiwwLjEtMC40LDAuMi0wLjYsMC4zYy0wLjEsMC4xLTAuMywwLjItMC41LDAuM2MwLDAsMCwwLDAsMGMwLDAsMCwwLDAsMGMwLDAtMC4xLDAtMC4xLDAuMWwwLDAmI3hBOyYjOTtsMC40LDAuNmwxMC4yLDE3YzAuMi0wLjEsMC40LTAuMiwwLjYtMC4zYzAuMi0wLjEsMC40LTAuMiwwLjYtMC4zYzEuNC0wLjcsMy0xLjEsNC42LTEuM2MwLjIsMCwwLjUsMCwwLjctMC4xYzAuMiwwLDAuNSwwLDAuNywwJiN4QTsmIzk7VjguOUMzNC4zLDguOSwzNC4xLDguOSwzMy44LDguOUwzMy44LDguOXoiIGNsYXNzPSJzdDIiLz4mI3hhOzxwYXRoIGQ9Ik02OSw0MS44YzAtMC4yLDAtMC40LDAtMC42YzAtMC4xLDAtMC4yLDAtMC4zYzAtMC4yLDAtMC40LTAuMS0wLjdjMC0wLjEsMC0wLjEsMC0wLjJjMC0wLjIsMC0wLjUtMC4xLTAuNyYjeEE7JiM5O2MwLDAsMCwwLDAtMC4xbDAsMGMwLTAuMy0wLjEtMC41LTAuMS0wLjhsMCwwYy0wLjItMS42LTAuNi0zLjMtMS4xLTQuOWMwLDAsMCwwLDAsMGMtMC4xLTAuMi0wLjItMC41LTAuMi0wLjdjMCwwLDAtMC4xLDAtMC4xJiN4QTsmIzk7Yy0wLjEtMC4yLTAuMS0wLjQtMC4yLTAuN2wtMC4xLTAuMmMtMC4xLTAuMi0wLjEtMC40LTAuMi0wLjZjMC0wLjEtMC4xLTAuMi0wLjEtMC4zYy0wLjEtMC4yLTAuMS0wLjMtMC4yLTAuNSYjeEE7JiM5O2MwLTAuMS0wLjEtMC4yLTAuMi0wLjRjLTAuMS0wLjEtMC4xLTAuMi0wLjItMC40Yy0wLjEtMC4yLTAuMS0wLjMtMC4yLTAuNWMwLTAuMS0wLjEtMC4yLTAuMS0wLjNjLTAuMS0wLjItMC4yLTAuNC0wLjMtMC42JiN4QTsmIzk7YzAtMC4xLTAuMS0wLjEtMC4xLTAuMmMtMC4xLTAuMi0wLjItMC40LTAuMy0wLjZjMCwwLDAtMC4xLDAtMC4xYy0wLjEtMC4yLTAuMi0wLjUtMC40LTAuN2MwLDAsMCwwLDAsMGMtMC42LTEuMS0xLjMtMi4yLTItMy4yJiN4QTsmIzk7TDQ3LjgsMzguOWMwLjMsMSwwLjYsMi4xLDAuNywzLjFoMjAuNkM2OS4xLDQyLDY5LDQxLjksNjksNDEuOEw2OSw0MS44eiIgY2xhc3M9InN0MSIvPiYjeGE7PHBhdGggZD0iTTQ4LjYsNDMuNWMwLDAuMiwwLDAuNSwwLDAuN2MwLDAuMiwwLDAuNSwwLDAuN2MtMC4zLDIuNy0xLjMsNS4zLTMuMSw3LjVjLTAuMSwwLjItMC4zLDAuMy0wLjUsMC41JiN4QTsmIzk7Yy0wLjIsMC4yLTAuMywwLjMtMC41LDAuNUw1OSw2Ny45YzAuMi0wLjIsMC4zLTAuMywwLjUtMC41YzAuMi0wLjIsMC4zLTAuMywwLjUtMC41YzEuMS0xLjIsMi4xLTIuNCwyLjktMy42YzAtMC4xLDAuMS0wLjEsMC4xLTAuMSYjeEE7JiM5O2MwLjEtMC4yLDAuMi0wLjMsMC4zLTAuNWMwLjEtMC4xLDAuMi0wLjMsMC4zLTAuNGMwLTAuMSwwLjEtMC4xLDAuMS0wLjJjMy4zLTUuMiw1LjEtMTEuMiw1LjQtMTcuMWMwLTAuMiwwLTAuNSwwLTAuNyYjeEE7JiM5O2MwLTAuMiwwLTAuNSwwLTAuN0g0OC42eiIgY2xhc3M9InN0MiIvPiYjeGE7PHBhdGggZD0iTTc1LjIsMi44Yy0zLjgtMy44LTkuOC0zLjgtMTMuNiwwYy0zLDMtMy42LDcuNS0xLjgsMTEuMWwtMjEsMjFjLTMuNi0xLjgtOC4xLTEuMi0xMS4xLDEuOCYjeEE7JiM5O2MtMy44LDMuOC0zLjgsOS44LDAsMTMuNmMzLjgsMy44LDkuOCwzLjgsMTMuNiwwYzMtMywzLjYtNy41LDEuOC0xMS4xbDIxLTIxYzMuNiwxLjgsOC4xLDEuMiwxMS4xLTEuOEM3OC45LDEyLjcsNzguOSw2LjYsNzUuMiwyLjgmI3hBOyYjOTtMNzUuMiwyLjh6IiBjbGFzcz0ic3QzIi8+JiN4YTs8L3N2Zz4=;" parent="N_H7r8gi8kSWgMIb8MQw-37" vertex="1">
          <mxGeometry x="32.5" y="265" width="50" height="50" as="geometry" />
        </mxCell>
        <mxCell id="N_H7r8gi8kSWgMIb8MQw-10" style="edgeStyle=orthogonalEdgeStyle;rounded=0;orthogonalLoop=1;jettySize=auto;html=1;entryX=0;entryY=0.5;entryDx=0;entryDy=0;" parent="N_H7r8gi8kSWgMIb8MQw-37" source="N_H7r8gi8kSWgMIb8MQw-3" target="N_H7r8gi8kSWgMIb8MQw-1" edge="1">
          <mxGeometry relative="1" as="geometry" />
        </mxCell>
        <mxCell id="N_H7r8gi8kSWgMIb8MQw-38" value="Auto-Generated Stack" style="swimlane;whiteSpace=wrap;html=1;fillColor=#dae8fc;strokeColor=#6c8ebf;" parent="1" vertex="1">
          <mxGeometry x="377.5" y="440" width="270" height="570" as="geometry" />
        </mxCell>
        <mxCell id="N_H7r8gi8kSWgMIb8MQw-2" value="REST API stub&#xa;for Java-Spring&#xa;" style="shape=image;verticalLabelPosition=bottom;labelBackgroundColor=default;verticalAlign=top;aspect=fixed;imageAspect=0;image=data:image/svg+xml,PHN2ZyB4bWw6c3BhY2U9InByZXNlcnZlIiBzdHlsZT0iZW5hYmxlLWJhY2tncm91bmQ6bmV3IDAgMCA3OCA3Ny45OyIgdmlld0JveD0iMCAwIDc4IDc3LjkiIHk9IjBweCIgeD0iMHB4IiB4bWxuczp4bGluaz0iaHR0cDovL3d3dy53My5vcmcvMTk5OS94bGluayIgeG1sbnM9Imh0dHA6Ly93d3cudzMub3JnLzIwMDAvc3ZnIiBpZD0iTGF5ZXJfMSIgdmVyc2lvbj0iMS4xIj4mI3hhOzxzdHlsZSB0eXBlPSJ0ZXh0L2NzcyI+JiN4YTsJLnN0MHtmaWxsOiM2REIzM0Y7fSYjeGE7PC9zdHlsZT4mI3hhOzxnIGlkPSJMYXllcl8yXzAwMDAwMTc5NjA4NTk0NDIwMzc2NTA1NzgwMDAwMDAyMzY0NzA4MDYzMDkwMzUyMDQ3XyI+JiN4YTsJPGcgaWQ9ImxvZ29zIj4mI3hhOwkJPHBhdGggZD0iTTcxLDQuNmMtMS4xLDIuNi0yLjUsNS4xLTQuMiw3LjNDNTEuOS0zLjYsMjcuMy00LDExLjksMTAuOXMtMTUuOSwzOS41LTAuOSw1NWMwLjUsMC41LDEsMS4xLDEuNiwxLjYmI3hBOyYjOTsmIzk7JiM5O2wxLjQsMS4zYzE2LjQsMTMuOCw0MC45LDExLjcsNTQuNy00LjdjNS4zLTYuMyw4LjUtMTQuMSw5LjEtMjIuM0M3OC45LDMyLDc1LjksMTkuNSw3MSw0LjZ6IE0xOC4xLDY3LjhjLTEuMiwxLjQtMy4yLDEuNi00LjcsMC41JiN4QTsmIzk7JiM5OyYjOTtjLTEuNC0xLjItMS42LTMuMi0wLjUtNC43YzEuMi0xLjQsMy4yLTEuNiw0LjYtMC41QzE5LDY0LjMsMTkuMyw2Ni40LDE4LjEsNjcuOHogTTcwLjgsNTYuMmMtOS41LDEyLjgtMzAuMSw4LjQtNDMuMiw5LjEmI3hBOyYjOTsmIzk7JiM5O2MwLDAtMi4zLDAuMi00LjcsMC41YzAsMCwwLjktMC40LDItMC44YzkuMi0zLjIsMTMuNi0zLjksMTkuMi02LjdjMTAuNS01LjQsMjEtMTcuMiwyMy4xLTI5LjRDNjMuMiw0MC41LDUxLDUwLjYsNDAsNTQuNyYjeEE7JiM5OyYjOTsmIzk7Yy03LjYsMi44LTIxLjMsNS41LTIxLjMsNS41bC0wLjYtMC4zYy05LjMtNC42LTkuNi0yNC44LDcuNC0zMS4zYzcuNS0yLjksMTQuNS0xLjMsMjIuNi0zLjJjOC42LTIsMTguNS04LjQsMjIuNS0xNi45JiN4QTsmIzk7JiM5OyYjOTtDNzUuMSwyMi4xLDgwLjYsNDMuMiw3MC44LDU2LjJ6IiBjbGFzcz0ic3QwIi8+JiN4YTsJPC9nPiYjeGE7PC9nPiYjeGE7PC9zdmc+;" parent="N_H7r8gi8kSWgMIb8MQw-38" vertex="1">
          <mxGeometry x="59.31999999999999" y="130" width="50" height="50" as="geometry" />
        </mxCell>
      </root>
    </mxGraphModel>
  </diagram>
</mxfile>
